<svg xmlns="http://www.w3.org/2000/svg" xmlns:xlink="http://www.w3.org/1999/xlink" width="190" height="142" viewBox="0 0 190 142">
  <defs>
    <clipPath id="clip-path">
      <rect id="Rect치ngulo_377881" data-name="Rect치ngulo 377881" width="85.561" height="111.697" fill="none"/>
    </clipPath>
  </defs>
  <g id="Grupo_1075132" data-name="Grupo 1075132" transform="translate(-1004 -1333)">
    <rect id="Rect치ngulo_377882" data-name="Rect치ngulo 377882" width="190" height="142" rx="8" transform="translate(1004 1333)" fill="#fff"/>
    <g id="Grupo_1075131" data-name="Grupo 1075131" transform="translate(1056.219 1350.152)">
      <g id="Grupo_1075130" data-name="Grupo 1075130" clip-path="url(#clip-path)">
        <path id="Trazado_823698" data-name="Trazado 823698" d="M94.579,568.765c0,2.741-18.013,4.963-40.233,4.963s-40.233-2.222-40.233-4.963S32.125,563.8,54.345,563.8s40.233,2.222,40.233,4.963" transform="translate(-11.565 -462.03)" fill="#3ece9b"/>
        <path id="Trazado_823699" data-name="Trazado 823699" d="M75.06,102.648C65.833,99.13,62.79,87.176,62.446,80.66a42.978,42.978,0,0,1,1.486-13.483c.31-1.145,1.015-4.177,1.907-8.017,1.441-6.2,3.416-14.7,4.667-19.186a48.28,48.28,0,0,0,1.31-12.191,54.924,54.924,0,0,1,.326-6.083c.818-6.027,3.228-11.365,6.613-14.646A21.348,21.348,0,0,1,93.888,1h.024a21.354,21.354,0,0,1,15.139,6.056c3.385,3.281,5.795,8.619,6.612,14.646a54.877,54.877,0,0,1,.326,6.083,48.28,48.28,0,0,0,1.31,12.191c1.251,4.483,3.226,12.982,4.667,19.187.892,3.839,1.6,6.871,1.908,8.021a42.968,42.968,0,0,1,1.484,13.477c-.344,6.515-3.387,18.47-12.614,21.988Z" transform="translate(-51.122 -0.818)" fill="#fff"/>
        <path id="Trazado_823700" data-name="Trazado 823700" d="M175.206,102.809a1.712,1.712,0,1,1-1.712-1.711,1.712,1.712,0,0,1,1.712,1.711" transform="translate(-140.774 -82.849)" fill="#2d2c2d"/>
        <path id="Trazado_823701" data-name="Trazado 823701" d="M286.671,101.3a1.712,1.712,0,1,1-1.712-1.711,1.712,1.712,0,0,1,1.712,1.711" transform="translate(-232.118 -81.611)" fill="#2d2c2d"/>
        <path id="Trazado_823702" data-name="Trazado 823702" d="M125.347,218.922c-.874-2.282-6.478-13.094-11.586-17.4.583,1.877,3.016,10.151,3.7,12.872,2.415,9.579,7.053,25.769.209,35.421-2.96,4.174-7.879,7.7-16.587,7.774h-.044c-8.708-.07-13.627-3.6-16.587-7.774-6.844-9.651-2.206-25.842.209-35.421.686-2.722,3.119-11,3.7-12.872-5.108,4.309-10.712,15.12-11.586,17.4-8.329,21.742-6.225,35.325-1.6,41.848A25.684,25.684,0,0,0,88.2,269.838a42.492,42.492,0,0,0,12.841,1.809,42.782,42.782,0,0,0,12.886-1.809,25.684,25.684,0,0,0,13.017-9.069c4.628-6.522,6.732-20.105-1.6-41.848" transform="translate(-58.283 -165.143)" fill="#e0e1e3"/>
        <path id="Trazado_823703" data-name="Trazado 823703" d="M78.763,58.1c-6-8.362-9.995-12.968-12.191-18.992-2.248-6.407-1.165-13.3-1.836-18.25-.8-5.889-3.152-11.346-6.666-14.751A21.488,21.488,0,0,0,42.781,0,21.489,21.489,0,0,0,27.492,6.107c-3.514,3.406-5.867,8.862-6.666,14.751-.671,4.949.412,11.843-1.836,18.25C16.794,45.132,12.8,49.739,6.8,58.1-2.084,70.482-.2,79.913,1.16,78.37,8.437,70.1,11.822,67.482,12.621,66.318a43.4,43.4,0,0,0-1.49,13.534c.377,7.144,3.7,18.727,12.761,22.158-1.718-.948-9.47-8.714-7.723-23.64,1.283-10.958,5.73-30.33,13.917-41.994-2.366-3.909-9.1-12.089-4.367-20.452,2.639-4.665,9.777-5.176,12.461-.364,1.777,3.187.87,7.588-1.356,10.461H48.738C46.6,23.45,45.6,18.748,47.382,15.561c2.684-4.813,9.823-4.3,12.461.364,4.73,8.362-2,16.543-4.367,20.452C63.664,48.041,68.111,67.413,69.394,78.37c1.747,14.925-6.005,22.691-7.723,23.64C70.729,98.579,74.055,87,74.432,79.852a43.4,43.4,0,0,0-1.49-13.534c.8,1.164,4.184,3.781,11.461,12.053,1.357,1.542,3.244-7.889-5.639-20.27" transform="translate(0)" fill="#2d2c2d"/>
        <path id="Trazado_823704" data-name="Trazado 823704" d="M9.984,319.318a28.442,28.442,0,0,0-3.629,10.625c0,.081,10.676-10.888,11.475-12.052a70.366,70.366,0,0,1,3.6-10.9A38.9,38.9,0,0,0,9.984,319.318" transform="translate(-5.208 -251.573)" fill="#e0e1e3"/>
        <path id="Trazado_823705" data-name="Trazado 823705" d="M395.566,319.461a28.441,28.441,0,0,1,3.629,10.625c0,.081-10.676-10.889-11.475-12.052a70.366,70.366,0,0,0-3.6-10.9,38.9,38.9,0,0,1,11.448,12.331" transform="translate(-314.781 -251.69)" fill="#e0e1e3"/>
        <path id="Trazado_823706" data-name="Trazado 823706" d="M209.957,117.9c-2.049,0-5.957,4.745-5.957,4.745,2.851-.044,5.957,3.017,5.957,3.017s3.3-3.017,5.957-3.017c0,0-3.907-4.745-5.957-4.745" transform="translate(-167.176 -96.618)" fill="#ffd945"/>
        <path id="Trazado_823707" data-name="Trazado 823707" d="M219.41,117.9v5.984l-3.874-.806a13.549,13.549,0,0,1,3.874,2.584s3.3-3.017,5.957-3.017c0,0-3.907-4.745-5.957-4.745" transform="translate(-176.63 -96.618)" fill="#ffe789"/>
        <path id="Trazado_823708" data-name="Trazado 823708" d="M89.953,556.1c-7.569,0-9.3,7.082-9.3,7.082l4.634-1.554,4.625,2.4s0,0,.006,0l4.625-2.4,4.635,1.554s-1.658-7.082-9.227-7.082" transform="translate(-66.096 -455.715)" fill="#ffd019"/>
        <path id="Trazado_823709" data-name="Trazado 823709" d="M97.948,559.876a7.124,7.124,0,0,1,6.18-3.78,6.926,6.926,0,0,1,6.1,3.78,3.434,3.434,0,0,0-2.321.179l-3.82,1.969-3.82-1.969a3.434,3.434,0,0,0-2.321-.179" transform="translate(-80.267 -455.715)" fill="#ffd945"/>
        <path id="Trazado_823710" data-name="Trazado 823710" d="M300.02,556.1c-7.569,0-9.3,7.082-9.3,7.082l4.634-1.554,4.625,2.4s0,0,.005,0l4.625-2.4,4.635,1.554s-1.658-7.082-9.227-7.082" transform="translate(-238.244 -455.715)" fill="#f6d245"/>
        <path id="Trazado_823711" data-name="Trazado 823711" d="M308.015,559.876a7.124,7.124,0,0,1,6.18-3.78,6.926,6.926,0,0,1,6.1,3.78,3.434,3.434,0,0,0-2.321.179l-3.82,1.969-3.82-1.969a3.434,3.434,0,0,0-2.321-.179" transform="translate(-252.415 -455.715)" fill="#ffd945"/>
      </g>
    </g>
  </g>
</svg>
