<svg xmlns="http://www.w3.org/2000/svg" xmlns:xlink="http://www.w3.org/1999/xlink" width="295" height="158" viewBox="0 0 295 158">
  <defs>
    <linearGradient id="linear-gradient" x1="-24.752" y1="3.243" x2="-23.427" y2="2.114" gradientUnits="objectBoundingBox">
      <stop offset="0" stop-color="#5a9fd4"/>
      <stop offset="1" stop-color="#306998"/>
    </linearGradient>
    <linearGradient id="linear-gradient-2" x1="-23.216" y1="1.078" x2="-23.689" y2="1.736" gradientUnits="objectBoundingBox">
      <stop offset="0" stop-color="#ffd43b"/>
      <stop offset="1" stop-color="#ffe873"/>
    </linearGradient>
    <radialGradient id="radial-gradient" cx="0.5" cy="0.489" r="0.5" gradientTransform="matrix(0, -1, -0.853, 0, -32.299, -29.657)" gradientUnits="objectBoundingBox">
      <stop offset="0" stop-color="#b8b8b8" stop-opacity="0.498"/>
      <stop offset="1" stop-color="#7f7f7f" stop-opacity="0"/>
    </radialGradient>
  </defs>
  <g id="Grupo_1084138" data-name="Grupo 1084138" transform="translate(-1125 -403)">
    <rect id="Rectángulo_377864" data-name="Rectángulo 377864" width="295" height="158" rx="6" transform="translate(1125 403)" fill="#24135a"/>
    <g id="python-3" transform="translate(1161.115 448.033)">
      <path id="Trazado_823689" data-name="Trazado 823689" d="M164.594,29.406q0-9.734-5.551-10a10.423,10.423,0,0,0-4.309.708,6.318,6.318,0,0,0-2.263,1.195V36.8a10.994,10.994,0,0,0,6.3,2.068Q164.591,38.477,164.594,29.406Zm4.565.269a13.765,13.765,0,0,1-2.328,8.209,8.585,8.585,0,0,1-7.206,3.8,12.784,12.784,0,0,1-7.154-2.172V53.592l-3.97-1.416V20.927a8.884,8.884,0,0,1,2.506-2.068,17.2,17.2,0,0,1,8.614-2.119l.056.056a7.9,7.9,0,0,1,7.141,3.8,16.151,16.151,0,0,1,2.342,9.078Zm24.264,9.239q0,6.633-1.329,9.187a9.371,9.371,0,0,1-5.086,4.074,19.485,19.485,0,0,1-6.576,1.307l-.656-2.5A31.546,31.546,0,0,0,184.83,50a6.681,6.681,0,0,0,3.97-2.988q.873-1.635.869-6.25V39.732a20.391,20.391,0,0,1-8.535,1.846,7.845,7.845,0,0,1-5.165-1.846,6.28,6.28,0,0,1-2.5-5.108V18.1l3.97-1.36V33.372a5.054,5.054,0,0,0,1.72,4.1,6.5,6.5,0,0,0,4.452,1.385,11.133,11.133,0,0,0,5.842-2.12v-19.4h3.97V38.915Zm15.5,2.554q-.652.055-1.307.056a7.812,7.812,0,0,1-5.247-1.607,5.551,5.551,0,0,1-1.872-4.443V19.837h-2.719v-2.5h2.719V10.707L204.459,9.3V17.34h4.461v2.5h-4.461V35.366a3.762,3.762,0,0,0,1.2,3.163,6.065,6.065,0,0,0,3.262.873v2.067Zm24.038-.326h-3.97V25.818A7.242,7.242,0,0,0,227.9,21.8a3.967,3.967,0,0,0-3.5-1.9q-2.73,0-6.828,2.88v18.37H213.6V4.513l3.97-1.251V19.946a13.832,13.832,0,0,1,8.318-2.771A6.63,6.63,0,0,1,231,19.294a7.464,7.464,0,0,1,1.959,5.273V41.143h0Zm21.1-12.362a12.2,12.2,0,0,0-1.416-6.181,5.928,5.928,0,0,0-5.217-3.14q-6.529.378-6.525,9.348a15.376,15.376,0,0,0,1.364,6.867,5.483,5.483,0,0,0,5.239,3.458q6.554-.053,6.554-10.351Zm4.348.026a14.119,14.119,0,0,1-2.719,8.861,9.779,9.779,0,0,1-8.262,3.966,9.584,9.584,0,0,1-8.157-3.966,14.308,14.308,0,0,1-2.663-8.861,12.648,12.648,0,0,1,2.88-8.427,9.923,9.923,0,0,1,7.992-3.64,10.089,10.089,0,0,1,8.049,3.64A12.648,12.648,0,0,1,258.407,28.807Zm22.76,12.336H277.2V24.95a5.416,5.416,0,0,0-1.6-4.161,5.824,5.824,0,0,0-4.27-1.438,9.541,9.541,0,0,0-5.381,1.846V41.143h-3.97V20.706a19.564,19.564,0,0,1,6.307-3.258,19.248,19.248,0,0,1,4.787-.708,12.414,12.414,0,0,1,2.663.274,7.659,7.659,0,0,1,3.8,2.011,5.32,5.32,0,0,1,1.633,3.914v18.2Z" transform="translate(-79.223 0)" fill="#fff"/>
      <path id="Trazado_823690" data-name="Trazado 823690" d="M30.065,6.4a34.075,34.075,0,0,0-5.709.488c-5.056.893-5.974,2.763-5.974,6.211V17.65H30.33v1.518H13.9a7.461,7.461,0,0,0-7.464,6.058,22.333,22.333,0,0,0,0,12.144c.849,3.537,2.878,6.058,6.35,6.058h4.108V37.968a7.593,7.593,0,0,1,7.464-7.423H36.29a6.02,6.02,0,0,0,5.974-6.072V13.1c0-3.238-2.732-5.671-5.974-6.211A37.272,37.272,0,0,0,30.065,6.4ZM23.6,10.06a2.277,2.277,0,1,1-2.242,2.284A2.267,2.267,0,0,1,23.6,10.06Z" transform="translate(0 -1.738)" fill="url(#linear-gradient)"/>
      <path id="Trazado_823691" data-name="Trazado 823691" d="M59.665,35.054V40.36A7.664,7.664,0,0,1,52.2,47.936H40.266a6.1,6.1,0,0,0-5.974,6.072V65.385c0,3.238,2.816,5.143,5.974,6.072a19.988,19.988,0,0,0,11.935,0c3.008-.871,5.974-2.624,5.974-6.072V60.831H46.24V59.313H64.149c3.473,0,4.767-2.422,5.974-6.058,1.248-3.742,1.195-7.342,0-12.144-.858-3.457-2.5-6.058-5.974-6.058ZM52.953,63.867a2.277,2.277,0,1,1-2.242,2.27A2.255,2.255,0,0,1,52.953,63.867Z" transform="translate(-15.911 -17.624)" fill="url(#linear-gradient-2)"/>
      <path id="Trazado_823692" data-name="Trazado 823692" d="M461.5,20.831h.7V16.466h1.648v-.521h-3.994v.521H461.5v4.365m2.963,0h.594V16.844l1.291,3.987h.662l1.345-3.973v3.974h.649V15.945h-.858l-1.47,4.186-1.253-4.186h-.959v4.885" transform="translate(-251.827 -7.031)" fill="#646464"/>
      <path id="Trazado_823693" data-name="Trazado 823693" d="M57.5,130.235c0,1.715-7.169,3.1-16.013,3.1s-16.012-1.39-16.012-3.1,7.169-3.105,16.012-3.105S57.5,128.52,57.5,130.235Z" transform="translate(-11.023 -68.668)" opacity="0.444" fill="url(#radial-gradient)"/>
    </g>
  </g>
</svg>
