<svg xmlns="http://www.w3.org/2000/svg" xmlns:xlink="http://www.w3.org/1999/xlink" width="315" height="249.375" viewBox="0 0 315 249.375">
  <defs>
    <clipPath id="clip-path">
      <rect id="Rectángulo_378163" data-name="Rectángulo 378163" width="315" height="249.375" transform="translate(0 0)" fill="none"/>
    </clipPath>
    <linearGradient id="linear-gradient" x1="0.5" x2="0.5" y2="1" gradientUnits="objectBoundingBox">
      <stop offset="0" stop-color="#b31a8f"/>
      <stop offset="1" stop-color="#fe117e"/>
    </linearGradient>
  </defs>
  <g id="Grupo_1076038" data-name="Grupo 1076038" transform="translate(0 -0.001)">
    <g id="Grupo_1076037" data-name="Grupo 1076037" transform="translate(0 0.001)" clip-path="url(#clip-path)">
      <path id="Trazado_824869" data-name="Trazado 824869" d="M665.29,76.809H495.764a9.424,9.424,0,0,0-9.424,9.424V306.5H674.714V86.233a9.424,9.424,0,0,0-9.424-9.424" transform="translate(-365.656 -57.749)" fill="#fff"/>
      <path id="Trazado_824870" data-name="Trazado 824870" d="M665.239,76.809h-169.4a9.5,9.5,0,0,0-9.5,9.5V98.79H674.714V86.284a9.475,9.475,0,0,0-9.475-9.475" transform="translate(-365.656 -57.749)" fill="url(#linear-gradient)"/>
      <path id="Trazado_824871" data-name="Trazado 824871" d="M673.456,305.245H483.841V84.354a10.056,10.056,0,0,1,10.044-10.045H663.411a10.056,10.056,0,0,1,10.045,10.045ZM485.082,304H672.215V84.354a8.814,8.814,0,0,0-8.8-8.8H493.885a8.814,8.814,0,0,0-8.8,8.8Z" transform="translate(-363.777 -55.87)" fill="#111c3a"/>
      <path id="Trazado_824872" data-name="Trazado 824872" d="M543.713,106.673a3.483,3.483,0,1,1-3.483-3.483,3.483,3.483,0,0,1,3.483,3.483" transform="translate(-403.555 -77.584)" fill="#fff"/>
      <path id="Trazado_824873" data-name="Trazado 824873" d="M594.745,106.673a3.483,3.483,0,1,1-3.483-3.483,3.483,3.483,0,0,1,3.483,3.483" transform="translate(-441.922 -77.584)" fill="#fff"/>
      <path id="Trazado_824874" data-name="Trazado 824874" d="M645.776,106.673a3.483,3.483,0,1,1-3.483-3.483,3.483,3.483,0,0,1,3.483,3.483" transform="translate(-480.29 -77.584)" fill="#fff"/>
      <rect id="Rectángulo_378157" data-name="Rectángulo 378157" width="106.532" height="6.966" transform="translate(173.731 25.606)" fill="#fff"/>
      <rect id="Rectángulo_378158" data-name="Rectángulo 378158" width="5.027" height="5.027" transform="translate(69.285 102.859) rotate(-45)" fill="url(#linear-gradient)"/>
      <rect id="Rectángulo_378159" data-name="Rectángulo 378159" width="5.806" height="5.806" transform="translate(20.698 102.859) rotate(-45)" fill="url(#linear-gradient)"/>
      <rect id="Rectángulo_378160" data-name="Rectángulo 378160" width="8.292" height="8.292" transform="matrix(0.707, -0.707, 0.707, 0.707, 38.225, 51.237)" fill="url(#linear-gradient)"/>
      <path id="Trazado_824875" data-name="Trazado 824875" d="M314.38,1001.191H.62a.62.62,0,0,1,0-1.241H314.38a.62.62,0,0,1,0,1.241" transform="translate(0 -751.815)" fill="#111c3a"/>
      <path id="Unión_5" data-name="Unión 5" d="M2497.275,7696.55l.276-.165a19.142,19.142,0,0,1,32.905-19.561h0l24.132,39.29L2523.8,7735.16Z" transform="translate(-2350.913 -7552.747)" stroke="rgba(0,0,0,0)" stroke-miterlimit="10" stroke-width="1" fill="url(#linear-gradient)"/>
      <path id="Trazado_824877" data-name="Trazado 824877" d="M723.886,372.3l6.768-16a11.6,11.6,0,0,1,6.029-6.107l5.225-2.29,10.821,2.081c13.752,12.435,2.857,30.4,2.857,30.4l-17.954,11.806,6.582,52.085c2.731,21.607-25.468,32.238-37.681,14.2l-9.812-14.488,13.325-8.243L720.715,381.3Z" transform="translate(-523.832 -261.567)" fill="#fff"/>
      <path id="Trazado_824878" data-name="Trazado 824878" d="M720.718,466.287a20.537,20.537,0,0,1-17.353-9.427l-10.174-15.023,13.644-8.441,10.625-54.215.015-.042,3.185-9.042,6.768-16a12.178,12.178,0,0,1,6.351-6.433l5.4-2.367,11.18,2.15.129.116c5.787,5.233,8.133,12.3,6.782,20.423a33.135,33.135,0,0,1-3.81,10.755l-.073.12-.117.077-17.631,11.594,6.534,51.7a20.96,20.96,0,0,1-3.114,14.288,21.761,21.761,0,0,1-10.519,8.338,22.239,22.239,0,0,1-7.824,1.431m-25.774-24.075,9.449,13.952c6.558,9.684,16.872,10.109,23.712,7.531s14.306-9.706,12.84-21.309l-6.631-52.468,18.156-11.939a32.752,32.752,0,0,0,3.585-10.236c1.273-7.723-.836-14.163-6.269-19.145l-10.46-2.011-5.048,2.212a10.939,10.939,0,0,0-5.707,5.781l-6.761,15.983-3.15,8.946-10.712,54.658Zm12.448-8.43h0Z" transform="translate(-521.177 -259.611)" fill="#111c3a"/>
      <path id="Trazado_824879" data-name="Trazado 824879" d="M847.046,364.756a2.206,2.206,0,0,1-1.117-.28,2.621,2.621,0,0,1-1.18-1.939,4.871,4.871,0,0,1,1.72-4.574c4.2-3.5,12.075-6.083,12.408-6.191a.62.62,0,0,1,.383,1.18c-.079.026-7.982,2.618-12,5.964a3.628,3.628,0,0,0-1.293,3.4,1.476,1.476,0,0,0,.576,1.082,1.887,1.887,0,0,0,1.445-.084.62.62,0,1,1,.428,1.165,4.018,4.018,0,0,1-1.373.275" transform="translate(-635.072 -264.458)" fill="#111c3a"/>
      <path id="Trazado_824880" data-name="Trazado 824880" d="M849.737,390.783a3.156,3.156,0,0,1-2.912-1.249c-.905-1.469.127-3.527.247-3.757,1.987-3.55,11.11-6.973,11.5-7.117l.1-.037,7.964-.1a.62.62,0,1,1,.015,1.241l-7.748.1c-2.6.977-9.3,3.936-10.739,6.508-.227.438-.738,1.776-.281,2.516.28.453.937.674,1.959.657a.62.62,0,1,1,.021,1.241h-.125" transform="translate(-636.411 -284.594)" fill="#111c3a"/>
      <path id="Trazado_824881" data-name="Trazado 824881" d="M855.382,415.483a.621.621,0,0,1-.22-.041c-.333-.126-3.262-1.288-3.768-3.129a2.184,2.184,0,0,1,.473-2c1.42-1.79,6.783-4.5,9.854-5.954a4.539,4.539,0,0,1,3.591-.123l6.6,2.594a.62.62,0,0,1-.454,1.155l-6.6-2.594a3.29,3.29,0,0,0-2.6.089c-5.059,2.4-8.49,4.441-9.413,5.6a.952.952,0,0,0-.248.9c.256.934,1.984,1.906,3.014,2.3a.621.621,0,0,1-.221,1.2" transform="translate(-640.066 -303.691)" fill="#111c3a"/>
      <path id="Trazado_824882" data-name="Trazado 824882" d="M861.84,439.413a.633.633,0,0,1-.121-.012,3.474,3.474,0,0,1-2.516-1.616,3.831,3.831,0,0,1-.175-2.926c1.3-3.232,8.515-6.058,9.334-6.369l.205-.078,3.718,1.216,3.833,5.315a.62.62,0,0,1-1.006.726l-3.6-4.987-2.914-.953c-2.224.873-7.521,3.349-8.414,5.575a2.593,2.593,0,0,0,.1,1.88,2.313,2.313,0,0,0,1.672,1,.62.62,0,0,1-.12,1.229" transform="translate(-645.7 -322.103)" fill="#111c3a"/>
      <path id="Trazado_824883" data-name="Trazado 824883" d="M742.148,685.151a.62.62,0,0,1-.62-.618c-.026-7.886,3.3-21.94,3.444-22.535a.62.62,0,0,1,1.207.287c-.034.144-3.435,14.506-3.41,22.243a.62.62,0,0,1-.618.622Z" transform="translate(-557.519 -497.367)" fill="#111c3a"/>
      <path id="Trazado_824884" data-name="Trazado 824884" d="M892.413,458.089l2.024-.858a1.616,1.616,0,0,0,.857-2.118l-4.343-10.248-5,2.118,4.342,10.248a1.616,1.616,0,0,0,2.118.857" transform="translate(-666.106 -334.473)" fill="#10002b"/>
      <path id="Trazado_824885" data-name="Trazado 824885" d="M843.524,328.878l4.178,9.86,4.949-2.1-3.614-8.529Z" transform="translate(-634.206 -246.692)" fill="#10002b"/>
      <path id="Trazado_824886" data-name="Trazado 824886" d="M889.321,456.373a2.239,2.239,0,0,1-2.062-1.363l-4.585-10.819,6.142-2.6,4.585,10.819a2.235,2.235,0,0,1-1.186,2.931l-2.024.858a2.226,2.226,0,0,1-.869.177m.627-.748h0ZM884.3,444.849l4.1,9.677a1,1,0,0,0,1.3.528l2.024-.858a.995.995,0,0,0,.528-1.3l-4.1-9.677Z" transform="translate(-663.641 -332.009)" fill="#111c3a"/>
      <path id="Trazado_824887" data-name="Trazado 824887" d="M701.406,104.372c4.726,17.917,21.625,28.994,37.745,24.743s25.358-22.223,20.633-40.14-21.625-28.994-37.745-24.743-25.358,22.223-20.633,40.14M724.271,72.7c11.915-3.143,24.405,5.045,27.9,18.287s-3.335,26.525-15.249,29.668-24.405-5.045-27.9-18.287,3.335-26.525,15.25-29.668" transform="translate(-526.425 -47.61)" fill="#9f99aa"/>
      <path id="Trazado_824888" data-name="Trazado 824888" d="M730.224,128.753a29.959,29.959,0,0,1-16.457-5.074A36.869,36.869,0,0,1,701.455,77a28.716,28.716,0,0,1,42.171-11.123,36.87,36.87,0,0,1,12.312,46.681,29.166,29.166,0,0,1-18.527,15.262,28.149,28.149,0,0,1-7.187.935m-3.059-66.71a26.88,26.88,0,0,0-6.867.893,27.938,27.938,0,0,0-17.74,14.629,35.629,35.629,0,0,0,11.889,45.076,27.476,27.476,0,0,0,40.387-10.652,35.629,35.629,0,0,0-11.889-45.076,28.734,28.734,0,0,0-15.781-4.87m2.7,58c-10.438,0-20.289-7.824-23.346-19.418a26.711,26.711,0,0,1,1.9-19.063,21.386,21.386,0,0,1,31.4-8.282,26.711,26.711,0,0,1,11.05,15.649c3.574,13.552-3.465,27.2-15.691,30.426a20.791,20.791,0,0,1-5.309.689M722.531,71.4a20.491,20.491,0,0,0-13.009,10.73,25.475,25.475,0,0,0-1.8,18.179c3.4,12.891,15.574,20.9,27.14,17.846s18.208-16.019,14.808-28.91A25.476,25.476,0,0,0,739.14,74.318,20.489,20.489,0,0,0,722.531,71.4m-.158-.6h0Z" transform="translate(-524.526 -45.714)" fill="#111c3a"/>
      <path id="Trazado_824889" data-name="Trazado 824889" d="M844.686,337.491l-4.736-11.176,6.786-.942,4.042,9.538Zm-2.962-10.17,3.62,8.543,3.807-1.613-3.186-7.519Z" transform="translate(-631.519 -244.632)" fill="#111c3a"/>
      <path id="Trazado_824890" data-name="Trazado 824890" d="M382.194,169.6s-.653-16.429-6.336-20.548c0,0,6.016-2.687.329-7.216s-29.985-6.449-41.631,13.633c0,0-7.606-3.331-10.436,3.527s-.325,25.12,26.66,46.535c16.353,12.978,31.414-35.93,31.414-35.93" transform="translate(-243.01 -104.406)" fill="#10002b"/>
      <path id="Trazado_824891" data-name="Trazado 824891" d="M286.46,509.431c.555,1.032,11.963,60.507,11.963,60.507l102.25-1.4-22.063-105.5-23.919-.075-27.135.336-35.891.057Z" transform="translate(-215.376 -348.076)" fill="url(#linear-gradient)"/>
      <path id="Unión_4" data-name="Unión 4" d="M2495,7705.663l32.952-32.256a19.142,19.142,0,1,1,24.171,29.417l-26.877,28.1Z" transform="translate(-2465.299 -7552.424)" stroke="rgba(0,0,0,0)" stroke-miterlimit="10" stroke-width="1" fill="url(#linear-gradient)"/>
      <path id="Trazado_824895" data-name="Trazado 824895" d="M331.307,916.715l.834-26.894,102.25-1.4v28.3Z" transform="translate(-249.094 -667.96)" fill="#10002b"/>
      <path id="Trazado_824896" data-name="Trazado 824896" d="M433.072,915.431H328.728L329.6,887.3l.593-.008,102.878-1.411ZM330.008,914.19H431.831V887.143L330.8,888.529Z" transform="translate(-247.155 -666.055)" fill="#111c3a"/>
      <path id="Trazado_824897" data-name="Trazado 824897" d="M429.69,189.547s15.536,9.839,18.641,43.605a17.911,17.911,0,0,1-4.085,13.352c-4.922,5.723-14.408,9.782-33.644-3.939L403.534,206.8c-1.066-5.445.953-10.9,5.727-13.724,4.448-2.633,11.085-4.737,20.428-3.53" transform="translate(-303.189 -142.25)" fill="#fff"/>
      <path id="Trazado_824898" data-name="Trazado 824898" d="M448.771,250.616c-5.622,0-13.008-2.456-22.669-9.348a.62.62,0,1,1,.721-1.01c18.783,13.4,28.458,9.543,33.268,3.95a17.368,17.368,0,0,0,3.938-12.89c-1.587-17.261-6.5-28.074-10.338-34.106-3.764-5.912-7.259-8.507-7.911-8.96-7.677-.966-14.368.2-19.888,3.467a.62.62,0,1,1-.632-1.068c5.8-3.432,12.8-4.647,20.824-3.612l.136.018.116.074c.164.1,4.05,2.611,8.347,9.33,3.935,6.153,8.965,17.176,10.58,34.742a18.615,18.615,0,0,1-4.233,13.813,15.566,15.566,0,0,1-12.26,5.6" transform="translate(-319.504 -140.359)" fill="#111c3a"/>
      <path id="Trazado_824899" data-name="Trazado 824899" d="M443.339,394.77v26.37a4.1,4.1,0,0,1-4.1,4.1c-6.611-.009-19.3-2.245-23.457-18.507v-19.5Z" transform="translate(-312.603 -291.14)" fill="#fff"/>
      <path id="Trazado_824900" data-name="Trazado 824900" d="M437.247,423.4h-.029a26.273,26.273,0,0,1-12.913-3.294c-5.454-3.165-9.158-8.441-11.01-15.679l-.019-.076V383.954l28.8,7.88v26.712a4.843,4.843,0,0,1-4.831,4.85M414.517,404.19c4.011,15.537,15.945,17.925,22.709,17.965h.022a3.6,3.6,0,0,0,3.59-3.609V392.781l-26.321-7.2Z" transform="translate(-310.723 -288.677)" fill="#111c3a"/>
      <path id="Trazado_824901" data-name="Trazado 824901" d="M451.207,304.131a7.2,7.2,0,0,1,3.551,4.383c1.28,4.455,2.894,12.951-.742,19.686-4.958,9.184-29.7,16.31-42.061-9.009l-1.262-21.457,5.1-1,2.348,11.993s7.4,5.159,12.889-.233a10.357,10.357,0,0,1,5.445-2.763l9.61-1.722a12.814,12.814,0,0,1,5.119.123" transform="translate(-308.781 -223.101)" fill="#10002b"/>
      <path id="Trazado_824902" data-name="Trazado 824902" d="M438.141,335.225q-.445,0-.89-.016c-6.045-.211-17.191-2.784-23.92-17.645a.62.62,0,0,1,1.13-.512c6.453,14.25,17.075,16.716,22.833,16.917,8.5.3,15.883-3.807,18.117-7.946,3.529-6.536,1.948-14.847.692-19.22a6.626,6.626,0,0,0-3.174-3.968,12.141,12.141,0,0,0-4.79-.1l-9.611,1.722a9.687,9.687,0,0,0-5.119,2.6c-5.79,5.687-13.6.354-13.678.3l-.206-.144-2.4-12.239a.62.62,0,1,1,1.217-.238l2.3,11.738c1.205.768,7.269,4.244,11.9-.3a10.925,10.925,0,0,1,5.77-2.931l9.61-1.722a13.351,13.351,0,0,1,5.367.128l.08.018.072.038a7.864,7.864,0,0,1,3.857,4.76c1.309,4.554,2.946,13.227-.792,20.152-2.7,5-10.484,8.612-18.363,8.612" transform="translate(-310.723 -221.219)" fill="#111c3a"/>
      <path id="Trazado_824903" data-name="Trazado 824903" d="M390.341,203.87l-.977-4.99a6.825,6.825,0,0,0-4.591-5.181,4.4,4.4,0,0,1,4.389-4.55c6.165.011,16.9-1.58,21.2-12.094,0,0,1.722-4.2-4.954-5.148s-28.842,13.728-28.842,13.728l6.143,12.708,1.474,7.527Z" transform="translate(-283.125 -129.216)" fill="#10002b"/>
      <path id="Trazado_824904" data-name="Trazado 824904" d="M413.305,218.342a.62.62,0,0,1-.608-.5l-.977-4.99a6.206,6.206,0,0,0-4.174-4.709l-.414-.134-.014-.436a5.019,5.019,0,0,1,5-5.191h.067c5.92,0,16.4-1.531,20.57-11.709a.62.62,0,0,1,1.148.47c-4.442,10.847-15.486,12.48-21.719,12.48h-.067a3.721,3.721,0,0,0-2.693,1.142,3.762,3.762,0,0,0-1.06,2.354,7.449,7.449,0,0,1,4.571,5.494l.977,4.99a.621.621,0,0,1-.609.74" transform="translate(-306.091 -143.068)" fill="#111c3a"/>
      <path id="Trazado_824905" data-name="Trazado 824905" d="M373.915,315.247a22.709,22.709,0,0,1-7.691,1.5,12.165,12.165,0,0,1-12.579-11.678c-.067-2.8.825-5.334,3.855-6.269,7.334-2.262,12.381,4.282,12.381,4.282Z" transform="translate(-265.886 -224.299)" fill="#fff"/>
      <path id="Trazado_824906" data-name="Trazado 824906" d="M364.028,315.507a13,13,0,0,1-8.838-3.441,12.337,12.337,0,0,1-4.047-8.846c-.087-3.606,1.4-5.983,4.292-6.876,7.658-2.362,13,4.427,13.056,4.5a.62.62,0,1,1-.982.758c-.2-.252-4.882-6.172-11.707-4.068-2.374.732-3.492,2.584-3.418,5.661a11.108,11.108,0,0,0,3.646,7.963,11.782,11.782,0,0,0,8.3,3.11,22.085,22.085,0,0,0,7.482-1.461.62.62,0,1,1,.45,1.156,23.316,23.316,0,0,1-7.9,1.545c-.11,0-.221,0-.331,0" transform="translate(-264.006 -222.432)" fill="#111c3a"/>
      <path id="Trazado_824907" data-name="Trazado 824907" d="M42.423,617.536,25.78,633.893c-18.686,18.365-5.868,50.157,20.331,50.424l42.9.438-1.5-26.957-23.219-5.954,8.374-9.052Z" transform="translate(-12.722 -464.296)" fill="#fff"/>
      <path id="Trazado_824908" data-name="Trazado 824908" d="M87.734,682.847,44.173,682.4a30.054,30.054,0,0,1-20.76-51.487l17.044-16.751L71.635,640.2l-8.111,8.768,22.652,5.809Zm-47.21-67.009L24.283,631.8a28.813,28.813,0,0,0,19.9,49.361l42.236.431-1.435-25.841-23.787-6.1,8.638-9.337Z" transform="translate(-10.79 -461.762)" fill="#111c3a"/>
      <path id="Trazado_824909" data-name="Trazado 824909" d="M187.61,749.77a.622.622,0,0,1-.156-.02L175.634,746.7a.62.62,0,1,1,.31-1.2l11.821,3.051a.621.621,0,0,1-.155,1.221" transform="translate(-131.701 -560.49)" fill="#111c3a"/>
      <path id="Trazado_824910" data-name="Trazado 824910" d="M700.906,672.162a.62.62,0,0,1-.607-.5l-14.5-70.959a.62.62,0,1,1,1.215-.249l14.5,70.959a.62.62,0,0,1-.483.732.636.636,0,0,1-.125.013" transform="translate(-515.61 -451.083)" fill="#111c3a"/>
      <path id="Trazado_824911" data-name="Trazado 824911" d="M518.525,267.809a32.729,32.729,0,0,1,3.5,4.967c.507.881.976,1.785,1.4,2.711a7.7,7.7,0,0,1,.8,2.858,4.019,4.019,0,0,1-.185,1.39,2.92,2.92,0,0,1-.287.623,2.443,2.443,0,0,1-.166.246c-.025.032-.088.077-.1.118q-.073.064.022.015a.389.389,0,0,1,.344.014l.285.371-.008-.03-.062.478.019-.038c.36-.711-.71-1.34-1.071-.626a.736.736,0,0,0,1.081.925,2.849,2.849,0,0,0,.977-1.339,5.528,5.528,0,0,0,.215-3.446,15.644,15.644,0,0,0-1.449-3.537,33.326,33.326,0,0,0-1.873-3.192,35.127,35.127,0,0,0-2.562-3.385.626.626,0,0,0-.878,0,.633.633,0,0,0,0,.877" transform="translate(-389.721 -200.559)" fill="#111c3a"/>
      <path id="Trazado_824912" data-name="Trazado 824912" d="M465.667,261.415a23.477,23.477,0,0,1,8.141-3.238.626.626,0,0,0,.433-.763.633.633,0,0,0-.763-.433,24.427,24.427,0,0,0-8.437,3.363c-.672.427-.05,1.5.626,1.071" transform="translate(-349.425 -193.201)" fill="#111c3a"/>
      <path id="Trazado_824913" data-name="Trazado 824913" d="M534.572,245.778c.12-.063.241-.122.365-.175-.114.049.1-.038.121-.045.054-.02.109-.039.164-.058a5.4,5.4,0,0,1,.786-.2c.057-.01.114-.019.172-.027-.137.018.1-.009.123-.011.135-.012.27-.019.4-.02s.271,0,.405.01c.058,0,.116.008.173.014l.115.012q-.1-.015.007,0a.638.638,0,0,0,.763-.434.627.627,0,0,0-.434-.763,6.168,6.168,0,0,0-3.793.621.625.625,0,0,0-.223.849.635.635,0,0,0,.849.223" transform="translate(-401.218 -183.463)" fill="#111c3a"/>
      <path id="Trazado_824914" data-name="Trazado 824914" d="M488.494,276.616c.636,1.561.377,3.142-.577,3.53s-2.243-.562-2.879-2.123-.377-3.142.577-3.53,2.243.562,2.879,2.123" transform="translate(-364.415 -206.313)" fill="#040a2e"/>
      <path id="Trazado_824915" data-name="Trazado 824915" d="M542.429,259.631c.635,1.561.377,3.142-.577,3.53s-2.243-.562-2.879-2.123-.378-3.142.577-3.53,2.243.562,2.879,2.123" transform="translate(-404.966 -193.543)" fill="#040a2e"/>
      <path id="Trazado_824916" data-name="Trazado 824916" d="M525,366.2a8.757,8.757,0,0,1,8.326-3.644.641.641,0,0,0,.763-.433.625.625,0,0,0-.433-.763,10.05,10.05,0,0,0-9.727,4.214A.62.62,0,1,0,525,366.2" transform="translate(-393.854 -271.605)" fill="#fff"/>
      <path id="Trazado_824917" data-name="Trazado 824917" d="M376.934,326.326a7.484,7.484,0,0,0,6.691,2.5.624.624,0,0,0,.433-.763.637.637,0,0,0-.763-.433,6.24,6.24,0,0,1-5.483-2.176.625.625,0,0,0-.877,0,.633.633,0,0,0,0,.877" transform="translate(-283.266 -244.555)" fill="#111c3a"/>
      <path id="Trazado_824918" data-name="Trazado 824918" d="M239.7,661.11a.62.62,0,0,1-.448-1.049l17.979-18.794a.62.62,0,0,1,.9.858l-17.979,18.794a.619.619,0,0,1-.448.192" transform="translate(-179.749 -481.995)" fill="#111c3a"/>
      <path id="Trazado_824919" data-name="Trazado 824919" d="M117.811,566.235a.62.62,0,0,1-.434-1.064l16.872-16.516a.62.62,0,0,1,.868.887l-16.872,16.516a.618.618,0,0,1-.434.177" transform="translate(-88.11 -412.375)" fill="#111c3a"/>
      <path id="Trazado_824920" data-name="Trazado 824920" d="M244.1,763.511l-.154,1.1a7.781,7.781,0,0,0,1.475,4.908l.259.356-12.508-.735.351-.4A7.78,7.78,0,0,0,235.46,764l.232-2.59Z" transform="translate(-175.312 -572.468)" fill="url(#linear-gradient)"/>
      <path id="Trazado_824921" data-name="Trazado 824921" d="M238.341,866.884l-.006-2.063a7.78,7.78,0,0,1,2.171-4.643l.307-.315-12.483-1.083.29.445a7.78,7.78,0,0,1,1.229,4.976l-.215,2.514Z" transform="translate(-171.671 -645.677)" fill="url(#linear-gradient)"/>
      <path id="Trazado_824922" data-name="Trazado 824922" d="M225.544,790.1l-1.163,13.763a2.612,2.612,0,0,0,2.376,2.815l9.431.8A2.612,2.612,0,0,0,239,805.1l1.162-13.763a2.612,2.612,0,0,0-2.376-2.814l-9.431-.8a2.612,2.612,0,0,0-2.814,2.376" transform="translate(-168.695 -592.245)" fill="#9f99aa"/>
      <path id="Trazado_824923" data-name="Trazado 824923" d="M230.679,808.987a2.738,2.738,0,0,0,.79.187l7.041.595a2.781,2.781,0,0,0,2.993-2.527l.96-11.372a2.8,2.8,0,0,0-1.736-2.806,2.733,2.733,0,0,0-.79-.187l-7.041-.595a2.773,2.773,0,0,0-2.993,2.527l-.96,11.372a2.8,2.8,0,0,0,1.736,2.806" transform="translate(-172.124 -595.673)" fill="#040a2e"/>
      <rect id="Rectángulo_378161" data-name="Rectángulo 378161" width="8.92" height="1.241" transform="translate(61.763 204.606) rotate(-42.512)" fill="#fff"/>
      <rect id="Rectángulo_378162" data-name="Rectángulo 378162" width="4.17" height="1.241" transform="translate(62.051 207.793) rotate(-42.512)" fill="#fff"/>
      <path id="Trazado_824924" data-name="Trazado 824924" d="M291.827,774.362s8.563,3.293.57,8.007c0,0,8.444,4.793-.57,8.636,0,0,6.069,2.178,2.6,5.286a6.816,6.816,0,0,1-4.353,1.679l-1.618.049s4.653,1.737,1.788,5.045a6.314,6.314,0,0,1-3.879,2.071c-3,.437-9.025,1.084-11.622-.287-3.111-1.642-9.283-18.41-2.581-28.892a7.942,7.942,0,0,1,7.2-3.644c4.061.264,10.242.85,12.46,2.05" transform="translate(-202.369 -580.653)" fill="#fff"/>
      <path id="Trazado_824925" data-name="Trazado 824925" d="M277.937,804.416a12.358,12.358,0,0,1-5.359-.9c-1.592-.84-3.538-4.59-4.734-9.119-.992-3.756-2.79-13.289,1.92-20.656a8.57,8.57,0,0,1,7.768-3.929c4.534.295,10.4.9,12.681,2.1.442.176,4.114,1.717,4.33,4.322.121,1.457-.845,2.887-2.873,4.259,1.183.85,3.176,2.6,3.057,4.691-.084,1.483-1.192,2.8-3.3,3.919,1.088.574,2.5,1.566,2.77,2.929a3.008,3.008,0,0,1-1.233,2.835,7.379,7.379,0,0,1-4.3,1.81,3.551,3.551,0,0,1,1.167,1.758,3.446,3.446,0,0,1-1,3.149,6.93,6.93,0,0,1-4.259,2.279,48.234,48.234,0,0,1-6.642.545m-.962-33.378a7.319,7.319,0,0,0-6.166,3.374c-4.446,6.953-2.716,16.073-1.766,19.671,1.184,4.485,3.022,7.762,4.114,8.338,1.755.926,5.853,1.007,11.243.222a5.689,5.689,0,0,0,3.5-1.864,2.307,2.307,0,0,0,.736-2.027c-.27-1.064-1.732-1.827-2.273-2.031l-2.928-1.105,4.745-.145a6.2,6.2,0,0,0,3.958-1.521c.66-.592.944-1.154.843-1.672-.239-1.229-2.476-2.292-3.241-2.568l-1.484-.536,1.451-.619c1.676-.714,3.692-1.891,3.78-3.435.1-1.775-2.328-3.555-3.273-4.091l-.932-.529.923-.545c2.12-1.25,3.192-2.5,3.1-3.612-.134-1.615-2.628-2.917-3.577-3.282l-.072-.033c-1.6-.867-5.938-1.569-12.205-1.976-.159-.01-.318-.015-.476-.015" transform="translate(-200.493 -578.774)" fill="#111c3a"/>
      <path id="Trazado_824926" data-name="Trazado 824926" d="M308.845,809.1h-.006c-.526,0-12.934-.13-17.284-.846a.62.62,0,0,1,.2-1.224c4.257.7,16.966.828,17.094.829a.62.62,0,0,1-.005,1.241" transform="translate(-218.816 -606.758)" fill="#111c3a"/>
      <path id="Trazado_824927" data-name="Trazado 824927" d="M308.845,843.706h-.006c-.526-.005-12.934-.13-17.284-.846a.62.62,0,0,1,.2-1.224c4.257.7,16.966.828,17.094.829a.62.62,0,0,1-.005,1.241" transform="translate(-218.816 -632.78)" fill="#111c3a"/>
      <path id="Trazado_824928" data-name="Trazado 824928" d="M306.26,873h-.007c-.455-.005-11.19-.13-14.963-.848a.62.62,0,1,1,.232-1.219c3.665.7,14.634.825,14.744.826A.62.62,0,0,1,306.26,873" transform="translate(-218.628 -654.804)" fill="#111c3a"/>
      <path id="Trazado_824929" data-name="Trazado 824929" d="M387.381,9.564c0-1.739-1.608-2.782-3.825-2.782a6.124,6.124,0,0,0-5.433,3.129l-6.476-3.477C373.95,2.566,378.166,0,384.556,0c6.694,0,11.475,2.869,11.475,8.172,0,6.781-7.129,7.781-7.129,11.78h-7.737c0-5.694,6.216-7.129,6.216-10.389m-7.259,17.3c0-2.565,2-4.477,4.912-4.477s4.955,1.912,4.955,4.477a4.948,4.948,0,0,1-9.867,0" transform="translate(-279.423 -0.001)" fill="#231f20"/>
      <path id="Trazado_824930" data-name="Trazado 824930" d="M567.685,47.484c.5-1.345-.439-2.619-2.154-3.261a5.061,5.061,0,0,0-5.112.848l-4-4.568c2.9-2.327,6.91-3.09,11.855-1.238,5.18,1.94,8.05,5.545,6.513,9.649-1.965,5.248-7.771,3.956-8.93,7.051l-5.988-2.242c1.65-4.407,6.876-3.716,7.821-6.239M557.054,58.77a4.1,4.1,0,0,1,7.636,2.859,4.089,4.089,0,0,1-7.636-2.859" transform="translate(-418.341 -28.743)" fill="#231f20"/>
      <path id="Trazado_824931" data-name="Trazado 824931" d="M237.012,80.228c-.758-1.339-2.451-1.441-4.158-.474a5.419,5.419,0,0,0-2.82,4.779l-6.5.146c.088-3.984,2.216-7.8,7.137-10.582,5.155-2.918,10.087-2.794,12.4,1.29,2.956,5.222-2.1,9.1-.354,12.179l-5.958,3.373c-2.482-4.385,1.679-8.2.258-10.71m1.952,16.487c-1.118-1.975-.412-4.319,1.831-5.589s4.649-.688,5.767,1.287a4.379,4.379,0,0,1-7.6,4.3" transform="translate(-168.062 -54.2)" fill="#231f20"/>
      <path id="Trazado_824932" data-name="Trazado 824932" d="M981.6,519.58a40.925,40.925,0,1,1-40.925-40.925A40.925,40.925,0,0,1,981.6,519.58" transform="translate(-676.483 -359.878)" fill="#10002b"/>
      <path id="Trazado_824933" data-name="Trazado 824933" d="M1036.158,592.164c0-3.679,2.93-6.422,7.108-6.422s7.045,2.743,7.045,6.422c0,3.616-2.868,6.547-7.045,6.547s-7.108-2.931-7.108-6.547m.062-37.659h14.091l-2.369,27.746h-9.415Z" transform="translate(-779.038 -416.906)" fill="#fff"/>
      <path id="Trazado_824934" data-name="Trazado 824934" d="M1042.979,235.5a29.025,29.025,0,1,1-29.025-29.025,29.025,29.025,0,0,1,29.025,29.025" transform="translate(-740.521 -155.243)" fill="url(#linear-gradient)"/>
      <path id="Trazado_824935" data-name="Trazado 824935" d="M1076.895,343.811a.619.619,0,0,1-.439-.182,15.489,15.489,0,0,0-21.9,0,.62.62,0,0,1-.877-.877,16.73,16.73,0,0,1,23.659,0,.62.62,0,0,1-.439,1.059" transform="translate(-792.072 -254.015)" fill="#111c3a"/>
      <path id="Trazado_824936" data-name="Trazado 824936" d="M1042.115,295.777a2.271,2.271,0,1,1-2.271-2.272,2.271,2.271,0,0,1,2.271,2.272" transform="translate(-780.101 -220.673)"/>
      <path id="Trazado_824937" data-name="Trazado 824937" d="M1152.184,295.777a2.271,2.271,0,1,1-2.271-2.272,2.271,2.271,0,0,1,2.271,2.272" transform="translate(-862.857 -220.673)"/>
    </g>
  </g>
</svg>
