<svg id="Grupo_1076045" data-name="Grupo 1076045" xmlns="http://www.w3.org/2000/svg" xmlns:xlink="http://www.w3.org/1999/xlink" width="311.47" height="224.021" viewBox="0 0 311.47 224.021">
  <defs>
    <clipPath id="clip-path">
      <rect id="Rectángulo_378178" data-name="Rectángulo 378178" width="311.47" height="224.021" fill="none"/>
    </clipPath>
    <linearGradient id="linear-gradient" x1="0.5" x2="0.5" y2="1" gradientUnits="objectBoundingBox">
      <stop offset="0" stop-color="#b31a8f"/>
      <stop offset="1" stop-color="#fe117e"/>
    </linearGradient>
  </defs>
  <g id="Grupo_1076044" data-name="Grupo 1076044" clip-path="url(#clip-path)">
    <path id="Trazado_824938" data-name="Trazado 824938" d="M827.093,341.3h0a28.529,28.529,0,1,1,28.529-28.529A28.529,28.529,0,0,1,827.093,341.3" transform="translate(-604.478 -215.158)" fill="#10002b"/>
    <path id="Trazado_824939" data-name="Trazado 824939" d="M850.388,353.689c0-4.52,2.839-7.247,6.687-7.247,3.885,0,6.725,2.727,6.725,7.247,0,4.558-2.839,7.248-6.725,7.248-3.848,0-6.687-2.69-6.687-7.248m22.153-6.911h5.38l-17.857,26.151h-5.38Zm-13.262,6.911c0-2.652-.934-3.7-2.2-3.7-1.2,0-2.2,1.046-2.2,3.7s1.009,3.7,2.2,3.7c1.27,0,2.2-1.046,2.2-3.7m9.564,12.328c0-4.52,2.8-7.247,6.687-7.247s6.725,2.727,6.725,7.247c0,4.558-2.839,7.248-6.725,7.248s-6.687-2.69-6.687-7.248m8.891,0c0-2.652-.971-3.7-2.2-3.7s-2.2,1.046-2.2,3.7.971,3.7,2.2,3.7,2.2-1.046,2.2-3.7" transform="translate(-643.707 -262.241)" fill="#fff"/>
    <path id="Trazado_824940" data-name="Trazado 824940" d="M849.7,658.57h0a36.594,36.594,0,0,1-36.594-36.594h0a36.594,36.594,0,1,1,73.188,0h0A36.594,36.594,0,0,1,849.7,658.57" transform="translate(-615.487 -443.109)" fill="url(#linear-gradient)"/>
    <path id="Trazado_824941" data-name="Trazado 824941" d="M879.583,674.462c0-5.8,3.642-9.3,8.578-9.3,4.984,0,8.626,3.5,8.626,9.3,0,5.846-3.642,9.3-8.626,9.3-4.936,0-8.578-3.45-8.578-9.3M908,665.6h6.9l-22.905,33.544h-6.9Zm-17.011,8.865c0-3.4-1.2-4.744-2.827-4.744-1.534,0-2.827,1.342-2.827,4.744s1.294,4.744,2.827,4.744c1.629,0,2.827-1.342,2.827-4.744m12.267,15.813c0-5.8,3.594-9.3,8.577-9.3s8.626,3.5,8.626,9.3c0,5.846-3.642,9.3-8.626,9.3s-8.577-3.45-8.577-9.3m11.4,0c0-3.4-1.246-4.744-2.827-4.744s-2.827,1.342-2.827,4.744,1.246,4.744,2.827,4.744,2.827-1.342,2.827-4.744" transform="translate(-665.806 -503.502)" fill="#fff"/>
    <path id="Trazado_824942" data-name="Trazado 824942" d="M777.985,91.148a15.5,15.5,0,1,0,15.5-15.5,15.5,15.5,0,0,0-15.5,15.5" transform="translate(-588.901 -57.259)" fill="url(#linear-gradient)"/>
    <path id="Trazado_824943" data-name="Trazado 824943" d="M475.8,173.267l22.518-13.878s-.538-26.273,3.8-23.143,4.666,14.865,4.666,14.865l16.754-12.393L548.5,151.74l-16.642,14.713L508.6,181.719l-39.895,27.9Z" transform="translate(-354.79 -102.936)" fill="#fff"/>
    <path id="Trazado_824944" data-name="Trazado 824944" d="M465.066,209.093,472.5,171l22.451-13.836c-.018-1.289-.061-5.957.18-10.723.526-10.381,1.891-12.266,2.872-12.781a1.568,1.568,0,0,1,1.721.2c3.752,2.7,4.653,11.1,4.86,14.2l16.15-11.946,26.07,13.607-17.373,15.351-23.919,15.7Zm8.526-37.335-6.757,34.613,38-26.6,23.9-15.689,15.948-14.1-23.83-12.438-17.385,12.859-.033-1.164c0-.114-.366-11.471-4.414-14.389-.278-.2-.391-.141-.446-.113-.392.206-1.711,1.662-2.223,11.766-.28,5.532-.175,10.931-.174,10.985l.007.348Z" transform="translate(-352.035 -101.049)" fill="#111c3a"/>
    <path id="Trazado_824945" data-name="Trazado 824945" d="M35.378,257.478,28.164,371.143h87.261l-2.048-83.92L96.615,260.212,78.638,246.881Z" transform="translate(-21.319 -186.878)" fill="url(#linear-gradient)"/>
    <path id="Trazado_824946" data-name="Trazado 824946" d="M157.1,167.366l11.408-19.29-23.076-6.241L131.814,162.72,155.46,179.9Z" transform="translate(-99.777 -107.363)" fill="#fff"/>
    <path id="Trazado_824947" data-name="Trazado 824947" d="M153.362,178.8l-24.941-18.116,14.171-21.739,24.274,6.565-11.752,19.87ZM130.07,160.382l22.351,16.236,1.521-11.64,11.065-18.71-21.879-5.917Z" transform="translate(-97.209 -105.178)" fill="#111c3a"/>
    <path id="Trazado_824948" data-name="Trazado 824948" d="M194.942,56.226a18.871,18.871,0,0,1,8.187,12.642c1.08,6.58,1.928,16.057-.444,22.825-3.993,11.394-24.933-4.912-24.933-4.912l-8.816-8.841s-4.563-25.383,6.274-27.95c6.326-1.5,14.239,2.58,19.731,6.236" transform="translate(-127.156 -37.6)" fill="#fff"/>
    <path id="Trazado_824949" data-name="Trazado 824949" d="M194.9,94.453c-7.705,0-18.942-8.674-19.465-9.081a.608.608,0,0,1,.747-.959c.137.106,13.739,10.606,20.664,8.569a4.9,4.9,0,0,0,3.322-3.379c2.315-6.608,1.5-15.9.417-22.526a18.326,18.326,0,0,0-7.924-12.235c-5.415-3.6-13.151-7.6-19.255-6.15-10.156,2.405-5.861,27-5.816,27.251a.608.608,0,0,1-1.2.215c-.19-1.059-4.535-25.98,6.732-28.649,6.53-1.546,14.593,2.584,20.207,6.321a19.543,19.543,0,0,1,8.45,13.049c1.11,6.768,1.931,16.275-.47,23.124a6.114,6.114,0,0,1-4.126,4.143,8.113,8.113,0,0,1-2.289.3" transform="translate(-125.21 -35.711)" fill="#111c3a"/>
    <path id="Trazado_824950" data-name="Trazado 824950" d="M253.678,265.324a.608.608,0,0,1-.586-.447l-1.7-6.194-17.809-13.206a.608.608,0,0,1,.724-.976l18.145,13.456,1.81,6.6a.608.608,0,0,1-.586.768" transform="translate(-176.628 -184.987)" fill="#111c3a"/>
    <rect id="Rectángulo_378172" data-name="Rectángulo 378172" width="7.106" height="38.297" transform="translate(197.483 15.427)" fill="#fff"/>
    <path id="Trazado_824951" data-name="Trazado 824951" d="M818.363,100.487h-8.321V60.975h8.321Zm-7.105-1.215h5.89V62.19h-5.89Z" transform="translate(-613.167 -46.155)" fill="#111c3a"/>
    <rect id="Rectángulo_378173" data-name="Rectángulo 378173" width="4.078" height="10.12" transform="translate(67.638 29.462)" fill="#fff"/>
    <path id="Trazado_824952" data-name="Trazado 824952" d="M281.09,130.055H275.8V118.72h5.293Zm-4.078-1.215h2.863v-8.9h-2.863Z" transform="translate(-208.766 -89.866)" fill="#111c3a"/>
    <path id="Trazado_824953" data-name="Trazado 824953" d="M420.843,109.165,295.077,97.874V89.362L420.843,78.071Z" transform="translate(-223.36 -59.096)"/>
    <path id="Trazado_824954" data-name="Trazado 824954" d="M419.559,107.76,292.577,96.36V86.737l.553-.05,126.429-11.35ZM293.792,95.249l124.551,11.182V76.666L293.792,87.848Z" transform="translate(-221.468 -57.027)" fill="#111c3a"/>
    <path id="Trazado_824955" data-name="Trazado 824955" d="M57.855,246.33a17.977,17.977,0,1,0,17.379-18.556A17.977,17.977,0,0,0,57.855,246.33" transform="translate(-43.787 -172.408)" fill="url(#linear-gradient)"/>
    <path id="Trazado_824956" data-name="Trazado 824956" d="M114.8,236.515l32.309,18.206L129.96,285.549,98.127,268.372Z" transform="translate(-74.278 -179.031)" fill="url(#linear-gradient)"/>
    <path id="Trazado_824957" data-name="Trazado 824957" d="M246.254,140.81l13.223,7.7,28.128-37.962c11.754-17.2,28.613-24.557,49.447-24.513l9.779.021a6.676,6.676,0,0,1,3.821,1.174c1.529,1.071,2.517,2.719-2.1,4.271l-6.937,2.043,4.424,1.335a7.022,7.022,0,0,1,4.087,3.18c.85,1.48,1.017,3.17-1.886,3.863a7.927,7.927,0,0,1-2.54.167L332.4,100.9l12.2,3.669a6.974,6.974,0,0,1,4.031,3.105c.943,1.608.991,3.356-3.454,3.184l-16.056-2.645,9.747,8.008a5.61,5.61,0,0,1,2.018,3.468c.247,1.629-.365,3.1-4.611,1a103.572,103.572,0,0,1-14.3-8.87s-.489,8.836-12.911,9.762L290.118,171.9a26.171,26.171,0,0,1-37.076,13.123L229.1,171.638Z" transform="translate(-173.423 -65.12)" fill="#fff"/>
    <path id="Trazado_824958" data-name="Trazado 824958" d="M263.247,187.071a26.779,26.779,0,0,1-13.075-3.407l-24.466-13.685,17.746-31.9,13.289,7.733,27.8-37.525a54.814,54.814,0,0,1,21.544-18.91c8.076-3.882,17.568-5.85,28.211-5.85h.182l9.779.021a7.243,7.243,0,0,1,4.168,1.284c1.13.791,1.64,1.629,1.516,2.492-.162,1.121-1.4,2.055-3.772,2.853l-5,1.475,2.473.747a7.589,7.589,0,0,1,4.438,3.459,3.245,3.245,0,0,1,.433,2.937,3.6,3.6,0,0,1-2.706,1.82,8.52,8.52,0,0,1-2.734.181l-7.37-.655,6.5,1.955a7.55,7.55,0,0,1,4.38,3.38,2.7,2.7,0,0,1,.334,2.812c-.573.956-1.99,1.378-4.335,1.286l-.075-.008-13.822-2.277,8,6.571a6.2,6.2,0,0,1,2.233,3.846,2.3,2.3,0,0,1-.684,2.374c-.909.665-2.434.431-4.8-.737a103.606,103.606,0,0,1-13.591-8.339,10.662,10.662,0,0,1-1.744,3.813c-1.572,2.182-4.782,4.875-11.173,5.447l-18.814,49.959a26.777,26.777,0,0,1-24.867,16.846M227.358,169.51,250.766,182.6a25.563,25.563,0,0,0,36.215-12.818l19.082-50.671.387-.029c11.707-.873,12.328-8.852,12.349-9.191l.069-1.13.9.68a103.8,103.8,0,0,0,14.2,8.811c2.6,1.285,3.367.972,3.541.845.3-.219.254-.853.2-1.211a4.988,4.988,0,0,0-1.8-3.089l-11.495-9.445,18.251,3.006c2.465.089,3.064-.458,3.208-.7.256-.428-.1-1.17-.339-1.573a6.339,6.339,0,0,0-3.681-2.83l-17.9-5.382,19.226,1.708a7.308,7.308,0,0,0,2.344-.152c.707-.169,1.6-.5,1.872-1.12a2.275,2.275,0,0,0-.372-1.85,6.383,6.383,0,0,0-3.736-2.9l-6.374-1.924,8.892-2.619c2.526-.849,2.894-1.59,2.935-1.868.052-.361-.307-.83-1.01-1.323a6.037,6.037,0,0,0-3.474-1.064l-9.779-.021h-.187c-21.658,0-37.607,7.933-48.757,24.249L257.07,147.41l-13.158-7.657Z" transform="translate(-170.85 -63.227)" fill="#111c3a"/>
    <path id="Trazado_824959" data-name="Trazado 824959" d="M674.088,112.965a.608.608,0,0,1-.231-.046,27.645,27.645,0,0,0-6.341-1.226.608.608,0,0,1,.137-1.208,27.728,27.728,0,0,1,6.669,1.311.608.608,0,0,1-.234,1.169" transform="translate(-504.872 -83.629)" fill="#111c3a"/>
    <path id="Trazado_824960" data-name="Trazado 824960" d="M634.721,142.242a.617.617,0,0,1-.117-.011l-6.5-1.266a.608.608,0,0,1,.232-1.193l6.5,1.266a.608.608,0,0,1-.115,1.2" transform="translate(-475.075 -105.793)" fill="#111c3a"/>
    <path id="Trazado_824961" data-name="Trazado 824961" d="M624.081,167.758a.6.6,0,0,1-.325-.1l-6.506-4.136a.607.607,0,1,1,.652-1.025l6.506,4.136a.608.608,0,0,1-.326,1.12" transform="translate(-467.018 -122.935)" fill="#111c3a"/>
    <path id="Trazado_824962" data-name="Trazado 824962" d="M535.853,230.6a22.91,22.91,0,0,1-2.956-.185.608.608,0,1,1,.157-1.205,24.6,24.6,0,0,0,7.3-.238.608.608,0,0,1,.252,1.189,24.991,24.991,0,0,1-4.757.439" transform="translate(-402.979 -173.31)" fill="#111c3a"/>
    <path id="Trazado_824963" data-name="Trazado 824963" d="M167.954,405.041a.606.606,0,0,1-.289-.073L146.293,393.4a.608.608,0,0,1,.579-1.069L168.244,403.9a.608.608,0,0,1-.29,1.142" transform="translate(-110.497 -296.923)" fill="#111c3a"/>
    <path id="Trazado_824964" data-name="Trazado 824964" d="M246.228,281.092a.607.607,0,0,1-.3-.078l-16.55-9.326a.608.608,0,0,1,.6-1.059l16.55,9.326a.608.608,0,0,1-.3,1.137" transform="translate(-173.397 -204.795)" fill="#111c3a"/>
    <path id="Trazado_824965" data-name="Trazado 824965" d="M182.909,26.247a25.5,25.5,0,0,1-10.579,2.5l-14.254-1.591s-5.495,11.857-11.713,13.014S135.641,34.921,134.8,19.75c-.82-14.716,11.713-9.366,11.713-9.366S183.1-6.389,188.621,9.067c2.722,7.614,1.474,13.473-5.712,17.18" transform="translate(-102.006 -1.91)"/>
    <path id="Trazado_824966" data-name="Trazado 824966" d="M143.077,39a6.97,6.97,0,0,1-4.4-1.549c-3.617-2.839-5.822-9.61-6.377-19.579-.265-4.764.815-8.03,3.21-9.71,3.306-2.318,7.951-.784,9.093-.35,2.762-1.241,25.861-11.318,37.212-6.535A9.453,9.453,0,0,1,187.3,6.952c3.011,8.423,1.047,14.286-6.006,17.925a26.325,26.325,0,0,1-10.829,2.569l-.048,0L156.547,25.9c-1.044,2.135-6.1,11.868-11.963,12.96a8.222,8.222,0,0,1-1.507.143m-3.2-30.867A6.321,6.321,0,0,0,136.2,9.162c-2.026,1.423-2.931,4.331-2.691,8.645.535,9.61,2.58,16.074,5.914,18.691a5.921,5.921,0,0,0,4.936,1.167c5.837-1.086,11.219-12.556,11.272-12.672l.184-.4,14.64,1.633A25.088,25.088,0,0,0,180.739,23.8l.279.54-.279-.54c6.506-3.356,8.228-8.579,5.418-16.435A8.281,8.281,0,0,0,181.342,2.4C170.005-2.379,145.12,8.912,144.87,9.026l-.245.112-.247-.105a13.112,13.112,0,0,0-4.5-.9" transform="translate(-100.114 0)" fill="#111c3a"/>
    <path id="Trazado_824967" data-name="Trazado 824967" d="M170.894,114.176s-3-10.393-7.265-7.757c-2.053,1.27-3.35,3.986-4.143,6.46a5.887,5.887,0,0,0,3.027,7.076l4.352,2.131Z" transform="translate(-120.512 -80.231)" fill="#fff"/>
    <path id="Trazado_824968" data-name="Trazado 824968" d="M164.988,120.795a.6.6,0,0,1-.267-.062l-4.352-2.131a6.527,6.527,0,0,1-3.338-7.807c1.079-3.368,2.56-5.652,4.4-6.791a3.025,3.025,0,0,1,2.8-.311c3.27,1.26,5.286,8.124,5.37,8.416a.608.608,0,0,1-1.167.337c-.528-1.826-2.392-6.754-4.64-7.62a1.846,1.846,0,0,0-1.721.211c-1.567.969-2.91,3.088-3.884,6.128a5.306,5.306,0,0,0,2.716,6.345l4.352,2.131a.608.608,0,0,1-.268,1.153" transform="translate(-118.635 -78.332)" fill="#111c3a"/>
    <path id="Trazado_824969" data-name="Trazado 824969" d="M180.25,135.9a.6.6,0,0,1-.214-.039,6.81,6.81,0,0,1-3.769-3.964.608.608,0,0,1,1.152-.387,5.67,5.67,0,0,0,3.048,3.215.608.608,0,0,1-.217,1.176" transform="translate(-133.403 -99.234)" fill="#111c3a"/>
    <path id="Trazado_824970" data-name="Trazado 824970" d="M272.885,190.248a4.222,4.222,0,0,1-3.16-.783,3.081,3.081,0,0,1-1.176-2.806.611.611,0,0,0-.608-.608.622.622,0,0,0-.608.608,4.22,4.22,0,0,0,1.532,3.665,5.319,5.319,0,0,0,4.019,1.139.628.628,0,0,0,.608-.608c0-.295-.28-.651-.608-.608" transform="translate(-202.341 -140.833)" fill="#111c3a"/>
    <path id="Trazado_824971" data-name="Trazado 824971" d="M263.4,131.531a.608.608,0,0,1-.58-.428,11.612,11.612,0,0,1,.728-9.225.608.608,0,0,1,1.03.645,10.6,10.6,0,0,0-.6,8.22.608.608,0,0,1-.581.788" transform="translate(-198.491 -92.041)" fill="#111c3a"/>
    <path id="Trazado_824972" data-name="Trazado 824972" d="M251.969,135.246a.608.608,0,0,1-.58-.428,6.956,6.956,0,0,1,.447-5.52.608.608,0,0,1,1.031.644,5.744,5.744,0,0,0-.317,4.517.608.608,0,0,1-.581.788" transform="translate(-190.022 -97.657)" fill="#111c3a"/>
    <path id="Trazado_824973" data-name="Trazado 824973" d="M336.927,335.794a.608.608,0,0,1-.495-.96l6.415-9.032a.608.608,0,0,1,.991.7l-6.415,9.032a.607.607,0,0,1-.5.256" transform="translate(-254.579 -246.425)" fill="#111c3a"/>
    <rect id="Rectángulo_378174" data-name="Rectángulo 378174" width="87.261" height="39.42" transform="translate(6.845 184.265)"/>
    <rect id="Rectángulo_378175" data-name="Rectángulo 378175" width="4.758" height="4.758" transform="translate(265.2 82.76) rotate(-45)" fill="#fc7318"/>
    <rect id="Rectángulo_378176" data-name="Rectángulo 378176" width="6.756" height="6.756" transform="translate(295.25 52.859) rotate(-45)" fill="#fc7318"/>
    <rect id="Rectángulo_378177" data-name="Rectángulo 378177" width="8.519" height="8.519" transform="translate(243.197 31.963) rotate(-45)" fill="#fc7318"/>
    <path id="Trazado_824974" data-name="Trazado 824974" d="M262.643,690.919l19.911-57.613a5.088,5.088,0,0,0-4.809-6.75H197.331a2.211,2.211,0,0,0-2.106,1.539L174.236,693.97H120.382a1.836,1.836,0,1,0,0,3.672H253.207a9.984,9.984,0,0,0,9.436-6.723" transform="translate(-89.734 -474.274)" fill="#10002b"/>
    <path id="Trazado_824975" data-name="Trazado 824975" d="M174.508,693.117l20.653-65.062a2.144,2.144,0,1,1,4.083,1.311l-21.461,66.078a3.187,3.187,0,0,1-3.031,2.2h-54.37a1.836,1.836,0,0,1,0-3.672h52.954a1.23,1.23,0,0,0,1.172-.858" transform="translate(-89.734 -474.279)" fill="#9f99aa"/>
    <path id="Trazado_824976" data-name="Trazado 824976" d="M118.49,696.362a2.443,2.443,0,1,1,0-4.887h52.954a.62.62,0,0,0,.593-.434l20.653-65.062a2.742,2.742,0,0,1,2.623-1.919.608.608,0,1,1,0,1.215,1.53,1.53,0,0,0-1.465,1.072l-20.653,65.062a1.831,1.831,0,0,1-1.751,1.282H118.49a1.228,1.228,0,1,0,0,2.456.608.608,0,0,1,0,1.215" transform="translate(-87.842 -472.387)" fill="#111c3a"/>
    <path id="Trazado_824977" data-name="Trazado 824977" d="M576.008,758.061l4.153,7.763,7.488-7.763-4.72-7.983Z" transform="translate(-436.013 -567.777)" fill="#fff"/>
    <path id="Trazado_824978" data-name="Trazado 824978" d="M573.626,407.09a28.01,28.01,0,1,1-28.01-28.01,28.01,28.01,0,0,1,28.01,28.01" transform="translate(-391.805 -286.947)" fill="url(#linear-gradient)"/>
    <path id="Trazado_824979" data-name="Trazado 824979" d="M1112.112,452.481a23.673,23.673,0,1,1-23.673-23.673,23.673,23.673,0,0,1,23.673,23.673" transform="translate(-805.981 -324.589)" fill="#10002b"/>
    <path id="Trazado_824980" data-name="Trazado 824980" d="M596.238,463.922a10.855,10.855,0,1,1,7.676-3.18,10.784,10.784,0,0,1-7.676,3.18m0-17.822a6.967,6.967,0,1,0,4.926,2.041,6.921,6.921,0,0,0-4.926-2.041" transform="translate(-443.109 -334.734)" fill="#fff"/>
    <path id="Trazado_824981" data-name="Trazado 824981" d="M665.661,525.074a1.938,1.938,0,0,1-1.375-.569l-2.973-2.973a1.945,1.945,0,0,1,2.75-2.75l2.973,2.973a1.944,1.944,0,0,1-1.375,3.319" transform="translate(-500.154 -392.265)" fill="#fff"/>
    <path id="Trazado_824982" data-name="Trazado 824982" d="M1121.227,495.8a10.846,10.846,0,1,1,7.676-3.174,10.821,10.821,0,0,1-7.676,3.174m0-17.816a6.967,6.967,0,1,0,4.926,2.04,6.92,6.92,0,0,0-4.926-2.04" transform="translate(-840.503 -358.87)" fill="#fff"/>
    <path id="Trazado_824983" data-name="Trazado 824983" d="M1190.65,556.959a1.938,1.938,0,0,1-1.375-.569l-2.973-2.973a1.945,1.945,0,0,1,2.75-2.75l2.973,2.973a1.944,1.944,0,0,1-1.375,3.319" transform="translate(-897.548 -416.4)" fill="#fff"/>
    <path id="Trazado_824984" data-name="Trazado 824984" d="M310.862,917.947H.608a.608.608,0,0,1,0-1.215H310.862a.608.608,0,0,1,0,1.215" transform="translate(0 -693.926)" fill="#111c3a"/>
  </g>
</svg>
