<svg xmlns="http://www.w3.org/2000/svg" width="146.609" height="43.779" viewBox="0 0 146.609 43.779">
  <g id="Grupo_1084137" data-name="Grupo 1084137" transform="translate(-285.445 -1549.215)">
    <path id="Trazado_829322" data-name="Trazado 829322" d="M7.117-4.523,2.977.578H9.508V2.1H.5V.922L5.117-4.641.5-10.187v-1.187H9.055v1.523H2.977l4.141,5.1Zm7.563-.1a11.9,11.9,0,0,1,.484-3.426,9.4,9.4,0,0,1,1.422-2.9,5.646,5.646,0,0,1,1.984-1.793l.375,1.109A5.8,5.8,0,0,0,17.16-9.082a11.424,11.424,0,0,0-.746,3.926l-.008.672a12.42,12.42,0,0,0,.668,4.223,6.224,6.224,0,0,0,1.871,2.824L18.57,3.617a5.655,5.655,0,0,1-1.988-1.8,9.4,9.4,0,0,1-1.422-2.9A12.374,12.374,0,0,1,14.68-4.625ZM27.063.016q-.227-1.367-.617-3.3-.414-2.062-.547-2.555a1.736,1.736,0,0,0-.344-.758.386.386,0,0,0-.273-.1.68.68,0,0,0-.469.2,3.826,3.826,0,0,0-.539.7l-.508-.336a4.379,4.379,0,0,1,1.008-1.137,1.769,1.769,0,0,1,1.047-.332,1.545,1.545,0,0,1,.547.086,1.032,1.032,0,0,1,.313.207,1.285,1.285,0,0,1,.277.4,3.73,3.73,0,0,1,.211.578q.09.32.2.922.188,1.008.363,2.121t.3,2.066a17.972,17.972,0,0,0,1.285-2.141,11.426,11.426,0,0,0,.758-1.82A4.629,4.629,0,0,0,30.3-6.43a.637.637,0,0,0-.156-.5.918.918,0,0,0-.531-.156l.078-.383H31.75l.211.391A25.482,25.482,0,0,1,30.352-3.6,36.2,36.2,0,0,1,28.063.008a17.777,17.777,0,0,1-2.055,2.477,3.981,3.981,0,0,1-1.1.75,2.358,2.358,0,0,1-.9.172,3.044,3.044,0,0,1-.379-.027A1.413,1.413,0,0,1,23.3,3.3l.336-1.516h.617q0,.5.344.5a1.681,1.681,0,0,0,1.055-.566A11.873,11.873,0,0,0,27.063.016ZM35.23-1.143l-.21.884h-.807l.21-.884Zm-1.372,6.22a3.68,3.68,0,0,1-.4,1.114,1.65,1.65,0,0,1-.652.633,2.023,2.023,0,0,1-.957.212,1.426,1.426,0,0,1-.387-.046l.1-.4a1.109,1.109,0,0,0,.346.036.934.934,0,0,0,.371-.066.8.8,0,0,0,.285-.219,1.545,1.545,0,0,0,.244-.426,4.461,4.461,0,0,0,.207-.706l.738-3.281a3.489,3.489,0,0,0,.1-.684.329.329,0,0,0-.1-.278.739.739,0,0,0-.385-.082l.05-.242L34.547.6h.26ZM45.741-4.852H39.108V-6.383h6.633ZM54.7.016q-.227-1.367-.617-3.3-.414-2.062-.547-2.555a1.736,1.736,0,0,0-.344-.758.386.386,0,0,0-.273-.1.68.68,0,0,0-.469.2,3.827,3.827,0,0,0-.539.7L51.4-6.125a4.379,4.379,0,0,1,1.008-1.137,1.769,1.769,0,0,1,1.047-.332,1.545,1.545,0,0,1,.547.086,1.032,1.032,0,0,1,.313.207,1.285,1.285,0,0,1,.277.4,3.73,3.73,0,0,1,.211.578q.09.32.2.922.188,1.008.363,2.121t.3,2.066a17.972,17.972,0,0,0,1.285-2.141,11.426,11.426,0,0,0,.758-1.82,4.629,4.629,0,0,0,.23-1.258.637.637,0,0,0-.156-.5.918.918,0,0,0-.531-.156l.078-.383h2.055l.211.391A25.482,25.482,0,0,1,57.991-3.6,36.2,36.2,0,0,1,55.7.008a17.777,17.777,0,0,1-2.055,2.477,3.981,3.981,0,0,1-1.1.75,2.358,2.358,0,0,1-.9.172,3.044,3.044,0,0,1-.379-.027,1.413,1.413,0,0,1-.332-.074l.336-1.516h.617q0,.5.344.5a1.681,1.681,0,0,0,1.055-.566A11.873,11.873,0,0,0,54.7.016Zm5.93-7.055a2.711,2.711,0,0,1,.887-.625,2.518,2.518,0,0,1,1.027-.227,2.661,2.661,0,0,1,1.219.258l1.187.609a2.613,2.613,0,0,0,1.125.242,2.321,2.321,0,0,0,1.844-1V-6.3a2.473,2.473,0,0,1-1.844.852,2.613,2.613,0,0,1-1.125-.242l-1.258-.648a2.575,2.575,0,0,0-1.148-.227,2.211,2.211,0,0,0-1.027.266,2.75,2.75,0,0,0-.887.734Zm-.008,3.266a2.773,2.773,0,0,1,.883-.629,2.456,2.456,0,0,1,1.023-.23,2.661,2.661,0,0,1,1.219.258l1.164.6a2.613,2.613,0,0,0,1.156.258,2.315,2.315,0,0,0,1.836-1l.008,1.477a2.473,2.473,0,0,1-1.844.852,2.613,2.613,0,0,1-1.125-.242l-1.187-.609A2.661,2.661,0,0,0,62.537-3.3a2.211,2.211,0,0,0-1.027.266,2.75,2.75,0,0,0-.887.734Zm2.246,2.631-.21.884h-.807l.21-.884ZM61.5,5.077a3.68,3.68,0,0,1-.4,1.114,1.65,1.65,0,0,1-.652.633,2.023,2.023,0,0,1-.957.212,1.426,1.426,0,0,1-.387-.046l.1-.4a1.109,1.109,0,0,0,.346.036.934.934,0,0,0,.371-.066.8.8,0,0,0,.285-.219,1.545,1.545,0,0,0,.244-.426,4.461,4.461,0,0,0,.207-.706L61.4,1.929a3.489,3.489,0,0,0,.1-.684.329.329,0,0,0-.1-.278.739.739,0,0,0-.385-.082l.05-.242L62.186.6h.26ZM70.145-4.5a11.754,11.754,0,0,1-.477,3.348,9.485,9.485,0,0,1-1.445,2.938A5.66,5.66,0,0,1,66.2,3.617l-.375-1.055A6,6,0,0,0,67.68-.207a12.3,12.3,0,0,0,.684-4.254v-.18A12.484,12.484,0,0,0,67.77-8.6a6.98,6.98,0,0,0-1.7-2.863l-.242-.219.375-1.062a5.6,5.6,0,0,1,1.938,1.719,9.326,9.326,0,0,1,1.438,2.762,11.5,11.5,0,0,1,.563,3.152ZM7.117,19.477l-4.141,5.1H9.508V26.1H.5v-1.18l4.617-5.562L.5,13.813V12.625H9.055v1.523H2.977l4.141,5.1Zm7.563-.1a11.9,11.9,0,0,1,.484-3.426,9.4,9.4,0,0,1,1.422-2.9,5.646,5.646,0,0,1,1.984-1.793l.375,1.109a5.8,5.8,0,0,0-1.785,2.551,11.424,11.424,0,0,0-.746,3.926l-.008.672a12.42,12.42,0,0,0,.668,4.223,6.224,6.224,0,0,0,1.871,2.824l-.375,1.055a5.655,5.655,0,0,1-1.988-1.8,9.4,9.4,0,0,1-1.422-2.9A12.374,12.374,0,0,1,14.68,19.375Zm12.383,4.641q-.227-1.367-.617-3.3-.414-2.062-.547-2.555a1.736,1.736,0,0,0-.344-.758.386.386,0,0,0-.273-.1.68.68,0,0,0-.469.2,3.826,3.826,0,0,0-.539.7l-.508-.336a4.379,4.379,0,0,1,1.008-1.137,1.769,1.769,0,0,1,1.047-.332,1.545,1.545,0,0,1,.547.086,1.032,1.032,0,0,1,.313.207,1.285,1.285,0,0,1,.277.4,3.73,3.73,0,0,1,.211.578q.09.32.2.922.188,1.008.363,2.121t.3,2.066a17.972,17.972,0,0,0,1.285-2.141,11.426,11.426,0,0,0,.758-1.82,4.629,4.629,0,0,0,.23-1.258.637.637,0,0,0-.156-.5.918.918,0,0,0-.531-.156l.078-.383H31.75l.211.391A25.482,25.482,0,0,1,30.352,20.4a36.2,36.2,0,0,1-2.289,3.609,17.777,17.777,0,0,1-2.055,2.477,3.981,3.981,0,0,1-1.1.75,2.358,2.358,0,0,1-.9.172,3.044,3.044,0,0,1-.379-.027A1.413,1.413,0,0,1,23.3,27.3l.336-1.516h.617q0,.5.344.5a1.681,1.681,0,0,0,1.055-.566A11.873,11.873,0,0,0,27.063,24.016Zm8.168-1.159-.21.884h-.807l.21-.884Zm-1.372,6.22a3.68,3.68,0,0,1-.4,1.114,1.65,1.65,0,0,1-.652.633,2.023,2.023,0,0,1-.957.212,1.426,1.426,0,0,1-.387-.046l.1-.4a1.109,1.109,0,0,0,.346.036.934.934,0,0,0,.371-.066.8.8,0,0,0,.285-.219,1.545,1.545,0,0,0,.244-.426,4.461,4.461,0,0,0,.207-.706l.738-3.281a3.489,3.489,0,0,0,.1-.684.329.329,0,0,0-.1-.278.739.739,0,0,0-.385-.082l.05-.242,1.112-.041h.26Zm11.882-9.929H39.108V17.617h6.633ZM54.7,24.016q-.227-1.367-.617-3.3-.414-2.062-.547-2.555a1.736,1.736,0,0,0-.344-.758.386.386,0,0,0-.273-.1.68.68,0,0,0-.469.2,3.827,3.827,0,0,0-.539.7l-.508-.336a4.379,4.379,0,0,1,1.008-1.137,1.769,1.769,0,0,1,1.047-.332,1.545,1.545,0,0,1,.547.086,1.032,1.032,0,0,1,.313.207,1.285,1.285,0,0,1,.277.4,3.73,3.73,0,0,1,.211.578q.09.32.2.922.188,1.008.363,2.121t.3,2.066a17.972,17.972,0,0,0,1.285-2.141,11.426,11.426,0,0,0,.758-1.82,4.629,4.629,0,0,0,.23-1.258.637.637,0,0,0-.156-.5.918.918,0,0,0-.531-.156l.078-.383h2.055l.211.391A25.482,25.482,0,0,1,57.991,20.4,36.2,36.2,0,0,1,55.7,24.008a17.777,17.777,0,0,1-2.055,2.477,3.981,3.981,0,0,1-1.1.75,2.358,2.358,0,0,1-.9.172,3.044,3.044,0,0,1-.379-.027,1.413,1.413,0,0,1-.332-.074l.336-1.516h.617q0,.5.344.5a1.681,1.681,0,0,0,1.055-.566A11.873,11.873,0,0,0,54.7,24.016Zm8.168-1.159-.21.884h-.807l.21-.884ZM61.5,29.077a3.68,3.68,0,0,1-.4,1.114,1.65,1.65,0,0,1-.652.633,2.023,2.023,0,0,1-.957.212,1.426,1.426,0,0,1-.387-.046l.1-.4a1.109,1.109,0,0,0,.346.036.934.934,0,0,0,.371-.066.8.8,0,0,0,.285-.219,1.545,1.545,0,0,0,.244-.426,4.461,4.461,0,0,0,.207-.706l.738-3.281a3.489,3.489,0,0,0,.1-.684.329.329,0,0,0-.1-.278.739.739,0,0,0-.385-.082l.05-.242,1.112-.041h.26ZM70.145,19.5a11.754,11.754,0,0,1-.477,3.348,9.485,9.485,0,0,1-1.445,2.938A5.66,5.66,0,0,1,66.2,27.617l-.375-1.055a6,6,0,0,0,1.855-2.77,12.3,12.3,0,0,0,.684-4.254v-.18A12.484,12.484,0,0,0,67.77,15.4a6.98,6.98,0,0,0-1.7-2.863l-.242-.219.375-1.062a5.6,5.6,0,0,1,1.938,1.719,9.326,9.326,0,0,1,1.438,2.762,11.5,11.5,0,0,1,.563,3.152Z" transform="translate(352 1561.957)" fill="#12263f"/>
    <path id="Trazado_829308" data-name="Trazado 829308" d="M2506.311-10115h93.054" transform="translate(-2167.311 11685.957)" fill="none" stroke="#000" stroke-width="0.5"/>
    <path id="Trazado_829323" data-name="Trazado 829323" d="M6.438-4.836a2.287,2.287,0,0,1,.605.672,3.565,3.565,0,0,1,.371,1.086l.18.906a7.258,7.258,0,0,0,.2.773,1.846,1.846,0,0,0,.262.547,1.046,1.046,0,0,0,.344.3,1.923,1.923,0,0,0,.559.164L8.875,0H6.711a12.032,12.032,0,0,1-.445-1.656L5.922-3.312a3.938,3.938,0,0,0-.207-.723,1.307,1.307,0,0,0-.289-.453A.822.822,0,0,0,5.035-4.7a2.482,2.482,0,0,0-.543-.051H3.6L3.055-2.273q-.07.3-.1.484T2.91-1.41q-.02.2-.02.355a.768.768,0,0,0,.078.379.455.455,0,0,0,.234.2,2.075,2.075,0,0,0,.539.094L3.656,0H.445L.531-.383A1.066,1.066,0,0,0,.977-.535a.844.844,0,0,0,.25-.293,2.669,2.669,0,0,0,.188-.457q.086-.27.258-1.043L3-8.344a6.108,6.108,0,0,0,.172-1.234.659.659,0,0,0-.18-.531,1.016,1.016,0,0,0-.586-.172l.086-.383H5.969a7.615,7.615,0,0,1,1.352.1,3.165,3.165,0,0,1,.895.293,1.967,1.967,0,0,1,.621.5,2.14,2.14,0,0,1,.375.7,2.664,2.664,0,0,1,.125.824A3.01,3.01,0,0,1,8.6-6.2,4.555,4.555,0,0,1,6.438-4.922ZM4.672-5.422a4.321,4.321,0,0,0,1.789-.3,2.265,2.265,0,0,0,1.039-1,3.061,3.061,0,0,0,.383-1.5,2.584,2.584,0,0,0-.062-.6,1.572,1.572,0,0,0-.164-.434,1.2,1.2,0,0,0-.258-.3,1.474,1.474,0,0,0-.391-.23,2.2,2.2,0,0,0-.543-.141,6.409,6.409,0,0,0-.84-.043q-.414,0-.875.031l-1,4.523ZM15.094-5H10.747v-.606l2.3-2.552a5.456,5.456,0,0,0,.7-.941,1.571,1.571,0,0,0,.194-.75,1.19,1.19,0,0,0-.314-.852,1.1,1.1,0,0,0-.838-.333,1.3,1.3,0,0,0-.977.358,1.366,1.366,0,0,0-.349,1h-.843a1.957,1.957,0,0,1,.59-1.481,2.188,2.188,0,0,1,1.579-.565,2.1,2.1,0,0,1,1.463.485,1.655,1.655,0,0,1,.538,1.292A3.8,3.8,0,0,1,13.54-7.616L11.763-5.688h3.331ZM27.1-6.359H20.584V-7.617H27.1Zm0,3.242H20.584v-1.25H27.1ZM37.834,0H36.381V-9.633l-2.914,1.07V-9.875l4.141-1.555h.227ZM48.959-5.086H42.436v-1.18h6.523Z" transform="translate(285 1575.957)" fill="#12263f"/>
  </g>
</svg>
