<svg xmlns="http://www.w3.org/2000/svg" width="82.608" height="86.881" viewBox="0 0 82.608 86.881">
  <g id="Grupo_1084127" data-name="Grupo 1084127" transform="translate(-343.392 -2162.559)">
    <g id="Grupo_1084079" data-name="Grupo 1084079" transform="translate(-496.937 1642.463)">
      <g id="Grupo_1070923" data-name="Grupo 1070923" transform="translate(840.254 521.169)">
        <g id="Grupo_1070195" data-name="Grupo 1070195" transform="translate(16.29 0)">
          <rect id="Rect치ngulo_374304" data-name="Rect치ngulo 374304" width="49.655" height="84.239" rx="3" fill="#9697f8"/>
        </g>
      </g>
      <rect id="Rect치ngulo_375016" data-name="Rect치ngulo 375016" width="82.608" height="86.881" transform="translate(840.329 520.096)" fill="none"/>
    </g>
    <g id="Layer_6" transform="translate(338.451 2166.862)">
      <g id="Grupo_1071724" data-name="Grupo 1071724" transform="translate(10.239 0.001)">
        <g id="Grupo_1071589" data-name="Grupo 1071589" transform="translate(5.657 6.396)">
          <g id="Grupo_1071588" data-name="Grupo 1071588" transform="translate(0)">
            <path id="Trazado_818510" data-name="Trazado 818510" d="M30.327,20.92H88.9a1.587,1.587,0,0,1,1.587,1.587V84.813A1.587,1.587,0,0,1,88.9,86.4H30.327a1.587,1.587,0,0,1-1.587-1.587V22.507a1.587,1.587,0,0,1,1.587-1.587Z" transform="translate(-28.74 -20.92)" fill="#edf4fc"/>
          </g>
        </g>
        <g id="Grupo_1071591" data-name="Grupo 1071591" transform="translate(5.657 6.396)">
          <g id="Grupo_1071590" data-name="Grupo 1071590">
            <path id="Trazado_818511" data-name="Trazado 818511" d="M30.327,20.92H88.9a1.587,1.587,0,0,1,1.587,1.587v4.678H28.74V22.507a1.587,1.587,0,0,1,1.587-1.587Z" transform="translate(-28.74 -20.92)" fill="#fdbf2d"/>
          </g>
        </g>
        <g id="Grupo_1071593" data-name="Grupo 1071593" transform="translate(5.657 16.017)">
          <g id="Grupo_1071592" data-name="Grupo 1071592">
            <path id="Trazado_818512" data-name="Trazado 818512" d="M28.74,52.385v54.273a1.587,1.587,0,0,0,1.587,1.587H88.9a1.587,1.587,0,0,0,1.587-1.587V52.385Z" transform="translate(-28.74 -52.385)" fill="#3ece9b"/>
          </g>
        </g>
        <g id="Grupo_1071595" data-name="Grupo 1071595" transform="translate(5.657 67.327)">
          <g id="Grupo_1071594" data-name="Grupo 1071594">
            <path id="Trazado_818513" data-name="Trazado 818513" d="M28.74,220.2v2.962a1.587,1.587,0,0,0,1.587,1.587H88.9a1.587,1.587,0,0,0,1.587-1.587V220.2Z" transform="translate(-28.74 -220.201)" fill="#fdbf2d"/>
          </g>
        </g>
        <g id="Grupo_1071597" data-name="Grupo 1071597" transform="translate(62.858 16.017)">
          <g id="Grupo_1071596" data-name="Grupo 1071596">
            <path id="Trazado_818514" data-name="Trazado 818514" d="M215.825,52.385h4.549V103.7h-4.549Z" transform="translate(-215.825 -52.385)" fill="#fdbf2d"/>
          </g>
        </g>
        <g id="Grupo_1071599" data-name="Grupo 1071599" transform="translate(60.696 6.396)">
          <g id="Grupo_1071598" data-name="Grupo 1071598">
            <path id="Trazado_818515" data-name="Trazado 818515" d="M208.751,20.92h5.125a1.587,1.587,0,0,1,1.587,1.587v4.678h-6.712V20.92Z" transform="translate(-208.751 -20.92)" fill="#d6edff"/>
          </g>
        </g>
        <g id="Grupo_1071601" data-name="Grupo 1071601" transform="translate(37.595)">
          <g id="Grupo_1071600" data-name="Grupo 1071600">
            <path id="Trazado_818516" data-name="Trazado 818516" d="M137.52,2.092a2.613,2.613,0,0,1-2.1-2.053.047.047,0,0,0-.093,0,2.614,2.614,0,0,1-2.1,2.053.046.046,0,0,0,0,.091,2.613,2.613,0,0,1,2.1,2.053.047.047,0,0,0,.093,0,2.613,2.613,0,0,1,2.1-2.053.046.046,0,0,0,0-.091Z" transform="translate(-133.198 -0.001)" fill="#f5c84c"/>
          </g>
        </g>
        <g id="Grupo_1071603" data-name="Grupo 1071603" transform="translate(0 53.201)">
          <g id="Grupo_1071602" data-name="Grupo 1071602">
            <path id="Trazado_818517" data-name="Trazado 818517" d="M13.325,175.493a1.865,1.865,0,0,1-1.5-1.465.034.034,0,0,0-.066,0,1.866,1.866,0,0,1-1.5,1.465.033.033,0,0,0,0,.065,1.866,1.866,0,0,1,1.5,1.465.034.034,0,0,0,.066,0,1.866,1.866,0,0,1,1.5-1.465A.033.033,0,0,0,13.325,175.493Z" transform="translate(-10.239 -174)" fill="#fc657e"/>
          </g>
        </g>
        <g id="Grupo_1071605" data-name="Grupo 1071605" transform="translate(30.321 74.133)">
          <g id="Grupo_1071604" data-name="Grupo 1071604">
            <path id="Trazado_818518" data-name="Trazado 818518" d="M112.79,243.775h-.558v-.558a.756.756,0,1,0-1.512,0v.558h-.558a.756.756,0,0,0,0,1.512h.558v.558a.756.756,0,1,0,1.512,0v-.558h.558a.756.756,0,1,0,0-1.512Z" transform="translate(-109.406 -242.461)" fill="#70d6f9"/>
          </g>
        </g>
        <g id="Grupo_1071607" data-name="Grupo 1071607" transform="translate(29.281 1.605)">
          <g id="Grupo_1071606" data-name="Grupo 1071606">
            <circle id="Elipse_9673" data-name="Elipse 9673" cx="1.033" cy="1.033" r="1.033" fill="#70d6f9"/>
          </g>
        </g>
        <g id="Grupo_1071609" data-name="Grupo 1071609" transform="translate(69.946 22.396)">
          <g id="Grupo_1071608" data-name="Grupo 1071608">
            <circle id="Elipse_9674" data-name="Elipse 9674" cx="1.033" cy="1.033" r="1.033" fill="#f5c84c"/>
          </g>
        </g>
        <g id="Grupo_1071611" data-name="Grupo 1071611" transform="translate(40.9 74.68)">
          <g id="Grupo_1071610" data-name="Grupo 1071610">
            <circle id="Elipse_9675" data-name="Elipse 9675" cx="1.033" cy="1.033" r="1.033" fill="#87d147"/>
          </g>
        </g>
        <g id="Grupo_1071613" data-name="Grupo 1071613" transform="translate(4.892 5.632)">
          <g id="Grupo_1071612" data-name="Grupo 1071612">
            <path id="Trazado_818519" data-name="Trazado 818519" d="M87.169,85.429H28.591a2.354,2.354,0,0,1-2.351-2.351V20.771a2.354,2.354,0,0,1,2.351-2.351H87.169a2.354,2.354,0,0,1,2.351,2.351V83.078A2.354,2.354,0,0,1,87.169,85.429ZM28.591,19.949a.824.824,0,0,0-.822.822V83.078a.824.824,0,0,0,.822.822H87.169a.824.824,0,0,0,.822-.822V20.771a.824.824,0,0,0-.822-.822Z" transform="translate(-26.24 -18.42)"/>
          </g>
        </g>
        <g id="Grupo_1071615" data-name="Grupo 1071615" transform="translate(24.626 8.764)">
          <g id="Grupo_1071614" data-name="Grupo 1071614">
            <path id="Trazado_818520" data-name="Trazado 818520" d="M113.779,30.194H91.544a.764.764,0,1,1,0-1.529h22.235a.764.764,0,1,1,0,1.529Z" transform="translate(-90.78 -28.665)"/>
          </g>
        </g>
        <g id="Grupo_1071617" data-name="Grupo 1071617" transform="translate(8.386 8.764)">
          <g id="Grupo_1071616" data-name="Grupo 1071616">
            <path id="Trazado_818521" data-name="Trazado 818521" d="M41.678,30.194H38.431a.764.764,0,1,1,0-1.529h3.247a.764.764,0,1,1,0,1.529Z" transform="translate(-37.667 -28.665)"/>
          </g>
        </g>
        <g id="Grupo_1071619" data-name="Grupo 1071619" transform="translate(9.367 19.13)">
          <g id="Grupo_1071618" data-name="Grupo 1071618">
            <path id="Trazado_818522" data-name="Trazado 818522" d="M52.677,64.1H41.639a.764.764,0,0,1,0-1.529H52.677a.764.764,0,1,1,0,1.529Z" transform="translate(-40.875 -62.569)"/>
          </g>
        </g>
        <g id="Grupo_1071621" data-name="Grupo 1071621" transform="translate(23.984 19.13)">
          <g id="Grupo_1071620" data-name="Grupo 1071620">
            <path id="Trazado_818523" data-name="Trazado 818523" d="M97.2,64.1H89.447a.764.764,0,1,1,0-1.529H97.2a.764.764,0,0,1,0,1.529Z" transform="translate(-88.683 -62.569)"/>
          </g>
        </g>
        <g id="Grupo_1071623" data-name="Grupo 1071623" transform="translate(37.154 19.13)">
          <g id="Grupo_1071622" data-name="Grupo 1071622">
            <path id="Trazado_818524" data-name="Trazado 818524" d="M134.521,64.1h-2a.764.764,0,1,1,0-1.529h2a.764.764,0,0,1,0,1.529Z" transform="translate(-131.755 -62.569)"/>
          </g>
        </g>
        <g id="Grupo_1071625" data-name="Grupo 1071625" transform="translate(9.367 22.548)">
          <g id="Grupo_1071624" data-name="Grupo 1071624">
            <path id="Trazado_818525" data-name="Trazado 818525" d="M52.677,75.274H41.639a.764.764,0,0,1,0-1.529H52.677a.764.764,0,0,1,0,1.529Z" transform="translate(-40.875 -73.745)"/>
          </g>
        </g>
        <g id="Grupo_1071627" data-name="Grupo 1071627" transform="translate(23.984 22.548)">
          <g id="Grupo_1071626" data-name="Grupo 1071626">
            <path id="Trazado_818526" data-name="Trazado 818526" d="M97.2,75.274H89.447a.764.764,0,1,1,0-1.529H97.2a.764.764,0,0,1,0,1.529Z" transform="translate(-88.683 -73.745)"/>
          </g>
        </g>
        <g id="Grupo_1071629" data-name="Grupo 1071629" transform="translate(37.154 22.548)">
          <g id="Grupo_1071628" data-name="Grupo 1071628">
            <path id="Trazado_818527" data-name="Trazado 818527" d="M134.521,75.274h-2a.764.764,0,1,1,0-1.529h2a.764.764,0,0,1,0,1.529Z" transform="translate(-131.755 -73.745)"/>
          </g>
        </g>
        <g id="Grupo_1071631" data-name="Grupo 1071631" transform="translate(9.367 25.965)">
          <g id="Grupo_1071630" data-name="Grupo 1071630">
            <path id="Trazado_818528" data-name="Trazado 818528" d="M52.677,86.45H41.639a.764.764,0,0,1,0-1.529H52.677a.764.764,0,0,1,0,1.529Z" transform="translate(-40.875 -84.921)"/>
          </g>
        </g>
        <g id="Grupo_1071633" data-name="Grupo 1071633" transform="translate(23.984 25.965)">
          <g id="Grupo_1071632" data-name="Grupo 1071632">
            <path id="Trazado_818529" data-name="Trazado 818529" d="M97.2,86.45H89.447a.764.764,0,1,1,0-1.529H97.2a.764.764,0,0,1,0,1.529Z" transform="translate(-88.683 -84.921)"/>
          </g>
        </g>
        <g id="Grupo_1071635" data-name="Grupo 1071635" transform="translate(37.154 25.965)">
          <g id="Grupo_1071634" data-name="Grupo 1071634">
            <path id="Trazado_818530" data-name="Trazado 818530" d="M134.521,86.45h-2a.764.764,0,1,1,0-1.529h2a.764.764,0,0,1,0,1.529Z" transform="translate(-131.755 -84.921)"/>
          </g>
        </g>
        <g id="Grupo_1071637" data-name="Grupo 1071637" transform="translate(9.367 29.382)">
          <g id="Grupo_1071636" data-name="Grupo 1071636">
            <path id="Trazado_818531" data-name="Trazado 818531" d="M52.677,97.626H41.639a.764.764,0,0,1,0-1.529H52.677a.764.764,0,0,1,0,1.529Z" transform="translate(-40.875 -96.097)"/>
          </g>
        </g>
        <g id="Grupo_1071639" data-name="Grupo 1071639" transform="translate(23.984 29.382)">
          <g id="Grupo_1071638" data-name="Grupo 1071638">
            <path id="Trazado_818532" data-name="Trazado 818532" d="M97.2,97.626H89.447a.764.764,0,1,1,0-1.529H97.2a.764.764,0,0,1,0,1.529Z" transform="translate(-88.683 -96.097)"/>
          </g>
        </g>
        <g id="Grupo_1071641" data-name="Grupo 1071641" transform="translate(9.367 32.799)">
          <g id="Grupo_1071640" data-name="Grupo 1071640">
            <path id="Trazado_818533" data-name="Trazado 818533" d="M52.677,108.8H41.639a.764.764,0,1,1,0-1.529H52.677a.764.764,0,1,1,0,1.529Z" transform="translate(-40.875 -107.272)"/>
          </g>
        </g>
        <g id="Grupo_1071643" data-name="Grupo 1071643" transform="translate(23.984 32.799)">
          <g id="Grupo_1071642" data-name="Grupo 1071642">
            <path id="Trazado_818534" data-name="Trazado 818534" d="M97.2,108.8H89.447a.764.764,0,1,1,0-1.529H97.2a.764.764,0,0,1,0,1.529Z" transform="translate(-88.683 -107.272)"/>
          </g>
        </g>
        <g id="Grupo_1071645" data-name="Grupo 1071645" transform="translate(37.154 32.799)">
          <g id="Grupo_1071644" data-name="Grupo 1071644">
            <path id="Trazado_818535" data-name="Trazado 818535" d="M134.521,108.8h-2a.764.764,0,1,1,0-1.529h2a.764.764,0,0,1,0,1.529Z" transform="translate(-131.755 -107.272)"/>
          </g>
        </g>
        <g id="Grupo_1071647" data-name="Grupo 1071647" transform="translate(9.367 36.216)">
          <g id="Grupo_1071646" data-name="Grupo 1071646">
            <path id="Trazado_818536" data-name="Trazado 818536" d="M52.677,119.978H41.639a.764.764,0,0,1,0-1.529H52.677a.764.764,0,0,1,0,1.529Z" transform="translate(-40.875 -118.449)"/>
          </g>
        </g>
        <g id="Grupo_1071649" data-name="Grupo 1071649" transform="translate(23.984 36.216)">
          <g id="Grupo_1071648" data-name="Grupo 1071648">
            <path id="Trazado_818537" data-name="Trazado 818537" d="M97.2,119.978H89.447a.764.764,0,1,1,0-1.529H97.2a.764.764,0,0,1,0,1.529Z" transform="translate(-88.683 -118.449)"/>
          </g>
        </g>
        <g id="Grupo_1071651" data-name="Grupo 1071651" transform="translate(9.367 39.633)">
          <g id="Grupo_1071650" data-name="Grupo 1071650">
            <path id="Trazado_818538" data-name="Trazado 818538" d="M52.677,131.154H41.639a.764.764,0,0,1,0-1.529H52.677a.764.764,0,0,1,0,1.529Z" transform="translate(-40.875 -129.625)"/>
          </g>
        </g>
        <g id="Grupo_1071653" data-name="Grupo 1071653" transform="translate(23.984 39.633)">
          <g id="Grupo_1071652" data-name="Grupo 1071652">
            <path id="Trazado_818539" data-name="Trazado 818539" d="M97.2,131.154H89.447a.764.764,0,0,1,0-1.529H97.2a.764.764,0,0,1,0,1.529Z" transform="translate(-88.683 -129.625)"/>
          </g>
        </g>
        <g id="Grupo_1071655" data-name="Grupo 1071655" transform="translate(9.367 43.05)">
          <g id="Grupo_1071654" data-name="Grupo 1071654">
            <path id="Trazado_818540" data-name="Trazado 818540" d="M52.677,142.329H41.639a.764.764,0,0,1,0-1.529H52.677a.764.764,0,1,1,0,1.529Z" transform="translate(-40.875 -140.8)"/>
          </g>
        </g>
        <g id="Grupo_1071657" data-name="Grupo 1071657" transform="translate(23.984 43.05)">
          <g id="Grupo_1071656" data-name="Grupo 1071656">
            <path id="Trazado_818541" data-name="Trazado 818541" d="M97.2,142.329H89.447a.764.764,0,1,1,0-1.529H97.2a.764.764,0,0,1,0,1.529Z" transform="translate(-88.683 -140.8)"/>
          </g>
        </g>
        <g id="Grupo_1071659" data-name="Grupo 1071659" transform="translate(37.154 43.05)">
          <g id="Grupo_1071658" data-name="Grupo 1071658">
            <path id="Trazado_818542" data-name="Trazado 818542" d="M134.521,142.329h-2a.764.764,0,1,1,0-1.529h2a.764.764,0,0,1,0,1.529Z" transform="translate(-131.755 -140.8)"/>
          </g>
        </g>
        <g id="Grupo_1071661" data-name="Grupo 1071661" transform="translate(9.367 46.467)">
          <g id="Grupo_1071660" data-name="Grupo 1071660">
            <path id="Trazado_818543" data-name="Trazado 818543" d="M52.677,153.5H41.639a.764.764,0,0,1,0-1.529H52.677a.764.764,0,0,1,0,1.529Z" transform="translate(-40.875 -151.976)"/>
          </g>
        </g>
        <g id="Grupo_1071663" data-name="Grupo 1071663" transform="translate(23.984 46.467)">
          <g id="Grupo_1071662" data-name="Grupo 1071662">
            <path id="Trazado_818544" data-name="Trazado 818544" d="M97.2,153.5H89.447a.764.764,0,0,1,0-1.529H97.2a.764.764,0,0,1,0,1.529Z" transform="translate(-88.683 -151.976)"/>
          </g>
        </g>
        <g id="Grupo_1071665" data-name="Grupo 1071665" transform="translate(9.367 49.884)">
          <g id="Grupo_1071664" data-name="Grupo 1071664">
            <path id="Trazado_818545" data-name="Trazado 818545" d="M52.677,164.681H41.639a.764.764,0,0,1,0-1.529H52.677a.764.764,0,0,1,0,1.529Z" transform="translate(-40.875 -163.152)"/>
          </g>
        </g>
        <g id="Grupo_1071667" data-name="Grupo 1071667" transform="translate(23.984 49.884)">
          <g id="Grupo_1071666" data-name="Grupo 1071666">
            <path id="Trazado_818546" data-name="Trazado 818546" d="M97.2,164.681H89.447a.764.764,0,1,1,0-1.529H97.2a.764.764,0,0,1,0,1.529Z" transform="translate(-88.683 -163.152)"/>
          </g>
        </g>
        <g id="Grupo_1071669" data-name="Grupo 1071669" transform="translate(9.367 53.301)">
          <g id="Grupo_1071668" data-name="Grupo 1071668">
            <path id="Trazado_818547" data-name="Trazado 818547" d="M52.677,175.857H41.639a.764.764,0,0,1,0-1.529H52.677a.764.764,0,0,1,0,1.529Z" transform="translate(-40.875 -174.328)"/>
          </g>
        </g>
        <g id="Grupo_1071671" data-name="Grupo 1071671" transform="translate(23.984 53.301)">
          <g id="Grupo_1071670" data-name="Grupo 1071670">
            <path id="Trazado_818548" data-name="Trazado 818548" d="M97.2,175.857H89.447a.764.764,0,1,1,0-1.529H97.2a.764.764,0,0,1,0,1.529Z" transform="translate(-88.683 -174.328)"/>
          </g>
        </g>
        <g id="Grupo_1071673" data-name="Grupo 1071673" transform="translate(9.367 56.718)">
          <g id="Grupo_1071672" data-name="Grupo 1071672">
            <path id="Trazado_818549" data-name="Trazado 818549" d="M52.677,187.033H41.639a.764.764,0,0,1,0-1.529H52.677a.764.764,0,0,1,0,1.529Z" transform="translate(-40.875 -185.504)"/>
          </g>
        </g>
        <g id="Grupo_1071675" data-name="Grupo 1071675" transform="translate(23.984 56.718)">
          <g id="Grupo_1071674" data-name="Grupo 1071674">
            <path id="Trazado_818550" data-name="Trazado 818550" d="M97.2,187.033H89.447a.764.764,0,1,1,0-1.529H97.2a.764.764,0,0,1,0,1.529Z" transform="translate(-88.683 -185.504)"/>
          </g>
        </g>
        <g id="Grupo_1071677" data-name="Grupo 1071677" transform="translate(44.369 29.382)">
          <g id="Grupo_1071676" data-name="Grupo 1071676">
            <path id="Trazado_818551" data-name="Trazado 818551" d="M161.27,97.626h-5.152a.764.764,0,0,1,0-1.529h5.152a.764.764,0,1,1,0,1.529Z" transform="translate(-155.353 -96.097)"/>
          </g>
        </g>
        <g id="Grupo_1071679" data-name="Grupo 1071679" transform="translate(44.369 36.216)">
          <g id="Grupo_1071678" data-name="Grupo 1071678">
            <path id="Trazado_818552" data-name="Trazado 818552" d="M161.27,119.978h-5.152a.764.764,0,0,1,0-1.529h5.152a.764.764,0,1,1,0,1.529Z" transform="translate(-155.353 -118.449)"/>
          </g>
        </g>
        <g id="Grupo_1071681" data-name="Grupo 1071681" transform="translate(44.369 39.633)">
          <g id="Grupo_1071680" data-name="Grupo 1071680">
            <path id="Trazado_818553" data-name="Trazado 818553" d="M161.27,131.154h-5.152a.764.764,0,0,1,0-1.529h5.152a.764.764,0,1,1,0,1.529Z" transform="translate(-155.353 -129.625)"/>
          </g>
        </g>
        <g id="Grupo_1071683" data-name="Grupo 1071683" transform="translate(44.369 46.467)">
          <g id="Grupo_1071682" data-name="Grupo 1071682">
            <path id="Trazado_818554" data-name="Trazado 818554" d="M161.27,153.5h-5.152a.764.764,0,0,1,0-1.529h5.152a.764.764,0,1,1,0,1.529Z" transform="translate(-155.353 -151.976)"/>
          </g>
        </g>
        <g id="Grupo_1071685" data-name="Grupo 1071685" transform="translate(47.054 49.884)">
          <g id="Grupo_1071684" data-name="Grupo 1071684">
            <path id="Trazado_818555" data-name="Trazado 818555" d="M167.367,164.681H164.9a.764.764,0,1,1,0-1.529h2.467a.764.764,0,0,1,0,1.529Z" transform="translate(-164.135 -163.152)"/>
          </g>
        </g>
        <g id="Grupo_1071687" data-name="Grupo 1071687" transform="translate(47.054 53.301)">
          <g id="Grupo_1071686" data-name="Grupo 1071686">
            <path id="Trazado_818556" data-name="Trazado 818556" d="M167.367,175.857H164.9a.764.764,0,1,1,0-1.529h2.467a.764.764,0,0,1,0,1.529Z" transform="translate(-164.135 -174.328)"/>
          </g>
        </g>
        <g id="Grupo_1071689" data-name="Grupo 1071689" transform="translate(44.369 56.718)">
          <g id="Grupo_1071688" data-name="Grupo 1071688">
            <path id="Trazado_818557" data-name="Trazado 818557" d="M161.27,187.033h-5.152a.764.764,0,0,1,0-1.529h5.152a.764.764,0,1,1,0,1.529Z" transform="translate(-155.353 -185.504)"/>
          </g>
        </g>
        <g id="Grupo_1071691" data-name="Grupo 1071691" transform="translate(53.02 19.13)">
          <g id="Grupo_1071690" data-name="Grupo 1071690">
            <path id="Trazado_818558" data-name="Trazado 818558" d="M189.564,64.1h-5.152a.764.764,0,1,1,0-1.529h5.152a.764.764,0,1,1,0,1.529Z" transform="translate(-183.647 -62.569)"/>
          </g>
        </g>
        <g id="Grupo_1071693" data-name="Grupo 1071693" transform="translate(53.02 22.548)">
          <g id="Grupo_1071692" data-name="Grupo 1071692">
            <path id="Trazado_818559" data-name="Trazado 818559" d="M186.88,75.274h-2.467a.764.764,0,1,1,0-1.529h2.467a.764.764,0,0,1,0,1.529Z" transform="translate(-183.648 -73.745)"/>
          </g>
        </g>
        <g id="Grupo_1071695" data-name="Grupo 1071695" transform="translate(53.02 25.965)">
          <g id="Grupo_1071694" data-name="Grupo 1071694">
            <path id="Trazado_818560" data-name="Trazado 818560" d="M186.88,86.45h-2.467a.764.764,0,1,1,0-1.529h2.467a.764.764,0,0,1,0,1.529Z" transform="translate(-183.648 -84.921)"/>
          </g>
        </g>
        <g id="Grupo_1071697" data-name="Grupo 1071697" transform="translate(53.02 29.382)">
          <g id="Grupo_1071696" data-name="Grupo 1071696">
            <path id="Trazado_818561" data-name="Trazado 818561" d="M189.564,97.626h-5.152a.764.764,0,1,1,0-1.529h5.152a.764.764,0,1,1,0,1.529Z" transform="translate(-183.647 -96.097)"/>
          </g>
        </g>
        <g id="Grupo_1071699" data-name="Grupo 1071699" transform="translate(53.02 32.799)">
          <g id="Grupo_1071698" data-name="Grupo 1071698">
            <path id="Trazado_818562" data-name="Trazado 818562" d="M189.564,108.8h-5.152a.764.764,0,1,1,0-1.529h5.152a.764.764,0,1,1,0,1.529Z" transform="translate(-183.647 -107.272)"/>
          </g>
        </g>
        <g id="Grupo_1071701" data-name="Grupo 1071701" transform="translate(53.02 36.216)">
          <g id="Grupo_1071700" data-name="Grupo 1071700">
            <path id="Trazado_818563" data-name="Trazado 818563" d="M186.88,119.978h-2.467a.764.764,0,1,1,0-1.529h2.467a.764.764,0,0,1,0,1.529Z" transform="translate(-183.648 -118.449)"/>
          </g>
        </g>
        <g id="Grupo_1071703" data-name="Grupo 1071703" transform="translate(53.02 39.633)">
          <g id="Grupo_1071702" data-name="Grupo 1071702">
            <path id="Trazado_818564" data-name="Trazado 818564" d="M186.88,131.154h-2.467a.764.764,0,0,1,0-1.529h2.467a.764.764,0,0,1,0,1.529Z" transform="translate(-183.648 -129.625)"/>
          </g>
        </g>
        <g id="Grupo_1071705" data-name="Grupo 1071705" transform="translate(53.02 43.05)">
          <g id="Grupo_1071704" data-name="Grupo 1071704">
            <path id="Trazado_818565" data-name="Trazado 818565" d="M185.506,142.329h-1.094a.764.764,0,1,1,0-1.529h1.094a.764.764,0,1,1,0,1.529Z" transform="translate(-183.647 -140.8)"/>
          </g>
        </g>
        <g id="Grupo_1071707" data-name="Grupo 1071707" transform="translate(53.02 46.467)">
          <g id="Grupo_1071706" data-name="Grupo 1071706">
            <path id="Trazado_818566" data-name="Trazado 818566" d="M189.564,153.5h-5.152a.764.764,0,0,1,0-1.529h5.152a.764.764,0,0,1,0,1.529Z" transform="translate(-183.647 -151.976)"/>
          </g>
        </g>
        <g id="Grupo_1071709" data-name="Grupo 1071709" transform="translate(53.02 49.884)">
          <g id="Grupo_1071708" data-name="Grupo 1071708">
            <path id="Trazado_818567" data-name="Trazado 818567" d="M189.564,164.681h-5.152a.764.764,0,1,1,0-1.529h5.152a.764.764,0,1,1,0,1.529Z" transform="translate(-183.647 -163.152)"/>
          </g>
        </g>
        <g id="Grupo_1071711" data-name="Grupo 1071711" transform="translate(53.02 53.301)">
          <g id="Grupo_1071710" data-name="Grupo 1071710">
            <path id="Trazado_818568" data-name="Trazado 818568" d="M189.564,175.857h-5.152a.764.764,0,1,1,0-1.529h5.152a.764.764,0,1,1,0,1.529Z" transform="translate(-183.647 -174.328)"/>
          </g>
        </g>
        <g id="Grupo_1071713" data-name="Grupo 1071713" transform="translate(53.02 56.718)">
          <g id="Grupo_1071712" data-name="Grupo 1071712">
            <path id="Trazado_818569" data-name="Trazado 818569" d="M189.564,187.033h-5.152a.764.764,0,1,1,0-1.529h5.152a.764.764,0,1,1,0,1.529Z" transform="translate(-183.647 -185.504)"/>
          </g>
        </g>
        <g id="Grupo_1071715" data-name="Grupo 1071715" transform="translate(5.22 11.896)">
          <g id="Grupo_1071714" data-name="Grupo 1071714">
            <path id="Trazado_818570" data-name="Trazado 818570" d="M89.158,40.438H28.077a.764.764,0,1,1,0-1.529h61.08a.764.764,0,0,1,0,1.529Z" transform="translate(-27.313 -38.909)"/>
          </g>
        </g>
        <g id="Grupo_1071717" data-name="Grupo 1071717" transform="translate(5.035 15.252)">
          <g id="Grupo_1071716" data-name="Grupo 1071716">
            <path id="Trazado_818571" data-name="Trazado 818571" d="M88.91,51.414H27.472a.764.764,0,0,1,0-1.529H88.91a.764.764,0,0,1,0,1.529Z" transform="translate(-26.708 -49.885)"/>
          </g>
        </g>
        <g id="Grupo_1071719" data-name="Grupo 1071719" transform="translate(5.087 66.562)">
          <g id="Grupo_1071718" data-name="Grupo 1071718">
            <path id="Trazado_818572" data-name="Trazado 818572" d="M89.083,219.23H27.639a.764.764,0,0,1,0-1.529H89.083a.764.764,0,0,1,0,1.529Z" transform="translate(-26.875 -217.701)"/>
          </g>
        </g>
        <g id="Grupo_1071721" data-name="Grupo 1071721" transform="translate(62.094 15.58)">
          <g id="Grupo_1071720" data-name="Grupo 1071720">
            <path id="Trazado_818573" data-name="Trazado 818573" d="M214.089,103.188a.764.764,0,0,1-.764-.764v-50.7a.764.764,0,0,1,1.529,0v50.7A.764.764,0,0,1,214.089,103.188Z" transform="translate(-213.325 -50.958)"/>
          </g>
        </g>
        <g id="Grupo_1071723" data-name="Grupo 1071723" transform="translate(59.931 5.943)">
          <g id="Grupo_1071722" data-name="Grupo 1071722">
            <path id="Trazado_818574" data-name="Trazado 818574" d="M207.015,26.68a.764.764,0,0,1-.764-.764V20.2a.764.764,0,1,1,1.529,0v5.714A.764.764,0,0,1,207.015,26.68Z" transform="translate(-206.251 -19.438)"/>
          </g>
        </g>
      </g>
    </g>
  </g>
</svg>
