<svg xmlns="http://www.w3.org/2000/svg" width="61.935" height="61.928" viewBox="0 0 61.935 61.928">
  <g id="servicio-en-linea" transform="translate(0 0)">
    <g id="Grupo_1082632" data-name="Grupo 1082632" transform="translate(0.907 0.907)">
      <g id="Grupo_1082631" data-name="Grupo 1082631">
        <g id="Grupo_1082625" data-name="Grupo 1082625" transform="translate(4.298)">
          <g id="Grupo_1082624" data-name="Grupo 1082624">
            <g id="Grupo_1082622" data-name="Grupo 1082622">
              <g id="Grupo_1082621" data-name="Grupo 1082621">
                <g id="Grupo_1082620" data-name="Grupo 1082620">
                  <g id="Grupo_1082619" data-name="Grupo 1082619">
                    <g id="Grupo_1082618" data-name="Grupo 1082618">
                      <g id="Grupo_1082617" data-name="Grupo 1082617">
                        <g id="Grupo_1082616" data-name="Grupo 1082616">
                          <g id="Grupo_1082615" data-name="Grupo 1082615">
                            <path id="Trazado_828884" data-name="Trazado 828884" d="M96.482,56.958H45.4a2.373,2.373,0,0,1-2.373-2.373V9.9A2.373,2.373,0,0,1,45.4,7.529H96.482A2.373,2.373,0,0,1,98.854,9.9V54.585A2.373,2.373,0,0,1,96.482,56.958Z" transform="translate(-43.032 -7.529)" fill="#eaf2ff"/>
                            <path id="Trazado_828885" data-name="Trazado 828885" d="M427.457,7.529h-7.9A2.373,2.373,0,0,1,421.927,9.9V54.585a2.373,2.373,0,0,1-2.373,2.373h7.9a2.373,2.373,0,0,0,2.373-2.373V9.9a2.372,2.372,0,0,0-2.373-2.373Z" transform="translate(-374.007 -7.529)" fill="#dbe8f9"/>
                            <path id="Trazado_828886" data-name="Trazado 828886" d="M96.482,7.529H45.4A2.373,2.373,0,0,0,43.032,9.9v7.107H98.854V9.9a2.373,2.373,0,0,0-2.373-2.373Z" transform="translate(-43.032 -7.529)" fill="#9bc4f9"/>
                            <path id="Trazado_828887" data-name="Trazado 828887" d="M427.457,7.529h-7.9A2.373,2.373,0,0,1,421.927,9.9v7.107h7.9V9.9a2.372,2.372,0,0,0-2.373-2.373Z" transform="translate(-374.007 -7.529)" fill="#7fb2f9"/>
                          </g>
                        </g>
                      </g>
                    </g>
                  </g>
                </g>
              </g>
            </g>
            <g id="Grupo_1082623" data-name="Grupo 1082623" transform="translate(14.216 15.83)">
              <path id="Trazado_828888" data-name="Trazado 828888" d="M187.93,150.528a1.333,1.333,0,0,0-1.338-1.328h0a1.331,1.331,0,0,1-1.265-.9,11.639,11.639,0,0,0-.6-1.441,1.33,1.33,0,0,1,.248-1.531,1.333,1.333,0,0,0-.007-1.885l-2.148-2.133a1.333,1.333,0,0,0-1.885.007,1.33,1.33,0,0,1-1.529.259,11.626,11.626,0,0,0-1.446-.592,1.331,1.331,0,0,1-.909-1.259h0a1.333,1.333,0,0,0-1.338-1.328l-3.027.011a1.333,1.333,0,0,0-1.328,1.338h0a1.331,1.331,0,0,1-.9,1.265,11.641,11.641,0,0,0-1.441.6,1.33,1.33,0,0,1-1.531-.248,1.333,1.333,0,0,0-1.885.007l-2.133,2.148a1.333,1.333,0,0,0,.007,1.885,1.33,1.33,0,0,1,.259,1.529,11.641,11.641,0,0,0-.593,1.446,1.331,1.331,0,0,1-1.259.909h0a1.333,1.333,0,0,0-1.328,1.338l.011,3.027a1.333,1.333,0,0,0,1.338,1.328h0a1.331,1.331,0,0,1,1.265.9,11.63,11.63,0,0,0,.6,1.441,1.33,1.33,0,0,1-.248,1.531,1.333,1.333,0,0,0,.007,1.885l2.148,2.133a1.333,1.333,0,0,0,1.885-.007,1.33,1.33,0,0,1,1.529-.259,11.625,11.625,0,0,0,1.446.593,1.331,1.331,0,0,1,.909,1.259h0a1.333,1.333,0,0,0,1.338,1.328l3.027-.011a1.333,1.333,0,0,0,1.328-1.338h0a1.331,1.331,0,0,1,.9-1.265,11.641,11.641,0,0,0,1.441-.6,1.33,1.33,0,0,1,1.531.248,1.333,1.333,0,0,0,1.885-.007l2.133-2.148a1.333,1.333,0,0,0-.007-1.885,1.33,1.33,0,0,1-.259-1.529,11.646,11.646,0,0,0,.593-1.446,1.331,1.331,0,0,1,1.259-.909h0a1.333,1.333,0,0,0,1.328-1.338Zm-9.345,5.871a6.116,6.116,0,1,1-.03-8.649A6.116,6.116,0,0,1,178.585,156.4Z" transform="translate(-160.55 -138.394)" fill="#ffe07d"/>
            </g>
          </g>
        </g>
        <g id="Grupo_1082630" data-name="Grupo 1082630" transform="translate(0 33.846)">
          <g id="Grupo_1082629" data-name="Grupo 1082629">
            <g id="Grupo_1082628" data-name="Grupo 1082628">
              <g id="Grupo_1082627" data-name="Grupo 1082627" transform="translate(1.314)">
                <path id="Trazado_828889" data-name="Trazado 828889" d="M49.876,291.094a2.123,2.123,0,0,0,.119-2.874,2.147,2.147,0,0,0-3.168-.082l-6.457,6.457c.061-.061.067-.068.027-.03a2.122,2.122,0,0,0-.067-3.012,2.154,2.154,0,0,0-3,.073l-1.449,1.449a2.123,2.123,0,0,0-.04-3.041,2.154,2.154,0,0,0-3,.073l-.834.834a2.123,2.123,0,0,0-.04-3.041,2.154,2.154,0,0,0-3,.073l-4.868,4.868a8.51,8.51,0,0,0-1.885,2.859L20.483,300a6.82,6.82,0,0,1-1.5,2.259l-.621.621,3.719,3.719,5.54,5.54,0,0,0,0h0a8.509,8.509,0,0,1,4.386-2.012l1.558-.223a8.517,8.517,0,0,0,4.814-2.408l4.372-4.372a2.163,2.163,0,0,0,.124-2.96,2.114,2.114,0,0,0-1.371-.7.006.006,0,0,1,0-.01Z" transform="translate(-18.365 -287.328)" fill="#ffddce"/>
                <g id="Grupo_1082626" data-name="Grupo 1082626" transform="translate(3.719 0.154)">
                  <path id="Trazado_828890" data-name="Trazado 828890" d="M76.9,292.21a2.123,2.123,0,0,0,.119-2.874,2.147,2.147,0,0,0-3.168-.082L67.4,295.711c.788-.788-7.525,7.357-7.525,7.357a8.51,8.51,0,0,1-4.811,2.407L53.5,305.7a8.509,8.509,0,0,0-4.391,2.016l5.54,5.54a.006.006,0,0,0,.008,0,8.509,8.509,0,0,1,4.386-2.012l1.558-.223a8.517,8.517,0,0,0,4.814-2.408l4.372-4.372a2.163,2.163,0,0,0,.124-2.96,2.113,2.113,0,0,0-1.371-.7.006.006,0,0,1,0-.01Z" transform="translate(-49.11 -288.598)" fill="#ffcbbe"/>
                </g>
              </g>
              <path id="Trazado_828891" data-name="Trazado 828891" d="M7.889,396.606l9.8,9.8a1.328,1.328,0,0,0,1.878,0l.984-.984a1.328,1.328,0,0,0,0-1.878l-9.8-9.8a1.328,1.328,0,0,0-1.878,0l-.984.984a1.328,1.328,0,0,0,0,1.878Z" transform="translate(-7.5 -380.529)" fill="#e07f84"/>
              <path id="Trazado_828892" data-name="Trazado 828892" d="M54.03,443.847,49.386,439.2l-1.923,1.923a1.328,1.328,0,0,1-1.878,0l5.583,5.583a1.328,1.328,0,0,0,1.878,0l.984-.984a1.328,1.328,0,0,0,0-1.878Z" transform="translate(-40.978 -420.831)" fill="#db636e"/>
            </g>
          </g>
        </g>
      </g>
    </g>
    <g id="Grupo_1082636" data-name="Grupo 1082636" transform="translate(0 0)">
      <g id="Grupo_1082634" data-name="Grupo 1082634" transform="translate(45.895 4.736)">
        <g id="Grupo_1082633" data-name="Grupo 1082633">
          <circle id="Elipse_10628" data-name="Elipse 10628" cx="0.911" cy="0.911" r="0.911" transform="translate(0)"/>
          <circle id="Elipse_10629" data-name="Elipse 10629" cx="0.911" cy="0.911" r="0.911" transform="translate(3.966)"/>
          <circle id="Elipse_10630" data-name="Elipse 10630" cx="0.911" cy="0.911" r="0.911" transform="translate(7.931)"/>
        </g>
      </g>
      <g id="Grupo_1082635" data-name="Grupo 1082635" transform="translate(0 0)">
        <path id="Trazado_828893" data-name="Trazado 828893" d="M116.593,40.884H89.252a.907.907,0,1,0,0,1.815h27.341a.907.907,0,1,0,0-1.815Z" transform="translate(-77.658 -35.942)"/>
        <path id="Trazado_828894" data-name="Trazado 828894" d="M89.883.029H38.8a3.284,3.284,0,0,0-3.28,3.28V39.667a.907.907,0,1,0,1.815,0V11.323H91.348v36.67a1.467,1.467,0,0,1-1.465,1.465H62.195a.907.907,0,1,0,0,1.815H89.883a3.284,3.284,0,0,0,3.28-3.28V3.309a3.284,3.284,0,0,0-3.28-3.28ZM37.34,9.508v-6.2A1.467,1.467,0,0,1,38.8,1.844H89.883a1.467,1.467,0,0,1,1.465,1.465v6.2Z" transform="translate(-31.228 -0.029)"/>
        <path id="Trazado_828895" data-name="Trazado 828895" d="M26.967,161.635l2.71-2.71a2.242,2.242,0,0,0,1.97,1.176h.008l3.027-.011a2.239,2.239,0,0,0,2.232-2.249.424.424,0,0,1,.286-.4,12.59,12.59,0,0,0,1.554-.65.423.423,0,0,1,.486.08,2.24,2.24,0,0,0,3.168-.011l2.133-2.148a2.243,2.243,0,0,0-.011-3.168.422.422,0,0,1-.084-.486,12.59,12.59,0,0,0,.639-1.558.424.424,0,0,1,.4-.289,2.239,2.239,0,0,0,2.232-2.248l-.011-3.027a2.243,2.243,0,0,0-2.241-2.232h-.01a.424.424,0,0,1-.4-.287,12.594,12.594,0,0,0-.65-1.554.422.422,0,0,1,.08-.486,2.239,2.239,0,0,0-.011-3.168l-2.148-2.133a2.24,2.24,0,0,0-3.168.011.422.422,0,0,1-.485.084,12.57,12.57,0,0,0-1.558-.639.424.424,0,0,1-.289-.4,2.243,2.243,0,0,0-2.24-2.232h-.008l-3.027.011a2.239,2.239,0,0,0-2.232,2.249.424.424,0,0,1-.286.4,12.589,12.589,0,0,0-1.554.65.423.423,0,0,1-.486-.08,2.243,2.243,0,0,0-3.168.011l-2.133,2.148a2.243,2.243,0,0,0,.011,3.168.422.422,0,0,1,.084.486,12.577,12.577,0,0,0-.639,1.558.424.424,0,0,1-.4.289,2.243,2.243,0,0,0-2.232,2.248l.011,3.027a2.243,2.243,0,0,0,2.24,2.232h.01a.424.424,0,0,1,.4.286,12.593,12.593,0,0,0,.65,1.554.422.422,0,0,1-.08.486,2.238,2.238,0,0,0-.644,1.416l-.007,0a3.013,3.013,0,0,0-3.782-1.844,3.01,3.01,0,0,0-.856-1.466,3.074,3.074,0,0,0-4.262.089l-4.869,4.868a9.361,9.361,0,0,0-2.084,3.16L3.648,161.78a2.234,2.234,0,0,0-2.01.612l-.984.984a2.238,2.238,0,0,0,0,3.161l9.8,9.8a2.238,2.238,0,0,0,3.161,0l.984-.984a2.228,2.228,0,0,0,.648-1.691c.616-.154.914-.162,2.313-.372a9.483,9.483,0,0,0,5.328-2.665l4.372-4.372a3.029,3.029,0,0,0-.3-4.62ZM20.774,147.48h-.009a.426.426,0,0,1-.426-.424l-.011-3.027a.426.426,0,0,1,.425-.427,2.237,2.237,0,0,0,2.116-1.53,10.753,10.753,0,0,1,.546-1.333,2.236,2.236,0,0,0-.434-2.572.426.426,0,0,1,0-.6l2.133-2.148a.426.426,0,0,1,.6,0,2.236,2.236,0,0,0,2.576.416,10.761,10.761,0,0,1,1.329-.556,2.237,2.237,0,0,0,1.515-2.127.426.426,0,0,1,.424-.427l3.027-.011h0a.426.426,0,0,1,.426.425,2.237,2.237,0,0,0,1.53,2.116,10.744,10.744,0,0,1,1.333.546,2.235,2.235,0,0,0,2.573-.434.426.426,0,0,1,.6,0l2.148,2.133a.426.426,0,0,1,0,.6,2.236,2.236,0,0,0-.416,2.576A10.755,10.755,0,0,1,43.34,142a2.237,2.237,0,0,0,2.12,1.515h.009a.426.426,0,0,1,.426.424l.011,3.027a.426.426,0,0,1-.425.427,2.237,2.237,0,0,0-2.116,1.53,10.743,10.743,0,0,1-.546,1.333,2.235,2.235,0,0,0,.434,2.572.426.426,0,0,1,0,.6l-2.133,2.148a.426.426,0,0,1-.6,0,2.235,2.235,0,0,0-2.576-.416,10.748,10.748,0,0,1-1.329.556,2.237,2.237,0,0,0-1.515,2.127.426.426,0,0,1-.424.427l-3.027.011h0a.426.426,0,0,1-.426-.425,2.231,2.231,0,0,0-.045-.436l3.2-3.2a3.024,3.024,0,0,0,.88-2.038,7.038,7.038,0,1,0-6.344-1.068l-3.36,3.36a3.015,3.015,0,0,0-2.275-1.867,2.235,2.235,0,0,0,.175-2.289A10.759,10.759,0,0,1,22.894,149a2.237,2.237,0,0,0-2.12-1.515Zm9.445,2.345a5.209,5.209,0,1,1,4.553.611,3.034,3.034,0,0,0-4.553-.611Zm-16.9,24.246-.984.984a.421.421,0,0,1-.595,0l-9.8-9.8a.421.421,0,0,1,0-.595l.984-.984a.418.418,0,0,1,.578-.014h0l9.818,9.814a.421.421,0,0,1,0,.595Zm12.661-9.1-4.372,4.372a7.657,7.657,0,0,1-4.3,2.152,19.773,19.773,0,0,0-2.886.516L5.2,162.79l1.728-4.263a7.56,7.56,0,0,1,1.684-2.554l4.869-4.869a1.249,1.249,0,0,1,1.73-.057,1.215,1.215,0,0,1,.023,1.742.907.907,0,1,0,1.283,1.283l.834-.834a1.249,1.249,0,0,1,1.73-.057,1.215,1.215,0,0,1,.023,1.742.907.907,0,0,0,1.283,1.283l1.449-1.449a1.251,1.251,0,0,1,1.73-.057,1.218,1.218,0,0,1,.038,1.725c-.15.154-1.287,1.289-1.827,1.83a.907.907,0,1,0,1.283,1.283l8.269-8.269a1.241,1.241,0,0,1,1.835.028,1.221,1.221,0,0,1-.069,1.645L19.969,166.066a.907.907,0,0,0,1.281,1.285l4.4-4.392a1.216,1.216,0,0,1,.415.3,1.263,1.263,0,0,1-.09,1.712Z" transform="translate(-0.001 -115.064)"/>
      </g>
    </g>
  </g>
</svg>
