<svg id="Grupo_1084097" data-name="Grupo 1084097" xmlns="http://www.w3.org/2000/svg" xmlns:xlink="http://www.w3.org/1999/xlink" width="324.47" height="245.881" viewBox="0 0 324.47 245.881">
  <defs>
    <clipPath id="clip-path">
      <rect id="Rectángulo_378190" data-name="Rectángulo 378190" width="324.47" height="245.881" fill="none"/>
    </clipPath>
    <linearGradient id="linear-gradient" x1="0.5" x2="0.5" y2="1" gradientUnits="objectBoundingBox">
      <stop offset="0" stop-color="#b31a8f"/>
      <stop offset="1" stop-color="#fe117e"/>
    </linearGradient>
  </defs>
  <g id="Grupo_1076048" data-name="Grupo 1076048" clip-path="url(#clip-path)">
    <path id="Trazado_824986" data-name="Trazado 824986" d="M352.046,152.019H254.3a.635.635,0,1,1,0-1.269h97.742a.635.635,0,0,1,0,1.269" transform="translate(-189.28 -112.485)" fill="#111c3a"/>
    <path id="Trazado_824987" data-name="Trazado 824987" d="M302.107,203.123H254.3a.635.635,0,1,1,0-1.269h47.8a.635.635,0,0,1,0,1.269" transform="translate(-189.28 -150.617)" fill="#111c3a"/>
    <path id="Trazado_824988" data-name="Trazado 824988" d="M352.046,400.774H254.3a.635.635,0,0,1,0-1.269h97.742a.635.635,0,0,1,0,1.269" transform="translate(-189.28 -298.098)" fill="#111c3a"/>
    <path id="Trazado_824989" data-name="Trazado 824989" d="M302.107,451.878H254.3a.635.635,0,0,1,0-1.269h47.8a.635.635,0,0,1,0,1.269" transform="translate(-189.28 -336.231)" fill="#111c3a"/>
    <path id="Trazado_824990" data-name="Trazado 824990" d="M352.046,649.529H254.3a.635.635,0,1,1,0-1.269h97.742a.635.635,0,0,1,0,1.269" transform="translate(-189.28 -483.712)" fill="#111c3a"/>
    <path id="Trazado_824991" data-name="Trazado 824991" d="M302.107,700.633H254.3a.635.635,0,1,1,0-1.269h47.8a.635.635,0,0,1,0,1.269" transform="translate(-189.28 -521.844)" fill="#111c3a"/>
    <path id="Trazado_824993" data-name="Trazado 824993" d="M119.723,141.537a12.146,12.146,0,1,1-12.146-12.146,12.146,12.146,0,0,1,12.146,12.146" transform="translate(-71.208 -96.548)" fill="url(#linear-gradient)"/>
    <path id="Trazado_824994" data-name="Trazado 824994" d="M118.237,391.852a12.146,12.146,0,1,1-12.146-12.146,12.146,12.146,0,0,1,12.146,12.146" transform="translate(-70.099 -283.325)" fill="url(#linear-gradient)"/>
    <path id="Trazado_824995" data-name="Trazado 824995" d="M116.75,642.167A12.146,12.146,0,1,1,104.6,630.021a12.146,12.146,0,0,1,12.146,12.146" transform="translate(-68.989 -470.103)" fill="url(#linear-gradient)"/>
    <rect id="Rectángulo_378183" data-name="Rectángulo 378183" width="4.063" height="4.063" transform="translate(159.387 78.991) rotate(-45)" fill="url(#linear-gradient)"/>
    <rect id="Rectángulo_378184" data-name="Rectángulo 378184" width="7.726" height="7.726" transform="translate(125.629 58.651) rotate(-45.001)" fill="url(#linear-gradient)"/>
    <rect id="Rectángulo_378185" data-name="Rectángulo 378185" width="9.85" height="9.85" transform="translate(155.295 18.963) rotate(-45)" fill="url(#linear-gradient)"/>
    <path id="Trazado_824996" data-name="Trazado 824996" d="M123.445,153.493l-5.38,5.379-2.3-2.3a.828.828,0,0,0-1.171,0l-2.3,2.3a.828.828,0,0,0,0,1.171l5.125,5.125a.907.907,0,0,0,1.282,0l8.205-8.2a.828.828,0,0,0,0-1.171l-2.3-2.3a.828.828,0,0,0-1.171,0" transform="translate(-83.613 -114.351)" fill="#fff"/>
    <path id="Trazado_824997" data-name="Trazado 824997" d="M121.958,403.807l-5.38,5.379-2.3-2.3a.828.828,0,0,0-1.171,0l-2.3,2.3a.828.828,0,0,0,0,1.171l5.125,5.125a.907.907,0,0,0,1.283,0l8.205-8.2a.828.828,0,0,0,0-1.171l-2.3-2.3a.828.828,0,0,0-1.171,0" transform="translate(-82.504 -301.128)" fill="#fff"/>
    <path id="Trazado_824998" data-name="Trazado 824998" d="M121.958,403.807l-5.38,5.379-2.3-2.3a.828.828,0,0,0-1.171,0l-2.3,2.3a.828.828,0,0,0,0,1.171l5.125,5.125a.907.907,0,0,0,1.283,0l8.205-8.2a.828.828,0,0,0,0-1.171l-2.3-2.3a.828.828,0,0,0-1.171,0" transform="translate(-82.504 -301.128)" fill="#fff"/>
    <path id="Trazado_824999" data-name="Trazado 824999" d="M120.472,654.122l-5.38,5.38-2.3-2.3a.828.828,0,0,0-1.171,0l-2.3,2.3a.828.828,0,0,0,0,1.171l5.125,5.125a.907.907,0,0,0,1.283,0l8.205-8.2a.828.828,0,0,0,0-1.171l-2.3-2.3a.828.828,0,0,0-1.171,0" transform="translate(-81.395 -487.905)" fill="#fff"/>
    <path id="Trazado_825000" data-name="Trazado 825000" d="M710.99,91.269s-2.762-40.051,5.294-65.851A32.329,32.329,0,0,1,746.255,2.508C756.8,2.289,768.21,7.276,771.71,28.1l6.5,65.212Z" transform="translate(-530.178 -1.866)" fill="#10002b"/>
    <path id="Trazado_825001" data-name="Trazado 825001" d="M777.094,92.1,708.578,90.02l-.04-.573c-.028-.4-2.678-40.466,5.321-66.084A32.9,32.9,0,0,1,744.423.008c6.277-.13,11.588,1.569,15.786,5.051,5.218,4.327,8.685,11.416,10.308,21.069l.006.042Zm-67.325-3.316,65.919,2-6.426-64.472C766.416,9.419,758.067.991,744.449,1.276A31.632,31.632,0,0,0,715.071,23.74c-7.409,23.727-5.595,60.055-5.3,65.046" transform="translate(-528.359 0)" fill="#111c3a"/>
    <path id="Trazado_825002" data-name="Trazado 825002" d="M662.018,317.189l28.824-4.006,31.5-1.988L747,317.952l-3.848,119.932H658.907Z" transform="translate(-491.657 -232.204)" fill="url(#linear-gradient)"/>
    <rect id="Rectángulo_378186" data-name="Rectángulo 378186" width="84.517" height="39.371" transform="translate(167.251 205.68)" fill="#10002b"/>
    <path id="Unión_7" data-name="Unión 7" d="M2515.355,5455.281l29.923-42.409-44.072-28.71a20.675,20.675,0,1,1,26.474-31.186l43.173,39.77a26.275,26.275,0,0,1,.8,37.88l-38.837,38.941Z" transform="translate(-2264.112 -5261.525)" stroke="rgba(0,0,0,0)" stroke-miterlimit="10" stroke-width="1" fill="url(#linear-gradient)"/>
    <path id="Unión_6" data-name="Unión 6" d="M2511.952,5383.573l-20.482-11.927,7.875-18.676,44.1,8.981,43.354-14.656a20.678,20.678,0,1,1,10.555,39.751l-29.924,5.867a79.74,79.74,0,0,1-55.473-9.341Z" transform="translate(-2418.973 -5261.525)" stroke="rgba(0,0,0,0)" stroke-miterlimit="10" stroke-width="1" fill="url(#linear-gradient)"/>
    <path id="Trazado_825006" data-name="Trazado 825006" d="M976.435,763.324l-3.2,10.425a30.464,30.464,0,0,0,3.459,25.37l3.752,5.864A11.621,11.621,0,0,0,993.4,809.9l6.362-1.806a5.443,5.443,0,0,0,2.487-8.963,9.547,9.547,0,0,0-5.871-3.145c-7.087-.787-1.837,4.987-1.837,4.987l-5.6,1.662,4.951-25.023Z" transform="translate(-725.192 -569.569)" fill="#fff"/>
    <path id="Trazado_825007" data-name="Trazado 825007" d="M988.308,809.558a12.173,12.173,0,0,1-10.28-5.659l-3.752-5.864a31.043,31.043,0,0,1-3.531-25.9l3.113-10.128a.843.843,0,0,1,1.339-.405l17.517,14.332L987.894,800.3l3.674-1.091c-.787-1.04-1.863-2.823-1.2-4.125.528-1.034,1.9-1.413,4.206-1.157a10.1,10.1,0,0,1,6.262,3.339,6.077,6.077,0,0,1-2.775,10.009l-6.362,1.807a12.413,12.413,0,0,1-3.391.475m-13.423-46.571-2.927,9.522a29.778,29.778,0,0,0,3.387,24.841l3.752,5.864a10.92,10.92,0,0,0,12.256,4.648l6.362-1.807a4.808,4.808,0,0,0,2.2-7.916,8.875,8.875,0,0,0-5.48-2.951c-2.3-.256-2.819.245-2.935.472-.369.721.759,2.489,1.637,3.457l.678.747-7.573,2.249,5.081-25.68Zm.187-.607h0m-.607-.186h0Z" transform="translate(-723.313 -568.143)" fill="#111c3a"/>
    <path id="Trazado_825009" data-name="Trazado 825009" d="M161.749,272.074l-9.974-5.685-1.453-19.155a7.328,7.328,0,0,0-1.447-3.9c-1.224-1.6-3.024-2.588-4.187,2.946l-1.837,12.008-21.544-14.142a4.333,4.333,0,0,0-3.082-.8c-1.313.181-2.427,1.012-.477,3.9,0,0-7.481-1.771-3.15,4.4,0,0-4.4-.525-2.953,3.937,0,0-3.609.984-2.3,3.346L124.4,274.843A34.812,34.812,0,0,0,143.869,287l4.494,1.015,5.512,2.739Z" transform="translate(-81.378 -180.629)" fill="#fff"/>
    <path id="Trazado_825010" data-name="Trazado 825010" d="M152.335,289.751l-6.049-3.006-4.419-1a35.584,35.584,0,0,1-19.811-12.355L106.97,257.429l-.039-.07a2.379,2.379,0,0,1-.195-2.151,4.059,4.059,0,0,1,2.274-1.908,3.4,3.4,0,0,1,.458-3.069,3.286,3.286,0,0,1,2.124-1.066c-.918-1.574-1.084-2.76-.508-3.609.714-1.053,2.369-1.128,3.577-1.019a2.938,2.938,0,0,1-.3-2.491,2.225,2.225,0,0,1,1.915-1.2,4.94,4.94,0,0,1,3.537.915l20.7,13.586,1.694-11.066c.612-2.912,1.453-4.394,2.649-4.665.876-.2,1.771.295,2.664,1.464a7.944,7.944,0,0,1,1.576,4.24l1.427,18.819,10.171,5.8Zm-44.329-33.074,15.024,15.9a34.308,34.308,0,0,0,19.117,11.932l4.568,1.031,4.975,2.472,7.393-17.535-9.778-5.573-1.478-19.492a6.679,6.679,0,0,0-1.319-3.566c-.541-.708-1.044-1.072-1.375-1-.224.051-1.007.466-1.683,3.671l-1.984,12.968L119.1,242.806a3.694,3.694,0,0,0-2.647-.706c-.352.049-.8.168-.93.463-.092.2-.188.854.891,2.452l.908,1.344-1.579-.371c-1.188-.28-3.156-.384-3.605.28-.159.236-.369,1.012,1.12,3.134l.817,1.163-1.411-.169a2.789,2.789,0,0,0-2.214.643,2.635,2.635,0,0,0-.06,2.469l.2.633-.641.175c-.46.127-1.725.625-2.044,1.386a1.118,1.118,0,0,0,.1.974" transform="translate(-79.516 -178.761)" fill="#111c3a"/>
    <path id="Trazado_825011" data-name="Trazado 825011" d="M156.546,273.569a.632.632,0,0,1-.4-.143l-15.129-12.381a.634.634,0,0,1,.8-.982l15.129,12.381a.635.635,0,0,1-.4,1.126" transform="translate(-105.048 -193.944)" fill="#111c3a"/>
    <path id="Trazado_825012" data-name="Trazado 825012" d="M144.661,290.692a.632.632,0,0,1-.389-.134l-15.654-12.184a.634.634,0,1,1,.779-1l15.654,12.184a.634.634,0,0,1-.39,1.135" transform="translate(-95.788 -206.867)" fill="#111c3a"/>
    <path id="Trazado_825013" data-name="Trazado 825013" d="M128.826,303.839a.633.633,0,0,1-.413-.153l-11.451-9.821a.635.635,0,1,1,.826-.963l11.451,9.821a.635.635,0,0,1-.413,1.116" transform="translate(-87.108 -218.44)" fill="#111c3a"/>
    <path id="Trazado_825014" data-name="Trazado 825014" d="M230.306,337.721a.636.636,0,0,1-.189-.029c-7.078-2.206-6.165-9.838-6.154-9.915a.635.635,0,0,1,1.259.163c-.035.271-.775,6.654,5.274,8.54a.635.635,0,0,1-.189,1.24" transform="translate(-167.081 -244.165)" fill="#111c3a"/>
    <rect id="Rectángulo_378187" data-name="Rectángulo 378187" width="24.935" height="39.252" transform="translate(200.848 50.29)" fill="#fff"/>
    <path id="Trazado_825015" data-name="Trazado 825015" d="M814.972,236.144h-26.2V195.623h26.2Zm-24.935-1.269H813.7V196.892H790.037Z" transform="translate(-588.555 -145.968)" fill="#111c3a"/>
    <path id="Trazado_825016" data-name="Trazado 825016" d="M759.546,285.561s7.874,3.611,8.4,11.08c0,0,10.149-13.879,22.573-14.054l1.925,7.262,8.607,2.358-41.5,40.251s-15.047-23.828,0-40.427Z" transform="translate(-561.76 -210.857)" fill="#fff"/>
    <path id="Trazado_825017" data-name="Trazado 825017" d="M757.588,331.57l-.417-.661a50.753,50.753,0,0,1-5.724-14.183c-2.489-10.627-.543-19.9,5.627-26.826l0-7.215.9.413c.313.143,7.186,3.37,8.56,10.087,2.818-3.433,11.589-12.971,22.139-13.12l.5-.007,1.958,7.388L800.451,290Zm.754-46.833v5.652l-.164.181c-6.085,6.713-7.937,15.4-5.5,25.833a51.338,51.338,0,0,0,5.169,13.151l40.128-38.917-7.887-2.16-1.89-7.129c-11.749.524-21.478,13.646-21.576,13.78l-1.024,1.4-.122-1.73c-.389-5.533-5.117-8.879-7.131-10.062" transform="translate(-559.922 -208.971)" fill="#111c3a"/>
    <path id="Trazado_825018" data-name="Trazado 825018" d="M747.15,53.389s-17.737,22.455-6.961,44.451a12.589,12.589,0,0,0,11.091,7.063,34.527,34.527,0,0,0,11.752-1.692,18.72,18.72,0,0,0,12.467-13s13.824-30.272-1.225-36.747-27.123-.078-27.123-.078" transform="translate(-549.714 -37.733)" fill="#fff"/>
    <path id="Trazado_825019" data-name="Trazado 825019" d="M750.185,103.7q-.359,0-.723-.006a13.16,13.16,0,0,1-11.65-7.418c-5.665-11.565-3.446-23.227-.586-30.973a56.151,56.151,0,0,1,7.619-14.151l.083-.1.118-.062a28.3,28.3,0,0,1,8.114-2.455,35.2,35.2,0,0,1,19.556,2.51,11.261,11.261,0,0,1,6.208,6.559c4.173,10.821-3.768,29.053-4.6,30.907V93.32a.635.635,0,0,1-1.269,0V88.231l.057-.126c.088-.192,8.742-19.382,4.627-30.051a10.036,10.036,0,0,0-5.525-5.85,32.919,32.919,0,0,0-26.457-.159,56.556,56.556,0,0,0-7.354,13.73c-2.765,7.505-4.913,18.792.548,29.94a11.9,11.9,0,0,0,10.531,6.708,33.4,33.4,0,0,0,11.532-1.656.635.635,0,1,1,.419,1.2,34.108,34.108,0,0,1-11.248,1.733" transform="translate(-547.907 -35.888)" fill="#111c3a"/>
    <path id="Trazado_825020" data-name="Trazado 825020" d="M785.7,40.165s-11.984,6.1-20.558,3.049c0,0-3.85-6.9,8.574-10.574s27.123,1.575,27.123,1.575,10.324,27.123,5.075,33.422-8.049,3.15-8.049,3.15l-4.375-8.749v-2.16a12.855,12.855,0,0,0-3.944-9.285c-2.327-2.23-4.669-5.735-3.845-10.428" transform="translate(-570.502 -23.382)" fill="#10002b"/>
    <path id="Trazado_825021" data-name="Trazado 825021" d="M797.651,94.024a.635.635,0,0,1-.568-.351l-4.442-8.883V82.48a12.276,12.276,0,0,0-3.749-8.827,12.337,12.337,0,0,1-4.178-9.819c-3.164,1.427-12.671,5.185-20,2.579a.635.635,0,1,1,.425-1.2c8.213,2.921,19.94-2.957,20.057-3.017l1.133-.575-.22,1.251c-.789,4.494,1.554,7.843,3.659,9.861a13.551,13.551,0,0,1,4.14,9.743v2.01l4.308,8.615a.635.635,0,0,1-.567.919" transform="translate(-570.293 -45.983)" fill="#111c3a"/>
    <path id="Trazado_825022" data-name="Trazado 825022" d="M868.133,144.762s9.143-6.3,11.221-1.4c.955,2.251.585,5.351-.095,8.044a5.885,5.885,0,0,1-7.35,4.227l-3.076-.9Z" transform="translate(-647.774 -105.58)" fill="#fff"/>
    <path id="Trazado_825023" data-name="Trazado 825023" d="M871.7,154.651a6.551,6.551,0,0,1-1.833-.264l-3.076-.9a.635.635,0,1,1,.356-1.218l3.076.9a5.25,5.25,0,0,0,6.557-3.773c.821-3.257.865-5.9.126-7.642a2.207,2.207,0,0,0-1.472-1.351c-2.542-.741-7.217,1.933-8.8,3.025a.635.635,0,0,1-.72-1.045c.253-.174,6.24-4.258,9.878-3.2a3.45,3.45,0,0,1,2.287,2.074c.86,2.027.838,4.869-.064,8.447a6.534,6.534,0,0,1-6.31,4.945" transform="translate(-645.909 -103.725)" fill="#111c3a"/>
    <path id="Trazado_825024" data-name="Trazado 825024" d="M877.815,166.021h0a.635.635,0,0,1,0-1.269,3.917,3.917,0,0,0,3.484-2.235.635.635,0,1,1,1.171.489,5.187,5.187,0,0,1-4.654,3.015" transform="translate(-654.525 -120.974)" fill="#111c3a"/>
    <path id="Trazado_825025" data-name="Trazado 825025" d="M657.042,544.053h-.015a.635.635,0,0,1-.619-.65l2.163-90.153a.635.635,0,0,1,1.269.03l-2.163,90.153a.634.634,0,0,1-.634.619" transform="translate(-489.791 -337.739)" fill="#111c3a"/>
    <path id="Trazado_825026" data-name="Trazado 825026" d="M1005,529.212a.632.632,0,0,1-.345-.1L959.015,499.5a.634.634,0,1,1,.691-1.065l45.64,29.608a.635.635,0,0,1-.346,1.167" transform="translate(-715.372 -371.842)" fill="#111c3a"/>
    <path id="Trazado_825027" data-name="Trazado 825027" d="M752.983,134.313c-.214,1.383-.979,2.413-1.709,2.3s-1.149-1.326-.934-2.709.979-2.413,1.709-2.3,1.149,1.326.935,2.709" transform="translate(-559.839 -98.192)" fill="#10002b"/>
    <path id="Trazado_825028" data-name="Trazado 825028" d="M800.55,134.313c-.214,1.383-.979,2.413-1.709,2.3s-1.149-1.326-.935-2.709.979-2.413,1.709-2.3,1.149,1.326.935,2.709" transform="translate(-595.332 -98.192)" fill="#10002b"/>
    <path id="Trazado_825029" data-name="Trazado 825029" d="M760.648,137.433c.049,2.137-.915,4.09-1.81,5.973a28.84,28.84,0,0,0-1.312,3.071,8.44,8.44,0,0,0-.552,3.131,2.735,2.735,0,0,0,1.745,2.678.635.635,0,0,0,.337-1.224.993.993,0,0,1-.646-.654,2.9,2.9,0,0,1-.174-1.09,8.67,8.67,0,0,1,.627-2.823c.706-1.927,1.779-3.7,2.458-5.635a9.743,9.743,0,0,0,.6-3.427.635.635,0,0,0-1.269,0" transform="translate(-564.824 -102.091)" fill="#10002b"/>
    <path id="Trazado_825030" data-name="Trazado 825030" d="M774.925,211.621a4.173,4.173,0,0,0,5.139-2.732.635.635,0,0,0-1.224-.337c-.016.055-.033.11-.051.164,0,.011-.071.185-.019.06a2.729,2.729,0,0,1-.139.279c-.051.09-.106.178-.165.263-.016.022-.117.152-.037.053-.03.037-.06.073-.091.108a3.377,3.377,0,0,1-.474.449c.071-.055.005-.005-.032.02s-.078.054-.118.08q-.144.093-.3.173c-.042.022-.085.043-.128.064-.018.009-.171.075-.107.049s-.07.025-.084.03c-.053.019-.108.038-.162.054q-.15.046-.3.079c-.056.012-.112.021-.167.032-.075.015.1-.007-.028,0a3.634,3.634,0,0,1-.622.008c-.045,0-.17-.024-.056,0-.056-.009-.112-.019-.167-.031a3.253,3.253,0,0,1-.33-.091.635.635,0,1,0-.337,1.224" transform="translate(-577.878 -155.268)" fill="#10002b"/>
    <path id="Trazado_825031" data-name="Trazado 825031" d="M794.45,113.175a6.068,6.068,0,0,1,6.408,2.1.638.638,0,0,0,.9,0,.651.651,0,0,0,0-.9,7.3,7.3,0,0,0-7.642-2.426.635.635,0,0,0,.337,1.224" transform="translate(-592.21 -83.329)" fill="#10002b"/>
    <path id="Trazado_825032" data-name="Trazado 825032" d="M748.952,112.312a7.463,7.463,0,0,1,.78-.177l.182-.029c-.127.018.082-.008.106-.011q.2-.021.4-.03a7.319,7.319,0,0,1,.8.005c.123.008.245.02.368.033.152.015-.063-.012.075.009.081.013.162.026.243.04a.635.635,0,0,0,.337-1.224,8.062,8.062,0,0,0-3.629.16.635.635,0,1,0,.337,1.224" transform="translate(-558.243 -82.672)" fill="#10002b"/>
    <path id="Trazado_825033" data-name="Trazado 825033" d="M365.489,369.725a.647.647,0,0,1-.131-.014l-50.721-10.7a.635.635,0,0,1,.262-1.242l50.721,10.695a.635.635,0,0,1-.13,1.256" transform="translate(-234.396 -266.95)" fill="#111c3a"/>
    <path id="Trazado_825034" data-name="Trazado 825034" d="M295.648,439.537a.633.633,0,0,1-.319-.086l-11.9-6.931a.635.635,0,0,1,.638-1.1l11.9,6.931a.635.635,0,0,1-.32,1.183" transform="translate(-211.248 -321.85)" fill="#111c3a"/>
    <path id="Trazado_825035" data-name="Trazado 825035" d="M987.942,724.65a.635.635,0,0,1-.518-1l8.987-12.738a.635.635,0,1,1,1.037.732l-8.987,12.738a.634.634,0,0,1-.519.269" transform="translate(-736.699 -530.26)" fill="#111c3a"/>
    <path id="Trazado_825036" data-name="Trazado 825036" d="M1056.737,778.52a.635.635,0,0,1-.449-1.083l13.523-13.559a.635.635,0,0,1,.9.9l-13.523,13.559a.634.634,0,0,1-.45.186" transform="translate(-788.032 -569.844)" fill="#111c3a"/>
    <path id="Trazado_825037" data-name="Trazado 825037" d="M427.876,787.3a3.756,3.756,0,0,0,.357-3.262L412.7,740.229a11.336,11.336,0,0,0-10.684-7.547H320.661a3.754,3.754,0,0,0-2.932,1.4l0,0-2.478,3.114,2.118,1.337,15.257,43.021a11.335,11.335,0,0,0,10.684,7.547h77l.076,1.452h4.94l2.06-2.609a3.83,3.83,0,0,0,.468-.593l.034-.043Z" transform="translate(-235.228 -546.705)" fill="#9f99aa"/>
    <path id="Trazado_825038" data-name="Trazado 825038" d="M441.923,786.066a.635.635,0,0,1-.539-.969,3.135,3.135,0,0,0,.3-2.716l-15.535-43.805a10.72,10.72,0,0,0-10.086-7.124H334.708a.635.635,0,1,1,0-1.269H416.06a11.992,11.992,0,0,1,11.282,7.969l15.535,43.805a4.4,4.4,0,0,1-.416,3.809.635.635,0,0,1-.54.3" transform="translate(-249.275 -544.84)" fill="#111c3a"/>
    <path id="Trazado_825039" data-name="Trazado 825039" d="M420.408,800.352H339.055a11.336,11.336,0,0,1-10.684-7.547L312.836,749a3.792,3.792,0,0,1,3.574-5.059h81.353a11.336,11.336,0,0,1,10.683,7.547l15.535,43.805a3.792,3.792,0,0,1-3.574,5.059" transform="translate(-233.264 -555.106)" fill="#10002b"/>
    <path id="Trazado_825040" data-name="Trazado 825040" d="M338.962,917.978h94.7l5.815-16.4h-94.7Z" transform="translate(-252.923 -672.732)" fill="#9f99aa"/>
    <path id="Trazado_825041" data-name="Trazado 825041" d="M448.891,916.747a.635.635,0,0,1-.6-.847l5.515-15.551h-93.8a.635.635,0,1,1,0-1.269h93.825a1.252,1.252,0,0,1,1.18,1.67l-5.523,15.574a.636.636,0,0,1-.6.423" transform="translate(-268.153 -670.866)" fill="#111c3a"/>
    <path id="Trazado_825042" data-name="Trazado 825042" d="M508.887,822.053l-4.437,8.294-8.6-8.052,4.266-8.77Z" transform="translate(-369.986 -607.028)" fill="#fff"/>
    <path id="Trazado_825043" data-name="Trazado 825043" d="M175.826,800.175l-3.079,38.41a4.051,4.051,0,0,1-4.038,3.727H151.287a4.051,4.051,0,0,1-4.038-3.727l-3.079-38.41Z" transform="translate(-107.575 -597.066)" fill="#10002b"/>
    <path id="Trazado_825044" data-name="Trazado 825044" d="M144.169,790.926c0,1.834,7.087,3.321,15.828,3.321s15.828-1.487,15.828-3.321S168.739,787.6,160,787.6s-15.828,1.487-15.828,3.321" transform="translate(-107.575 -587.687)" fill="#9f99aa"/>
    <path id="Trazado_825045" data-name="Trazado 825045" d="M158.132,793.016c-5.694,0-16.463-.827-16.463-3.956s10.768-3.956,16.463-3.956,16.463.827,16.463,3.956-10.769,3.956-16.463,3.956m0-6.642a56.617,56.617,0,0,0-11.062.959c-3.373.708-4.132,1.5-4.132,1.728s.759,1.02,4.132,1.728a64.281,64.281,0,0,0,22.124,0c3.373-.708,4.132-1.5,4.132-1.728s-.759-1.02-4.132-1.728a56.622,56.622,0,0,0-11.062-.959" transform="translate(-105.709 -585.821)" fill="#040a2e"/>
    <path id="Trazado_825046" data-name="Trazado 825046" d="M165.29,785.169c0,1.213,4.686,2.2,10.467,2.2s10.467-.983,10.467-2.2-4.686-2.2-10.467-2.2-10.467.983-10.467,2.2" transform="translate(-123.334 -584.231)" fill="#fff"/>
    <path id="Trazado_825047" data-name="Trazado 825047" d="M173.892,786.134c-1.136,0-11.1-.079-11.1-2.831s9.965-2.831,11.1-2.831,11.1.079,11.1,2.831-9.966,2.831-11.1,2.831m-9.808-2.831c.464.587,3.967,1.562,9.808,1.562s9.345-.975,9.808-1.562c-.464-.587-3.967-1.562-9.808-1.562s-9.344.975-9.808,1.562" transform="translate(-121.469 -582.364)" fill="#040a2e"/>
    <rect id="Rectángulo_378188" data-name="Rectángulo 378188" width="1.269" height="2.171" transform="translate(62.255 200.938)" fill="#040a2e"/>
    <rect id="Rectángulo_378189" data-name="Rectángulo 378189" width="1.269" height="2.171" transform="translate(41.321 200.938)" fill="#040a2e"/>
    <path id="Trazado_825048" data-name="Trazado 825048" d="M149.811,870.545a124.884,124.884,0,0,0,27.085,0l1.145-14.273a123.319,123.319,0,0,1-29.374,0Z" transform="translate(-110.931 -638.924)" fill="#fff"/>
    <path id="Trazado_825049" data-name="Trazado 825049" d="M197.369,872.083a4.721,4.721,0,1,1-4.721-4.721,4.721,4.721,0,0,1,4.721,4.721" transform="translate(-140.225 -647.199)" fill="url(#linear-gradient)"/>
    <path id="Trazado_825050" data-name="Trazado 825050" d="M323.835,964.949H.635a.635.635,0,0,1,0-1.269h323.2a.635.635,0,1,1,0,1.269" transform="translate(0 -719.069)" fill="#111c3a"/>
  </g>
</svg>
