<svg xmlns="http://www.w3.org/2000/svg" xmlns:xlink="http://www.w3.org/1999/xlink" width="605.015" height="476" viewBox="0 0 605.015 476">
  <defs>
    <clipPath id="clip-path">
      <rect id="Rectángulo_377415" data-name="Rectángulo 377415" width="469" height="476" transform="translate(-11838.704 -12675.917)" fill="#12263f" opacity="0.22"/>
    </clipPath>
    <clipPath id="clip-path-2">
      <rect id="Rectángulo_34984" data-name="Rectángulo 34984" width="448.376" height="369.039" fill="none"/>
    </clipPath>
    <linearGradient id="linear-gradient" x1="0.5" x2="0.5" y2="1" gradientUnits="objectBoundingBox">
      <stop offset="0" stop-color="#459fff"/>
      <stop offset="1" stop-color="#a96dff"/>
    </linearGradient>
    <clipPath id="clip-path-4">
      <path id="Trazado_113810" data-name="Trazado 113810" d="M6.9,0a6.973,6.973,0,0,0,.063,13.946h.006a6.977,6.977,0,0,0,6.972-6.894V6.9A6.979,6.979,0,0,0,7.05,0Z" transform="translate(0)" fill="#fff"/>
    </clipPath>
    <linearGradient id="linear-gradient-2" x1="0.5" x2="0.5" y2="1" gradientUnits="objectBoundingBox">
      <stop offset="0" stop-color="#e1eefd"/>
      <stop offset="1" stop-color="#a96dff"/>
    </linearGradient>
    <clipPath id="clip-path-5">
      <path id="Trazado_501" data-name="Trazado 501" d="M662.422,1438.657a7.22,7.22,0,0,0-6.927-4.925H518.015a15.453,15.453,0,0,0-14.491,10.086l-31.512,85.09H395.635v8.81H622.143l40.266-95.925A4.488,4.488,0,0,0,662.422,1438.657Z" fill="#0d0f44"/>
    </clipPath>
    <linearGradient id="linear-gradient-3" x1="-24.752" y1="3.243" x2="-23.427" y2="2.114" gradientUnits="objectBoundingBox">
      <stop offset="0" stop-color="#5a9fd4"/>
      <stop offset="1" stop-color="#306998"/>
    </linearGradient>
    <linearGradient id="linear-gradient-4" x1="-23.216" y1="1.078" x2="-23.689" y2="1.736" gradientUnits="objectBoundingBox">
      <stop offset="0" stop-color="#ffd43b"/>
      <stop offset="1" stop-color="#ffe873"/>
    </linearGradient>
    <radialGradient id="radial-gradient" cx="0.5" cy="0.489" r="0.5" gradientTransform="matrix(0, -1, -0.853, 0, -32.299, -29.657)" gradientUnits="objectBoundingBox">
      <stop offset="0" stop-color="#b8b8b8" stop-opacity="0.498"/>
      <stop offset="1" stop-color="#7f7f7f" stop-opacity="0"/>
    </radialGradient>
  </defs>
  <g id="Grupo_1076089" data-name="Grupo 1076089" transform="translate(-790.333 -101)">
    <g id="Enmascarar_grupo_1059114" data-name="Enmascarar grupo 1059114" transform="translate(12629.037 12776.917)" clip-path="url(#clip-path)">
      <g id="Grupo_1074083" data-name="Grupo 1074083" transform="translate(-11824.78 -12723.193)">
        <g id="Grupo_1073765" data-name="Grupo 1073765" transform="matrix(0.208, 0.978, -0.978, 0.208, 360.974, 0)">
          <g id="Grupo_81302" data-name="Grupo 81302" transform="translate(0 0)" clip-path="url(#clip-path-2)">
            <g id="Grupo_81301" data-name="Grupo 81301">
              <g id="Grupo_81300" data-name="Grupo 81300" clip-path="url(#clip-path-2)">
                <path id="Trazado_113940" data-name="Trazado 113940" d="M419.656,0H41.13A6.067,6.067,0,0,0,35.19,4.83L.13,173.122a6.067,6.067,0,0,0,5.939,7.3H384.6a6.067,6.067,0,0,0,5.94-4.829L425.6,7.3a6.067,6.067,0,0,0-5.94-7.3" transform="translate(22.651 90.346)" fill="#3c3172"/>
                <path id="Trazado_113941" data-name="Trazado 113941" d="M149.056,0H42.063A7.03,7.03,0,0,0,35.21,5.572L.149,173.864A7,7,0,0,0,7,182.292H171.61v-1.867H7a5.133,5.133,0,0,1-5.026-6.18L37.037,5.953a5.155,5.155,0,0,1,5.026-4.087H149.056Z" transform="translate(0 111.965)"/>
                <path id="Trazado_113942" data-name="Trazado 113942" d="M158.764,0H0V1.867H158.764a5.134,5.134,0,0,1,5.026,6.18L128.728,176.339a5.155,5.155,0,0,1-5.026,4.087H45.937v1.867H123.7a7.03,7.03,0,0,0,6.853-5.572L165.616,8.428A7,7,0,0,0,158.764,0" transform="translate(261.826 111.965)"/>
                <path id="Trazado_113946" data-name="Trazado 113946" d="M39.839,0,37.975.088l.909,19.291-19.741.588.589,19.757L0,40.314.025,60.446l1.867,0L1.869,42.126l19.784-.59-.589-19.757,19.774-.589Z" transform="translate(356.702 127.639)" fill="#fff"/>
                <g id="Grupo_81936" data-name="Grupo 81936" transform="translate(18.542 297.533)">
                  <path id="Trazado_113949" data-name="Trazado 113949" d="M24.159,0a.9.9,0,0,0-.181.018L.753,4.589a.934.934,0,0,0,.36,1.832L24.338,1.85A.934.934,0,0,0,24.159,0" transform="translate(0 9.375)" fill="#333"/>
                  <path id="Trazado_113950" data-name="Trazado 113950" d="M4.981,0a.934.934,0,0,0-.919.774L.014,24.095a.934.934,0,0,0,1.84.319L5.9,1.093a.934.934,0,0,0-.76-1.08A.972.972,0,0,0,4.981,0" transform="translate(9.588 0)" fill="#333"/>
                </g>
                <g id="Grupo_81616" data-name="Grupo 81616" transform="translate(333.471 50.263)">
                  <path id="Trazado_113954" data-name="Trazado 113954" d="M24.158,0a.9.9,0,0,0-.181.018L.754,4.589a.933.933,0,1,0,.36,1.832L24.338,1.85A.934.934,0,0,0,24.158,0" transform="translate(0 9.375)" fill="#333"/>
                  <path id="Trazado_113955" data-name="Trazado 113955" d="M4.981,0a.934.934,0,0,0-.919.774L.014,24.095a.934.934,0,0,0,1.84.319L5.9,1.093A.934.934,0,0,0,4.981,0" transform="translate(9.588 0)" fill="#333"/>
                </g>
                <path id="Trazado_113964" data-name="Trazado 113964" d="M15.546,0a.934.934,0,0,0-.836.517L.1,29.793A.934.934,0,0,0,1.4,31.02L36.839,10.733a.934.934,0,0,0-.094-1.667L15.915.076A.937.937,0,0,0,15.546,0M3.146,27.869,15.986,2.141l18.306,7.9Z" transform="translate(34.113 253.786)" fill="#fff"/>
                <path id="Trazado_113965" data-name="Trazado 113965" d="M15.546,0a.934.934,0,0,0-.836.517L.1,29.793A.934.934,0,0,0,1.4,31.02L36.839,10.733a.934.934,0,0,0-.094-1.667L15.915.076A.934.934,0,0,0,15.546,0M3.146,27.868,15.986,2.141l18.306,7.9Z" transform="translate(196.145 73.224)" fill="#fff"/>
              </g>
            </g>
          </g>
        </g>
        <path id="Trazado_823138" data-name="Trazado 823138" d="M.638,4.974A8.124,8.124,0,1,0,8.13,0,8.125,8.125,0,0,0,.638,4.974" transform="translate(113.291 69.704)" fill="url(#linear-gradient)"/>
        <g id="Grupo_1074091" data-name="Grupo 1074091" transform="translate(298.248 450.224)">
          <g id="Grupo_80972" data-name="Grupo 80972" transform="translate(2.203 2.202)">
            <g id="Grupo_80971" data-name="Grupo 80971" transform="translate(0)" clip-path="url(#clip-path-4)">
              <rect id="Rectángulo_34835" data-name="Rectángulo 34835" width="18.629" height="19.135" transform="translate(-5.931 11.849) rotate(-67.184)" fill="#fff"/>
            </g>
          </g>
          <path id="Trazado_113822" data-name="Trazado 113822" d="M.72,5.617A9.173,9.173,0,1,0,9.18,0,9.174,9.174,0,0,0,.72,5.617" transform="translate(0 0)" fill="url(#linear-gradient-2)"/>
        </g>
      </g>
    </g>
    <g id="Grupo_1076088" data-name="Grupo 1076088" transform="translate(16)">
      <g id="Grupo_143" data-name="Grupo 143" transform="translate(716.649 -1129.162)">
        <path id="Trazado_486" data-name="Trazado 486" d="M469.508,1706h-83.8l-7.971-37.515-14.393-67.707,98.479,5.028Z" fill="#482c83"/>
        <path id="Trazado_487" data-name="Trazado 487" d="M395.637,1661.573,392.51,1706h-6.8l-7.971-37.515,5.608-18.249Z" fill="#381e6c"/>
        <path id="Trazado_488" data-name="Trazado 488" d="M288.977,1601.881,278.6,1706h99.685l7.771-35.851s10.219-1.952,14.554-22.113,5.574-53.554,5.574-53.554Z" fill="#482c83"/>
        <path id="Trazado_489" data-name="Trazado 489" d="M286.1,1615.269s122.009,19.65,176.333-1.516l1.556-15.495H289.787Z" fill="#381e6c"/>
        <path id="Trazado_490" data-name="Trazado 490" d="M301.6,1386.4s50.089-31.187,140.816,3.308c0,0,35.913,147.431,25.044,215.476,0,0-123.8,14.649-180.508-3.307C286.952,1601.881,280.809,1416.174,301.6,1386.4Z" fill="#ff0075"/>
        <path id="Trazado_491" data-name="Trazado 491" d="M308.365,1444.353s14.972,54.042,18.437,79.559-32.447,23.542-32.447,23.542Z" fill="#c50060"/>
        <path id="Trazado_492" data-name="Trazado 492" d="M442.416,1389.712s29.77,17.011,41.111,59.067,20.319,77.023,20.319,77.023l-46.309,7.088Z" fill="#ff0075"/>
        <path id="Trazado_493" data-name="Trazado 493" d="M464.843,1511.224c-.162-1.293-14.971-11.773-14.971-11.773s-26.462-14.812-31.5-13.726-9.871,6.685-17.431,15.3a51.611,51.611,0,0,1-15.226,12.158v.863l9.923,25.937,11.183-4.515c14.912-3.36,16.382-14.911,16.382-14.911l7.167-15.836,9.081,7.973,2.264,14.263s5.433,4.754,6.113-4.981c.631-9.052.089-13.155.009-13.686a113.926,113.926,0,0,0,11.068,4.893C462.682,1514.2,465.006,1512.517,464.843,1511.224Z" fill="#f4b4a4"/>
        <path id="Trazado_494" data-name="Trazado 494" d="M312,1516.824s35.913-.2,73.716-3.646a47.657,47.657,0,0,1,9.923,26.8s-68.045,65.21-139.871,38.748c-4.515-28.547-21.656-123.452,5.671-166.38,0,0,11.34-17.436,40.165-25.942C301.6,1386.4,312.591,1461.092,312,1516.824Z" fill="#ff0075"/>
        <path id="Trazado_495" data-name="Trazado 495" d="M464.851,1568.331s9.225,11.34,34.269-3.781,46.309-42.055,46.309-42.055L461.79,1525.8Z" fill="#c50060"/>
        <path id="Trazado_496" data-name="Trazado 496" d="M422.569,1509.376l8.151,6.339-1.455,7.547c-.887,3.422,4.087,5.106,5.385,1.817.067-.169-.371-.348-.308-.535,2.037-6.112,4.3-15.168,4.3-15.168l-5.886-11.32Z" fill="#f4b4a4"/>
        <g id="Grupo_135" data-name="Grupo 135">
          <g id="Grupo_133" data-name="Grupo 133">
            <path id="Trazado_497" data-name="Trazado 497" d="M662.422,1438.657a7.22,7.22,0,0,0-6.927-4.925H518.015a15.453,15.453,0,0,0-14.491,10.086l-31.512,85.09H395.635v8.81H622.143l40.266-95.925A4.488,4.488,0,0,0,662.422,1438.657Z" fill="#0d0f44"/>
            <g id="Grupo_131" data-name="Grupo 131">
              <path id="Trazado_498" data-name="Trazado 498" d="M662.422,1438.657a7.22,7.22,0,0,0-6.927-4.925H518.015a15.453,15.453,0,0,0-14.491,10.086l-31.512,85.09H395.635v8.81H622.143l40.266-95.925A4.488,4.488,0,0,0,662.422,1438.657Z" fill="#0d0f44"/>
              <g id="Grupo_130" data-name="Grupo 130" clip-path="url(#clip-path-5)">
                <g id="Grupo_129" data-name="Grupo 129">
                  <g id="Grupo_128" data-name="Grupo 128">
                    <path id="Trazado_499" data-name="Trazado 499" d="M472.173,1537.828l-.577-.221,34.619-89.914a13.44,13.44,0,0,1,12.468-8.559H651.831a15.1,15.1,0,0,1,13.209,7.787l2.161,3.905-.54.3-2.161-3.905a14.484,14.484,0,0,0-12.669-7.469H518.683a12.819,12.819,0,0,0-11.892,8.164Z" fill="#f3eed9"/>
                    <rect id="Rectángulo_160" data-name="Rectángulo 160" width="13.486" height="0.616" transform="translate(466.436 1541.454) rotate(-69.749)" fill="#f3eed9"/>
                    <g id="Grupo_127" data-name="Grupo 127">
                      <path id="Trazado_500" data-name="Trazado 500" d="M453.261,1535.542H400.976v-4.367h52.285Zm-51.668-.616h51.051v-3.134H401.593Z" fill="#f3eed9"/>
                    </g>
                  </g>
                </g>
              </g>
            </g>
          </g>
        </g>
        <path id="Trazado_502" data-name="Trazado 502" d="M311.668,1517.136l.02-.331c2.334-37.338-5.521-91.392-5.6-91.933l.611-.09c.079.541,7.9,54.34,5.627,91.73,5.184-.058,68.6-.827,73.228-3.6l.317.529c-4.938,2.96-71.058,3.661-73.871,3.69Z" fill="#0d0f44"/>
        <g id="Grupo_136" data-name="Grupo 136">
          <path id="Trazado_503" data-name="Trazado 503" d="M289.788,1585.354l0-.617c.149,0,15.107-.131,35.514-5.725,18.826-5.16,46.274-16.159,70.121-39.255l.429.443c-23.947,23.193-51.506,34.234-70.407,39.413C304.961,1585.224,289.938,1585.353,289.788,1585.354Z" fill="#0d0f44"/>
        </g>
        <g id="Grupo_137" data-name="Grupo 137">
          <path id="Trazado_504" data-name="Trazado 504" d="M284.321,1535.011l-.408-.462c.154-.136,14.53-12.8,25.613-17.195-7.272.718-28.42,3.309-36.079,9.734l-.4-.472c9.419-7.9,37.724-10.013,38.924-10.1l2.889-.207-2.78.81C300.937,1520.371,284.486,1534.865,284.321,1535.011Z" fill="#0d0f44"/>
        </g>
        <path id="Trazado_505" data-name="Trazado 505" d="M406.033,1388.893c-2.931,6.632-10.612,16.065-30.588,15.763a53.646,53.646,0,0,1-38.3-16.392c-3.541-3.64.345-8.532,3.208-12.727,14.7-21.537,6.909-59.2,6.909-59.2l51.593,29.23c-.475,4.22.636,10.4,2.227,16.515.87,3.374,1.888,6.724,2.869,9.71.87,2.665,1.7,5.034,2.375,6.867A13.718,13.718,0,0,1,406.033,1388.893Z" fill="#ff9595"/>
        <path id="Trazado_506" data-name="Trazado 506" d="M364.134,1259.23s-22.966,15.658-15.311,60.2c7.385,42.965,25.4,43.844,45.932,43.148s32.013-32.709,32.361-65.418S389.535,1241.135,364.134,1259.23Z" fill="#ff9595"/>
        <path id="Trazado_507" data-name="Trazado 507" d="M350.534,1297.583s4.62,10.745,4.41,15.629l-.21,4.884,6.511,1.261a190.007,190.007,0,0,0,.939-20.139C362.066,1288.73,350.433,1295.448,350.534,1297.583Z" fill="#0d0f44"/>
        <path id="Trazado_508" data-name="Trazado 508" d="M353.742,1338.645c.08.247.154.487.234.728C353.847,1339.009,353.773,1338.756,353.742,1338.645Z" fill="#0d0f44"/>
        <path id="Trazado_509" data-name="Trazado 509" d="M403.947,1371.792c-14.325.383-40.316-3.177-49.89-32.185,1.789,4.96,11.524,26.065,47.021,22.475C401.948,1365.456,402.966,1368.806,403.947,1371.792Z" fill="#0d0f44"/>
        <path id="Trazado_510" data-name="Trazado 510" d="M385.379,1311.712c0,2.157-1.246,3.906-2.782,3.906s-2.782-1.749-2.782-3.906,1.246-3.906,2.782-3.906S385.379,1309.555,385.379,1311.712Z" fill="#0d0f44"/>
        <ellipse id="Elipse_16" data-name="Elipse 16" cx="2.782" cy="3.906" rx="2.782" ry="3.906" transform="translate(410.967 1309.09)" fill="#0d0f44"/>
        <g id="Grupo_138" data-name="Grupo 138">
          <path id="Trazado_511" data-name="Trazado 511" d="M402.266,1335.225a10.308,10.308,0,0,1-6.835-2.616l.408-.463c4.092,3.593,9.688,2.716,11.6.558,1.027-1.162.861-2.452-.467-3.632-4.71-4.189-6.671-14.271-6.752-14.7l.606-.115c.019.1,2,10.3,6.556,14.352,1.577,1.4,1.771,3.085.519,4.5A7.655,7.655,0,0,1,402.266,1335.225Z" fill="#0d0f44"/>
        </g>
        <path id="Trazado_512" data-name="Trazado 512" d="M386.634,1338.645a24.182,24.182,0,0,0,21.768.364s-4.643,9.33-10.884,9.75S386.634,1338.645,386.634,1338.645Z" fill="#fff"/>
        <path id="Trazado_513" data-name="Trazado 513" d="M347.381,1297.6s15.544,8.665,14.914-.014.043-11.829.043-11.829l6.257,3.78s7.771,4.621,20.162,2.31,22.472-9.45,29.822-3.78,10.921-.21,10.711-8.4-10.711-21.632-23.942-28.353-47.2-9.66-58.087,7.351-5.968,19.321-5.758,25.832,3.571,9.167,3.151,13.089S347.381,1297.6,347.381,1297.6Z" fill="#24135a"/>
        <path id="Trazado_514" data-name="Trazado 514" d="M353.544,1299.718c-.365-.744-2.149-6.264-10.2-2.088s-6.419,25.517,2.805,29.229S359.578,1312.013,353.544,1299.718Z" fill="#ff9595"/>
        <g id="Grupo_139" data-name="Grupo 139">
          <path id="Trazado_515" data-name="Trazado 515" d="M347.686,1322.442a3.627,3.627,0,0,1-2.477-1.083c-2.82-2.626-4.061-9.08-2.826-14.694.6-2.746,1.743-4.523,3.386-5.281a5.353,5.353,0,0,1,4.41.193l-.29.544a4.81,4.81,0,0,0-3.867-.174c-1.455.674-2.477,2.306-3.037,4.851-1.314,5.971.35,11.973,2.644,14.109a2.785,2.785,0,0,0,2.8.808c3.55-1.052,3.6-5.617,3.569-6.592-.558-.25-2.178-1.073-2.577-2.365a2.167,2.167,0,0,1,.362-1.923l.51.348a1.562,1.562,0,0,0-.283,1.392c.386,1.25,2.379,2.045,2.4,2.053l.179.07.016.192c.005.061.442,6.1-4,7.416A3.2,3.2,0,0,1,347.686,1322.442Z" fill="#0d0f44"/>
        </g>
        <path id="Trazado_516" data-name="Trazado 516" d="M384.215,1329.982c-7.147,0-12.962-6.747-12.962-15.04s5.815-15.04,12.962-15.04,12.962,6.747,12.962,15.04S391.362,1329.982,384.215,1329.982Zm0-27c-5.446,0-9.877,5.364-9.877,11.956s4.431,11.955,9.877,11.955,9.878-5.363,9.878-11.955S389.662,1302.986,384.215,1302.986Z" fill="#60409b"/>
        <path id="Trazado_517" data-name="Trazado 517" d="M416.531,1329.982c-7.147,0-12.962-6.747-12.962-15.04s5.815-15.04,12.962-15.04,12.962,6.747,12.962,15.04S423.678,1329.982,416.531,1329.982Zm0-27c-5.447,0-9.878,5.364-9.878,11.956s4.431,11.955,9.878,11.955,9.877-5.363,9.877-11.955S421.977,1302.986,416.531,1302.986Z" fill="#482c83"/>
        <g id="Grupo_140" data-name="Grupo 140">
          <path id="Trazado_518" data-name="Trazado 518" d="M469.693,1565.838l-.616-.011c1.433-79.34-10.77-127.391-10.894-127.867l.6-.155C458.9,1438.282,471.129,1486.406,469.693,1565.838Z" fill="#0d0f44"/>
        </g>
        <g id="Grupo_141" data-name="Grupo 141">
          <rect id="Rectángulo_161" data-name="Rectángulo 161" width="3.084" height="31.815" transform="translate(343.912 1296.604) rotate(-69.267)" fill="#482c83"/>
        </g>
        <g id="Grupo_142" data-name="Grupo 142">
          <path id="Trazado_519" data-name="Trazado 519" d="M404.006,1310.93c-2.866-2.944-8.829-.448-8.889-.423l-1.218-2.833c.323-.14,7.967-3.362,12.317,1.1Z" fill="#482c83"/>
        </g>
      </g>
      <g id="python-3" transform="translate(1233.891 341.3)">
        <path id="Trazado_823689" data-name="Trazado 823689" d="M156.486,16.236q0-4.831-2.755-4.964a5.172,5.172,0,0,0-2.138.351,3.135,3.135,0,0,0-1.123.593V19.9a5.456,5.456,0,0,0,3.128,1.026Q156.485,20.738,156.486,16.236Zm2.265.134a6.831,6.831,0,0,1-1.155,4.074,4.26,4.26,0,0,1-3.576,1.886,6.344,6.344,0,0,1-3.55-1.078v6.986l-1.97-.7V12.028A4.409,4.409,0,0,1,149.744,11a8.536,8.536,0,0,1,4.275-1.052l.028.028a3.922,3.922,0,0,1,3.544,1.886,8.015,8.015,0,0,1,1.162,4.5Zm12.041,4.585a10.9,10.9,0,0,1-.659,4.559,4.65,4.65,0,0,1-2.524,2.022,9.669,9.669,0,0,1-3.263.649l-.326-1.242a15.655,15.655,0,0,0,2.509-.485,3.315,3.315,0,0,0,1.97-1.483,7.443,7.443,0,0,0,.431-3.1V21.36a10.119,10.119,0,0,1-4.235.916,3.893,3.893,0,0,1-2.563-.916,3.117,3.117,0,0,1-1.242-2.535v-8.2l1.97-.675V18.2a2.508,2.508,0,0,0,.853,2.037,3.225,3.225,0,0,0,2.209.688,5.525,5.525,0,0,0,2.9-1.052V10.248h1.97V20.955Zm7.691,1.267q-.324.027-.649.028a3.877,3.877,0,0,1-2.6-.8,2.755,2.755,0,0,1-.929-2.205v-7.76h-1.349V10.248H174.3V6.956l1.968-.7v3.992h2.214v1.239H176.27v7.706a1.867,1.867,0,0,0,.595,1.569,3.01,3.01,0,0,0,1.619.433v1.026Zm11.929-.162h-1.97v-7.6a3.594,3.594,0,0,0-.541-2,1.969,1.969,0,0,0-1.735-.944,6.4,6.4,0,0,0-3.388,1.429V22.06h-1.97V3.883l1.97-.621v8.279a6.864,6.864,0,0,1,4.128-1.375,3.29,3.29,0,0,1,2.535,1.052,3.7,3.7,0,0,1,.972,2.617V22.06h0Zm10.471-6.135a6.052,6.052,0,0,0-.7-3.067,2.942,2.942,0,0,0-2.589-1.558q-3.24.187-3.238,4.639a7.63,7.63,0,0,0,.677,3.408,2.721,2.721,0,0,0,2.6,1.716q3.253-.026,3.253-5.137Zm2.158.013a7.007,7.007,0,0,1-1.349,4.4,4.853,4.853,0,0,1-4.1,1.968,4.756,4.756,0,0,1-4.048-1.968,7.1,7.1,0,0,1-1.322-4.4,6.277,6.277,0,0,1,1.429-4.182,4.924,4.924,0,0,1,3.966-1.806,5.007,5.007,0,0,1,3.994,1.806A6.277,6.277,0,0,1,203.042,15.939Zm11.295,6.122h-1.97V14.025a2.688,2.688,0,0,0-.8-2.065,2.89,2.89,0,0,0-2.119-.714,4.735,4.735,0,0,0-2.671.916v9.9h-1.97V11.919a9.708,9.708,0,0,1,3.13-1.617,9.552,9.552,0,0,1,2.375-.351,6.161,6.161,0,0,1,1.321.136,3.8,3.8,0,0,1,1.888,1,2.64,2.64,0,0,1,.811,1.942V22.06Z" transform="translate(-111.305 0)" fill="#fff"/>
        <path id="Trazado_823690" data-name="Trazado 823690" d="M17.736,6.4a16.91,16.91,0,0,0-2.833.242c-2.509.443-2.965,1.371-2.965,3.082v2.26h5.929v.753H9.713a3.7,3.7,0,0,0-3.7,3.006,11.083,11.083,0,0,0,0,6.026c.422,1.755,1.428,3.006,3.151,3.006H11.2V22.064a3.768,3.768,0,0,1,3.7-3.683h5.923a2.987,2.987,0,0,0,2.965-3.013V9.721a3.31,3.31,0,0,0-2.965-3.082A18.5,18.5,0,0,0,17.736,6.4ZM14.53,8.215a1.13,1.13,0,1,1-1.113,1.133A1.125,1.125,0,0,1,14.53,8.215Z" transform="translate(0 -2.442)" fill="url(#linear-gradient-3)"/>
        <path id="Trazado_823691" data-name="Trazado 823691" d="M46.883,35.054v2.633a3.8,3.8,0,0,1-3.7,3.759H37.257a3.025,3.025,0,0,0-2.965,3.013v5.646c0,1.607,1.4,2.552,2.965,3.013a9.919,9.919,0,0,0,5.923,0c1.493-.432,2.965-1.3,2.965-3.013v-2.26H40.221v-.753h8.887c1.723,0,2.365-1.2,2.965-3.006a10.173,10.173,0,0,0,0-6.026c-.426-1.715-1.239-3.006-2.965-3.006Zm-3.331,14.3a1.13,1.13,0,1,1-1.113,1.127A1.119,1.119,0,0,1,43.552,49.352Z" transform="translate(-22.354 -24.761)" fill="url(#linear-gradient-4)"/>
        <path id="Trazado_823693" data-name="Trazado 823693" d="M41.368,128.671c0,.851-3.558,1.541-7.946,1.541s-7.946-.69-7.946-1.541,3.558-1.541,7.946-1.541S41.368,127.82,41.368,128.671Z" transform="translate(-15.487 -96.475)" opacity="0.444" fill="url(#radial-gradient)"/>
      </g>
    </g>
  </g>
</svg>
