<svg xmlns="http://www.w3.org/2000/svg" xmlns:xlink="http://www.w3.org/1999/xlink" width="97.243" height="71.132" viewBox="0 0 97.243 71.132">
  <defs>
    <clipPath id="clip-path">
      <rect id="Rectángulo_34832" data-name="Rectángulo 34832" width="94.52" height="67.409" transform="translate(0.362 0.362)" fill="none"/>
    </clipPath>
    <clipPath id="clip-path-2">
      <path id="Trazado_113805" data-name="Trazado 113805" d="M82.943,67.771h-70.5A10.521,10.521,0,0,1,1.933,57.6L.368,11.238A10.521,10.521,0,0,1,10.883.362H84.36A10.522,10.522,0,0,1,94.877,11.2L93.46,57.571a10.522,10.522,0,0,1-10.517,10.2" fill="none"/>
    </clipPath>
  </defs>
  <g id="Grupo_1075096" data-name="Grupo 1075096" transform="translate(11771 11813)">
    <g id="Grupo_80970" data-name="Grupo 80970" transform="translate(-11769 -11813)">
      <g id="Grupo_80969" data-name="Grupo 80969">
        <g id="Grupo_80968" data-name="Grupo 80968" clip-path="url(#clip-path)">
          <g id="Grupo_80967" data-name="Grupo 80967">
            <g id="Grupo_80966" data-name="Grupo 80966" clip-path="url(#clip-path-2)">
              <rect id="Rectángulo_34831" data-name="Rectángulo 34831" width="94.891" height="67.409" transform="translate(0.167 0.362)" fill="#f34ef9"/>
            </g>
          </g>
        </g>
      </g>
    </g>
    <path id="Trazado_113806" data-name="Trazado 113806" d="M82.943,68.131h-70.5A10.841,10.841,0,0,1,1.571,57.616L.006,11.25A10.884,10.884,0,0,1,10.883,0H84.36A10.882,10.882,0,0,1,95.238,11.215L93.821,57.582A10.833,10.833,0,0,1,82.943,68.131M10.883.722A10.16,10.16,0,0,0,.729,11.225L2.294,57.59a10.121,10.121,0,0,0,10.154,9.819h70.5A10.114,10.114,0,0,0,93.1,57.559l1.418-46.367A10.162,10.162,0,0,0,84.36.722Z" transform="translate(-11769 -11813)" fill="#f556ee"/>
    <path id="Trazado_113807" data-name="Trazado 113807" d="M31.243,17.02,13.861,37.167l17.7,15.025V44.437L21.323,35.572l9.509-10.751Z" transform="translate(-11769 -11813)" fill="#fff"/>
    <path id="Trazado_113808" data-name="Trazado 113808" d="M61.8,17.924,79.176,38.071,61.476,53.1V45.341l10.239-8.864L60.32,24.42Z" transform="translate(-11769 -11813)" fill="#fff"/>
    <path id="Trazado_113809" data-name="Trazado 113809" d="M35.029,52.192,50.174,18.829h7.117L40.138,52.192Z" transform="translate(-11769 -11813)" fill="#fff"/>
    <rect id="Rectángulo_34833" data-name="Rectángulo 34833" width="95.243" height="68.131" transform="translate(-11769 -11812.999)" fill="none"/>
    <rect id="Rectángulo_34834" data-name="Rectángulo 34834" width="95.243" height="68.132" transform="translate(-11771 -11810)" fill="none"/>
  </g>
</svg>
