<svg xmlns="http://www.w3.org/2000/svg" xmlns:xlink="http://www.w3.org/1999/xlink" width="400" height="235" viewBox="0 0 400 235">
  <defs>
    <linearGradient id="linear-gradient" x1="0.5" x2="0.5" y2="1" gradientUnits="objectBoundingBox">
      <stop offset="0" stop-color="#9bccff"/>
      <stop offset="1" stop-color="#e2d2f8"/>
    </linearGradient>
    <clipPath id="clip-path">
      <rect id="Rectángulo_377863" data-name="Rectángulo 377863" width="382.212" height="185.447" fill="none"/>
    </clipPath>
    <linearGradient id="linear-gradient-2" x1="0.5" x2="0.5" y2="1" gradientUnits="objectBoundingBox">
      <stop offset="0" stop-color="#459fff"/>
      <stop offset="1" stop-color="#a96dff"/>
    </linearGradient>
    <linearGradient id="linear-gradient-3" x1="0.5" x2="0.5" y2="1" gradientUnits="objectBoundingBox">
      <stop offset="0" stop-color="#b31a8f"/>
      <stop offset="1" stop-color="#fe117e"/>
    </linearGradient>
  </defs>
  <g id="Grupo_1084137" data-name="Grupo 1084137" transform="translate(-1020 -391)">
    <g id="Grupo_1075125" data-name="Grupo 1075125">
      <path id="Trazado_824532" data-name="Trazado 824532" d="M8,0H287a8,8,0,0,1,8,8V227a8,8,0,0,1-8,8H8a8,8,0,0,1-8-8V8A8,8,0,0,1,8,0Z" transform="translate(1125 391)" fill="url(#linear-gradient)"/>
      <g id="Grupo_1075124" data-name="Grupo 1075124" transform="translate(1020 413.5)" clip-path="url(#clip-path)">
        <path id="Trazado_823583" data-name="Trazado 823583" d="M1091.048,101.993a.411.411,0,0,1-.384-.557l9.572-25.222a.411.411,0,1,1,.768.292l-9.572,25.222a.411.411,0,0,1-.384.265" transform="translate(-889.762 -61.962)" fill="#261924"/>
        <path id="Trazado_823584" data-name="Trazado 823584" d="M1111.5,39.957a.411.411,0,0,1-.383-.559L1126.247.268a.411.411,0,1,1,.766.3l-15.125,39.131a.411.411,0,0,1-.383.263" transform="translate(-906.451 -0.005)" fill="#047ed0"/>
        <path id="Trazado_823585" data-name="Trazado 823585" d="M1134.609,133.912a.412.412,0,0,1-.411-.411.411.411,0,0,1,.026-.144l6.527-17.521a.411.411,0,1,1,.77.287l-6.527,17.521a.411.411,0,0,1-.385.268" transform="translate(-925.3 -94.284)" fill="#fea800"/>
        <path id="Trazado_823586" data-name="Trazado 823586" d="M1153.682,101.523a.411.411,0,0,1-.382-.561l9.75-24.834a.411.411,0,0,1,.794.15.417.417,0,0,1-.028.15l-9.75,24.834a.411.411,0,0,1-.383.261" transform="translate(-940.86 -61.895)" fill="#ff94bd"/>
        <path id="Trazado_823587" data-name="Trazado 823587" d="M1196.248,163.982a.411.411,0,0,1-.382-.562l4.253-10.733a.411.411,0,0,1,.793.152.406.406,0,0,1-.029.151l-4.252,10.732a.411.411,0,0,1-.382.26" transform="translate(-975.586 -124.354)" fill="#fe3f15"/>
        <path id="Trazado_823588" data-name="Trazado 823588" d="M1219.338,141.161a.411.411,0,0,1-.411-.411.412.412,0,0,1,.026-.144l5.891-15.776a.411.411,0,1,1,.77.288l-5.891,15.776a.411.411,0,0,1-.385.267" transform="translate(-994.424 -101.622)" fill="#261924"/>
        <path id="Trazado_823589" data-name="Trazado 823589" d="M1046.917,114.342a.411.411,0,0,1-.383-.56l8.842-22.823a.411.411,0,0,1,.766.3l-8.842,22.823a.411.411,0,0,1-.383.262" transform="translate(-853.759 -73.993)" fill="#fea800"/>
        <path id="Trazado_823590" data-name="Trazado 823590" d="M1068.609,160.2a.411.411,0,0,1-.382-.561l4.7-11.984a.411.411,0,1,1,.765.3l-4.7,11.984a.411.411,0,0,1-.383.261" transform="translate(-871.456 -120.25)" fill="#261924"/>
        <path id="Trazado_823591" data-name="Trazado 823591" d="M982.7,382.357c4.951-4.072,24.436-14.181,27.8-16.6,5.45.1,7.391,7.067,5.927,11Z" transform="translate(-801.707 -298.39)" fill="#fff"/>
        <path id="Trazado_823592" data-name="Trazado 823592" d="M1323.4,958.066a5.342,5.342,0,0,1-1.112,3.342,3.462,3.462,0,0,1-2.688,1.383h-81.617q-1.316-4.724-2.634-9.45H1319.6c2.1,0,3.8,2.116,3.8,4.725" transform="translate(-1007.822 -777.754)" fill="#3ece9b"/>
        <path id="Trazado_823593" data-name="Trazado 823593" d="M709.275,334.029c-8.99,0-15.973-.022-21.216-.068-3.6-.031-6.37-.074-8.235-.127-3.194-.091-3.237-.165-3.38-.41a.433.433,0,0,1,0-.421c.541-.992,30.826-66.968,58.988-128.381a13.235,13.235,0,0,1,11.7-7.672L927.274,193.2h.137A6.608,6.608,0,0,1,933.4,202.6c-6.871,14.772-22.549,47.654-36.89,77.11-7.615,15.64-14.06,28.683-18.639,37.72-2.586,5.1-4.633,9.041-6.084,11.7-2.494,4.577-2.732,4.538-3.092,4.479-1.346-.217-35.654-.054-71.976.118-26.736.127-57.039.271-80.181.3q-3.831,0-7.263,0M677.4,332.91c6.078.534,68.679.237,119.318,0,38.5-.183,69.112-.328,71.946-.124,3.267-3.392,48.083-96.327,63.994-130.533a5.786,5.786,0,0,0-5.244-8.226h-.12l-180.146,3.749a12.408,12.408,0,0,0-10.969,7.193C722.982,233.738,681,325.28,677.4,332.91" transform="translate(-551.81 -157.618)" fill="#261924"/>
        <path id="Trazado_823594" data-name="Trazado 823594" d="M908.586,249.1s-60.3,129.926-62.339,129.6c-3.361-.542-191.774,1.177-191.115.019.189-.333,5.045-10.866,11.865-25.7,3.546-7.712,7.624-16.589,11.85-25.8,15.9-34.634,33.946-73.989,33.946-73.989Z" transform="translate(-534.468 -203.225)" fill="#24135a"/>
        <path id="Trazado_823595" data-name="Trazado 823595" d="M656.3,439.809a.734.734,0,0,1-.118-.013c-1.705-.275-76.492-.654-115.8-.816l-.638,0L580.671,349.9l119.819-1.865-.275.594c-.106.228-10.689,23.048-21.3,45.547-6.232,13.216-11.253,23.737-14.924,31.272-2.181,4.476-3.9,7.935-5.122,10.281-1.912,3.684-2.257,4.075-2.566,4.075M541.028,438.16c9.9.041,109.688.465,115.094.807,2.465-3.039,31.568-65.284,43.072-90.085L581.2,350.719Z" transform="translate(-440.337 -283.938)" fill="#047ed0"/>
        <path id="Trazado_823596" data-name="Trazado 823596" d="M457.663,326.037c.429-.753,40.549-88.257,40.549-88.257l127.3-3.2s-42.264,91.144-43.591,90.929c-2.187-.353-124.691,1.28-124.262.527" transform="translate(-373.369 -191.376)" fill="url(#linear-gradient-2)"/>
        <path id="Trazado_823597" data-name="Trazado 823597" d="M1050.459,645.011l-2.152,20.767-10.573,2.317a2.568,2.568,0,0,1-2.269-.22,2.5,2.5,0,0,1-.4-2.332,41.271,41.271,0,0,1,10.008-20.4,4.223,4.223,0,0,1,2.8-1.718c1.128-.022,2.586,1.583,2.586,1.583" transform="translate(-844.344 -524.921)" fill="#261924"/>
        <path id="Trazado_823598" data-name="Trazado 823598" d="M839.558,551.888l-.728,1.829-1.108,2.786-1.64,4.12v0l-8.531,21.429-4.532-.006L789.148,582l-3.741-.006h0l-3.349,0h0l-4.718-.006-2.254,0,.461-1.16,4.427-11.118,1.53-3.846,1.33-3.337,1.263-3.175,0-.008,7.281-20.215,1.523.014c6.027.055,13.068,3.775,16.17,9.78l1.241,2.4,9.642.195,5.976.115,4.7.093,7.381.146Z" transform="translate(-632.326 -439.823)" fill="#261924"/>
        <path id="Trazado_823599" data-name="Trazado 823599" d="M804.844,548.958l-.857,1.853-1.3,2.823-1.931,4.174v0l-10.044,21.714-5.335-.006-39.879-.051-4.4-.006h0l-3.942,0h0l-5.555-.006-2.654,0,.542-1.175,5.212-11.266,1.8-3.9,1.565-3.381,1.487-3.217,0-.008,8.573-20.484,1.793.014a20.368,20.368,0,0,1,17.3,9.885l1.461,2.428,13.086.222,7.036.117,5.536.094,8.69.148Z" transform="translate(-594.678 -437.294)" fill="#fea800"/>
        <path id="Trazado_823600" data-name="Trazado 823600" d="M735.72,694.7c-4.219,6.214-11.041,8.86-16.157,6.623,3.642-8.4,7.829-18.062,12.17-28.09a9.07,9.07,0,0,1,3.207,1.57c5.2,3.973,5.549,12.879.781,19.9" transform="translate(-587.033 -549.236)" fill="#261924"/>
        <path id="Trazado_823601" data-name="Trazado 823601" d="M681.765,668.845c4.643-6.444,12.511-8.711,17.573-5.063s5.4,11.828.761,18.272-12.511,8.711-17.574,5.063-5.4-11.828-.761-18.272" transform="translate(-553.528 -540.105)" fill="#fff"/>
        <path id="Trazado_823602" data-name="Trazado 823602" d="M756.684,663.62c2.026-2.812,5.458-3.8,7.667-2.209s2.358,5.161.332,7.972-5.458,3.8-7.667,2.209-2.358-5.161-.332-7.972" transform="translate(-616.153 -538.973)" fill="#261924"/>
        <path id="Trazado_823603" data-name="Trazado 823603" d="M732.559,693.98a5.721,5.721,0,0,1-3.385-1.054c-3.034-2.186-3.268-7.064-.522-10.874a9.7,9.7,0,0,1,5.084-3.715,6.138,6.138,0,0,1,5.4.768c3.033,2.186,3.268,7.064.522,10.875a9.086,9.086,0,0,1-7.1,4m-3.241-11.449c-2.48,3.443-2.33,7.807.336,9.727s6.853.682,9.333-2.76,2.33-7.807-.336-9.728a5.333,5.333,0,0,0-4.688-.645,8.872,8.872,0,0,0-4.645,3.406" transform="translate(-592.885 -553.16)" fill="#261924"/>
        <path id="Trazado_823604" data-name="Trazado 823604" d="M882.126,296.315c.743,1.409,1.19,2.6.506,4.037.961.344,13.317,2.956,20.286,5.451,1.362.488,1.009-.6,1.423-3.43-2.174-.527-22.275-5.861-22.216-6.059" transform="translate(-719.655 -241.74)" fill="#fff"/>
        <path id="Trazado_823605" data-name="Trazado 823605" d="M456.1,430.781c.351-1.481,1.19-2.414,1.86-3.78a6.87,6.87,0,0,1,3.066-3.266,8.234,8.234,0,0,1,4.454-.494,20.65,20.65,0,0,1,10.176,4.081,3.287,3.287,0,0,1,1.224,1.427,1.8,1.8,0,0,1-.481,1.9Z" transform="translate(-372.095 -345.214)" fill="#ffd945"/>
        <path id="Trazado_823606" data-name="Trazado 823606" d="M449.393,456.49a24.36,24.36,0,0,1-14.644,2.861,1.249,1.249,0,0,1-.895-.376,1.216,1.216,0,0,1,.072-1.2,9.821,9.821,0,0,1,13.778-4.39c1.078.616,2.142,1.727,1.689,3.108" transform="translate(-353.837 -368.832)" fill="#ffd945"/>
        <path id="Trazado_823607" data-name="Trazado 823607" d="M476.4,463.881c-2.708,2.06-6.116,2.3-9.512,2.1A46.191,46.191,0,0,1,456.1,464.01Z" transform="translate(-372.096 -378.444)" fill="#ff94bd"/>
        <path id="Trazado_823608" data-name="Trazado 823608" d="M466.877,464.627c-.635,0-1.251-.025-1.835-.059a46.719,46.719,0,0,1-10.895-1.989.411.411,0,1,1,.265-.778,45.8,45.8,0,0,0,10.678,1.946c3.025.179,6.489.079,9.239-2.013a.411.411,0,1,1,.5.654,12.862,12.862,0,0,1-7.95,2.239" transform="translate(-370.275 -376.624)" fill="#261924"/>
        <path id="Trazado_823609" data-name="Trazado 823609" d="M497.674,401.711a8.785,8.785,0,0,1-6.237,2.932,16.663,16.663,0,0,1-5.528-.727c-.894-.251-1.777-.544-2.65-.849-2.479-.867-4.928-1.826-7.326-2.862q-2.484-1.069-4.891-2.247-.589-.283-1.169-.577c-.715-.357-1.419-.721-2.12-1.091a10.367,10.367,0,0,1,7.821-5.908l1.422.635,3.938,1.758c5.623,2.512,11.167,5,16.383,7.379a1.007,1.007,0,0,1,.357,1.557" transform="translate(-381.602 -318.481)" fill="#ffd945"/>
        <path id="Trazado_823610" data-name="Trazado 823610" d="M491.436,430.812a21.21,21.21,0,0,1-8.177-1.577,113.906,113.906,0,0,1-15.508-6.777Z" transform="translate(-381.6 -344.65)" fill="#ff94bd"/>
        <path id="Trazado_823611" data-name="Trazado 823611" d="M488.876,429.425A23.338,23.338,0,0,1,481.3,427.8a114.076,114.076,0,0,1-15.564-6.8.411.411,0,1,1,.383-.727,113.231,113.231,0,0,0,15.451,6.752,20.991,20.991,0,0,0,8.016,1.555.411.411,0,1,1,.05.82q-.383.023-.765.023" transform="translate(-379.78 -342.83)" fill="#261924"/>
        <path id="Trazado_823612" data-name="Trazado 823612" d="M882.26,328.238c-1.5,0-15.883-5.17-18.8-7a.411.411,0,0,1-.076-.634,13.835,13.835,0,0,0,3.618-6.3.411.411,0,0,1,.612-.249c.485.206,5.521,1.494,9.207,2.437,3.034.776,5.7,1.458,6.657,1.734a.618.618,0,0,1,.343-.129c.573-.037,1.235.7,1.565,1.408a5.219,5.219,0,0,1,.311,2.956,9.376,9.376,0,0,1-1.787,4.3,4.51,4.51,0,0,0-.309.484,1.641,1.641,0,0,1-1.282.992.424.424,0,0,1-.064,0m-17.925-7.447c3.781,2.076,16.843,6.587,17.876,6.628.381-.066.465-.211.683-.588a5.255,5.255,0,0,1,.365-.567,8.552,8.552,0,0,0,1.629-3.922,4.427,4.427,0,0,0-.243-2.494,2.317,2.317,0,0,0-.691-.885.414.414,0,0,1-.448.126c-.5-.172-3.6-.965-6.884-1.8-5.85-1.5-8.069-2.078-8.937-2.349a14.542,14.542,0,0,1-3.349,5.857" transform="translate(-704.273 -256.16)" fill="#251823"/>
        <path id="Trazado_823613" data-name="Trazado 823613" d="M964.813,354.519c.64,2.237-.129,5.243-1.4,6.4,1.437.679,14.3,5.83,15.175,6.065a16.282,16.282,0,0,0,6.177-2.559,3.059,3.059,0,0,0,1.446-1.624,2.866,2.866,0,0,0-.826-2.4,13.684,13.684,0,0,0-6.54-4.139,40.8,40.8,0,0,0-7.71-1.4c-1.9-.22-4.75-1.208-6.323-.342" transform="translate(-785.97 -288.939)" fill="#251823"/>
        <path id="Trazado_823614" data-name="Trazado 823614" d="M997.514,333.188c-.574-.207-22.11-6.987-25.988-7.788-4.382-.905-6.011,1.778-6.136,3.917-.431,7.367,23.58,11.1,26.216,12.216,3.339-2.568,5.9-7.527,5.908-8.344" transform="translate(-787.578 -265.321)" fill="#fff"/>
        <path id="Trazado_823615" data-name="Trazado 823615" d="M968.515,475.868a5.366,5.366,0,0,1-4.049-1.767,4.643,4.643,0,0,1-.281-5.668.411.411,0,1,1,.654.5,3.8,3.8,0,0,0,.249,4.633,4.655,4.655,0,0,0,4.672,1.319.411.411,0,0,1,.214.794,5.617,5.617,0,0,1-1.459.192" transform="translate(-785.919 -382.025)" fill="#047ed0"/>
        <path id="Trazado_823616" data-name="Trazado 823616" d="M1105.984,363.718c-2.977.339-5.484,2.536-6.973,5.136a28.85,28.85,0,0,0-2.745,8.517c-1.224,5.807-2.369,12.2.5,17.4,3.373,6.1,15.81,15.9,29.118,15.391a21.982,21.982,0,0,0,12.087-3.969c2.29-1.666,4.312-3.962,4.8-6.75.875-4.945-3.147-9.295-6.945-12.58-9.4-8.132-19.534-15.425-29.849-23.143" transform="translate(-893.299 -296.729)" fill="#261924"/>
        <path id="Trazado_823617" data-name="Trazado 823617" d="M1482.4,522.844l-7.445,15.046-7.531,15.219-2.656,5.37-10.245,20.708-.062.125-46.017-.125,9.021-19.245,5.271-11.249,9.937-21.2,2.477-5.284Z" transform="translate(-1149.032 -426.029)" fill="url(#linear-gradient-3)"/>
        <path id="Trazado_823618" data-name="Trazado 823618" d="M1512.479,508.479a.411.411,0,0,1-.372-.586l3.831-8.172a5.716,5.716,0,0,1,5.156-3.277h7.789a.411.411,0,1,1,0,.822h-7.789a4.891,4.891,0,0,0-4.411,2.8l-3.831,8.172a.411.411,0,0,1-.372.236" transform="translate(-1233.573 -405.009)" fill="#fe3f15"/>
        <path id="Trazado_823619" data-name="Trazado 823619" d="M1390.537,802.287h-8.965a2.265,2.265,0,0,1-2.051-3.226l4.2-8.962a.411.411,0,0,1,.744.349l-4.2,8.962a1.443,1.443,0,0,0,1.307,2.055h8.965a.411.411,0,0,1,0,.822" transform="translate(-1125.263 -644.386)" fill="#fe3f15"/>
        <path id="Trazado_823620" data-name="Trazado 823620" d="M1629.916,808.379h-7.856a.411.411,0,1,1,0-.822h7.856a4.891,4.891,0,0,0,4.412-2.8l3.4-7.264a.411.411,0,1,1,.744.349l-3.4,7.264a5.717,5.717,0,0,1-5.156,3.277" transform="translate(-1322.972 -650.414)" fill="#fe3f15"/>
        <path id="Trazado_823621" data-name="Trazado 823621" d="M1792.313,507.606a.411.411,0,0,1-.372-.586l3.448-7.357a1.443,1.443,0,0,0-1.307-2.056h-9.051a.411.411,0,1,1,0-.822h9.051a2.265,2.265,0,0,1,2.051,3.226l-3.448,7.357a.411.411,0,0,1-.372.236" transform="translate(-1455.927 -405.288)" fill="#fe3f15"/>
        <path id="Trazado_823622" data-name="Trazado 823622" d="M1002.449,375.3c-9.023,6-16.135,11.135-24.578,16.2h0l-.805.481a10.134,10.134,0,0,1-5.912,1.658,5.291,5.291,0,0,1-4.68-3.916,5.774,5.774,0,0,1,1.767-5.329c2.083-1.89,29.449-17.09,29.449-17.09a6.474,6.474,0,0,1,3.449,2.449,6.352,6.352,0,0,1,.813,1.57,6.423,6.423,0,0,1,.366,2.492,2.733,2.733,0,0,0,.134,1.487" transform="translate(-788.374 -299.654)" fill="#fff"/>
        <path id="Trazado_823623" data-name="Trazado 823623" d="M793.815,276.038c-1.353-.534-10.418-3.185-15.288-4.431a2.756,2.756,0,0,0-3.444,2.765c.221,5.422,7,9.6,13.544,11.285a3.7,3.7,0,0,0,2.767-.478,5.7,5.7,0,0,0,1.942-2.4,8.1,8.1,0,0,0,.479-6.742" transform="translate(-632.326 -221.512)" fill="#fff"/>
        <path id="Trazado_823624" data-name="Trazado 823624" d="M375.618,921H357.842a.411.411,0,0,1-.411-.411v-3.841a3.559,3.559,0,0,1,3.555-3.555h11.488a3.559,3.559,0,0,1,3.555,3.555v3.841a.411.411,0,0,1-.411.411m-17.365-.822h16.954v-3.43a2.736,2.736,0,0,0-2.733-2.733H360.986a2.736,2.736,0,0,0-2.733,2.733Z" transform="translate(-291.599 -744.999)" fill="#261924"/>
        <path id="Trazado_823625" data-name="Trazado 823625" d="M507.122,921H489.346a.411.411,0,0,1-.411-.411v-3.841a3.559,3.559,0,0,1,3.555-3.555h11.488a3.559,3.559,0,0,1,3.555,3.555v3.841a.411.411,0,0,1-.411.411m-17.365-.822h16.954v-3.43a2.736,2.736,0,0,0-2.733-2.733H492.49a2.736,2.736,0,0,0-2.733,2.733Z" transform="translate(-398.882 -744.999)" fill="#261924"/>
        <path id="Trazado_823626" data-name="Trazado 823626" d="M638.626,921H620.85a.411.411,0,0,1-.411-.411v-3.841a3.559,3.559,0,0,1,3.555-3.555h11.488a3.559,3.559,0,0,1,3.555,3.555v3.841a.411.411,0,0,1-.411.411m-17.365-.822h16.954v-3.43a2.736,2.736,0,0,0-2.733-2.733H623.994a2.736,2.736,0,0,0-2.733,2.733Z" transform="translate(-506.166 -744.999)" fill="#fff"/>
        <path id="Trazado_823627" data-name="Trazado 823627" d="M620.85,921a.411.411,0,0,1-.411-.411v-3.478a3.922,3.922,0,0,1,3.917-3.918h5.724a.411.411,0,0,1,0,.822h-5.724a3.1,3.1,0,0,0-3.1,3.1v3.478a.411.411,0,0,1-.411.411" transform="translate(-506.166 -744.999)" fill="#261924"/>
        <path id="Trazado_823628" data-name="Trazado 823628" d="M775.8,931.917H758.021a.411.411,0,0,1-.4-.485l.179-.977a3.757,3.757,0,0,1,3.572-3.88h11.454a3.761,3.761,0,0,1,3.572,3.918.411.411,0,0,1-.007.074l-.185,1.013a.411.411,0,0,1-.4.337m-17.283-.822h16.94l.117-.638a2.937,2.937,0,0,0-2.75-3.059H761.367a2.942,2.942,0,0,0-2.75,3.1.412.412,0,0,1-.007.074Z" transform="translate(-618.073 -755.918)" fill="#fff"/>
        <path id="Trazado_823629" data-name="Trazado 823629" d="M910.512,921H892.736a.411.411,0,0,1-.411-.411v-3.841a3.559,3.559,0,0,1,3.555-3.555h11.488a3.559,3.559,0,0,1,3.555,3.555v3.841a.411.411,0,0,1-.411.411m-17.365-.822H910.1v-3.43a2.736,2.736,0,0,0-2.733-2.733H895.88a2.736,2.736,0,0,0-2.733,2.733Z" transform="translate(-727.975 -744.999)" fill="#fff"/>
        <path id="Trazado_823630" data-name="Trazado 823630" d="M1057.29,921h-17.776a.411.411,0,0,1-.411-.411v-3.841a3.559,3.559,0,0,1,3.555-3.555h11.488a3.559,3.559,0,0,1,3.555,3.555v3.841a.411.411,0,0,1-.411.411m-17.365-.822h16.954v-3.43a2.736,2.736,0,0,0-2.733-2.733h-11.488a2.736,2.736,0,0,0-2.733,2.733Z" transform="translate(-847.72 -744.999)" fill="#fff"/>
        <path id="Trazado_823631" data-name="Trazado 823631" d="M1231.247,921h-53a.411.411,0,0,1-.411-.411v-3.478a3.761,3.761,0,0,1,3.572-3.918h46.675a3.761,3.761,0,0,1,3.572,3.918v3.478a.411.411,0,0,1-.411.411m-52.585-.822h52.174v-3.067a2.941,2.941,0,0,0-2.75-3.1h-46.675a2.941,2.941,0,0,0-2.75,3.1Z" transform="translate(-960.904 -744.999)" fill="#fff"/>
        <path id="Trazado_823632" data-name="Trazado 823632" d="M623.3,107.55a15.22,15.22,0,0,1-4.751-.746c-7.137-2.331-12.077-9.874-13.908-21.24-1.816-11.269-.365-24.98,4.086-38.605s11.372-25.551,19.49-33.575c8.187-8.093,16.626-11.266,23.763-8.934s12.077,9.874,13.908,21.24c1.816,11.269.365,24.98-4.086,38.605s-11.373,25.551-19.49,33.575c-6.433,6.359-13.022,9.68-19.013,9.68M647.23,4.526c-5.771,0-12.16,3.241-18.434,9.443C620.77,21.9,613.921,33.71,609.51,47.214s-5.851,27.077-4.056,38.219c1.78,11.046,6.522,18.358,13.352,20.589a14.36,14.36,0,0,0,4.48.7c13.485,0,29.587-17.732,37.737-42.686,4.411-13.5,5.851-27.077,4.056-38.219-1.78-11.046-6.522-18.358-13.352-20.589a14.415,14.415,0,0,0-4.5-.705" transform="translate(-492.656 -3.022)" fill="#7dc5f5"/>
        <path id="Trazado_823633" data-name="Trazado 823633" d="M884.762,167.372h-.028a.411.411,0,0,1-.382-.438,43.212,43.212,0,0,0-1.046-13.622.411.411,0,1,1,.795-.209,44.027,44.027,0,0,1,1.071,13.887.411.411,0,0,1-.41.383" transform="translate(-720.606 -124.654)" fill="#047ed0"/>
        <path id="Trazado_823634" data-name="Trazado 823634" d="M683.858,433.21a10.676,10.676,0,0,1-3.329-.519,12.317,12.317,0,0,1-6.725-5.771.411.411,0,1,1,.707-.419,11.523,11.523,0,0,0,6.274,5.409c5.726,1.87,12.947-1.831,19.317-9.9a.411.411,0,1,1,.645.509,32.747,32.747,0,0,1-10.062,8.858,14.843,14.843,0,0,1-6.826,1.835" transform="translate(-549.655 -344.155)" fill="#fff"/>
        <path id="Trazado_823635" data-name="Trazado 823635" d="M686.891,182.861a8.91,8.91,0,0,1-2.78-.437c-4.161-1.36-7.037-5.737-8.1-12.325-1.046-6.492-.211-14.387,2.352-22.232s6.547-14.709,11.224-19.332c4.745-4.691,9.651-6.526,13.811-5.166s7.036,5.735,8.1,12.324c1.046,6.492.211,14.387-2.35,22.231s-6.549,14.709-11.226,19.332c-3.725,3.682-7.547,5.6-11.031,5.6m13.727-59.106c-3.263,0-6.886,1.842-10.451,5.366-4.585,4.532-8.5,11.281-11.02,19-5.178,15.85-2.836,30.888,5.22,33.52s18.822-8.124,24-23.974,2.834-30.887-5.222-33.518a8.1,8.1,0,0,0-2.527-.4" transform="translate(-551.146 -100.292)" fill="#7dc5f5"/>
        <path id="Trazado_823636" data-name="Trazado 823636" d="M1723.981,279a.763.763,0,0,1-.6-.232c-.379-.417-.094-1.08.272-1.735.05-.09.11-.194.176-.308.841-1.452.92-1.91.838-2.038-.067-.055-.845-.461-6.49,3.069-1.866,1.167-3.036,1.453-3.68.9-1.083-.931-.014-3.671,1.614-7.44.315-.73.614-1.42.833-1.985.241-.622.271-1.062.078-1.177-.6-.359-2.99.423-6.983,2.977a42.793,42.793,0,0,0-8.335,6.721.411.411,0,0,1-.624-.535,43.656,43.656,0,0,1,8.517-6.878c2.832-1.812,6.492-3.8,7.848-2.99.6.358.688,1.091.266,2.18-.225.58-.526,1.277-.844,2.014-.889,2.056-2.542,5.882-1.833,6.491.081.07.593.351,2.709-.972,5.636-3.525,6.935-3.506,7.5-2.961.679.656-.118,2.034-.7,3.039-.063.109-.121.209-.17.3a3.077,3.077,0,0,0-.333.752,15.31,15.31,0,0,0,2.973-1.123c3.684-1.617,9.253-4.061,13.851-2.663a.411.411,0,0,1-.239.786c-4.307-1.309-9.708,1.061-13.281,2.629a11.377,11.377,0,0,1-3.357,1.186" transform="translate(-1387.69 -217.955)" fill="#fff"/>
        <path id="Trazado_823637" data-name="Trazado 823637" d="M452.851,961.382H168.325a.411.411,0,0,1-.367-.595l1.83-3.66a10.827,10.827,0,0,1,9.736-6.017H452.851a5.136,5.136,0,1,1,0,10.272M168.99,960.56H452.851a4.314,4.314,0,0,0,0-8.628H179.524a10.009,10.009,0,0,0-9,5.563Z" transform="translate(-136.988 -775.934)" fill="#261924"/>
        <path id="Trazado_823638" data-name="Trazado 823638" d="M794.166,287.961a.412.412,0,0,1-.118-.017c-6.335-1.893-18.433-5.5-18.872-5.6a.414.414,0,0,1-.313-.488.408.408,0,0,1,.48-.317c.416.084,17.045,5.051,18.94,5.617a.411.411,0,0,1-.118.8" transform="translate(-632.14 -229.679)" fill="#160f16"/>
        <path id="Trazado_823639" data-name="Trazado 823639" d="M413.564,324.886c.018.008.035.019.053.027l-.06.012Z" transform="translate(-337.388 -265.049)" fill="#ff94bd"/>
        <path id="Trazado_823640" data-name="Trazado 823640" d="M440.993,371.44l2.51,1.121c-.758,2-4.835,5.908-7.567,6.254-.548,1.259-.788,4.047-4.2,6.146-1.929,1.187-5.383,9.171-7.322,3.46-1.586-4.669-.68-8.875,1.738-13.174a17.852,17.852,0,0,1,11.535-8.558c2.248-.5,4.789-.493,6.634.885a4.469,4.469,0,0,1,1.329,1.672q-2.308,1.088-4.657,2.194" transform="translate(-345.599 -298.905)" fill="#261924"/>
        <path id="Trazado_823641" data-name="Trazado 823641" d="M134.859,219.971a11.055,11.055,0,0,1-2.607,7.106,35.34,35.34,0,0,1-6.936,6.5c-.222.164-.45.331-.682.5-.187.136-.376.271-.565.4-7.336,5.2-15.438,9.158-24.019,13.209q-2.308,1.088-4.657,2.194-1.676.789-3.369,1.6-.881,2.015-1.878,3.979-.234.471-.481.937c-.074.144-.15.288-.226.429q-1.06,2-2.239,3.951-.65,1.072-1.333,2.128-.154.24-.314.48-1.538,2.348-3.244,4.61c-.3.4-.6.793-.91,1.185a94.832,94.832,0,0,1-9.115,10.076,16.1,16.1,0,0,1,6.944.409,7.329,7.329,0,0,0,5.539-.559,15.565,15.565,0,0,1,9.725-1.666c.2.033.4.07.608.111a14.128,14.128,0,0,1,1.52.4q.148.046.3.1c.382.134.76.283,1.13.45.086.037.173.078.257.119.14.066.277.134.415.205.074.037.148.076.22.115a13.894,13.894,0,0,1,1.309.8c.088.059.177.121.263.185s.173.128.259.193c.045.033.088.068.133.1.062.047.123.094.185.146q.481.385.941.824c.066.062.129.123.193.187.092.093.185.185.273.28s.156.162.232.244.152.169.228.255.15.173.224.261a2.016,2.016,0,0,1-1.428,3.322q-.324.012-.647.031l-.4.024c-.2.012-.39.027-.585.041a43.813,43.813,0,0,0-13.7,3.227,54.565,54.565,0,0,0-15.13,9.789A12.892,12.892,0,0,1,60.8,302.072a77.315,77.315,0,0,1-9.043-2.4,36.419,36.419,0,0,0-7.432-1.233,50.647,50.647,0,0,0-5.781-.051,81.321,81.321,0,0,0-21.564,4.261.346.346,0,0,1-.359-.569c24.3-25.476-30.813-14.031-13.014-34.129l19.015-4.084,1.15-.247a100.357,100.357,0,0,0,8.25-7.182,101.366,101.366,0,0,0,10.83-12.363c1.631-2.2,3.215-4.509,5.444-6.1a11.045,11.045,0,0,1,8.067-1.849,10.7,10.7,0,0,1,1.59-.894s0,0,0,0a15.1,15.1,0,0,1,8.6-.914c.129.021.257.043.382.066a31.851,31.851,0,0,1,4.413,1.179c.035.01.07.022.1.035,1.422.477,2.827,1.009,4.238,1.5.08.027.158.055.238.082.238.082.479.164.719.244-.142-.072-.283-.14-.423-.212,18.625-3.63,37.818-9.639,54.629-19.459a2.655,2.655,0,0,1,4,2.221" transform="translate(0 -177.345)" fill="#ffd945"/>
        <path id="Trazado_823642" data-name="Trazado 823642" d="M363.5,328.318a.411.411,0,0,1-.278-.714,45.512,45.512,0,0,1,9.289-6.584.411.411,0,0,1,.388.725,44.713,44.713,0,0,0-9.122,6.465.409.409,0,0,1-.278.108" transform="translate(-296.211 -261.855)" fill="#261924"/>
        <path id="Trazado_823643" data-name="Trazado 823643" d="M283.478,317.237a.411.411,0,0,1-.3-.692,25.31,25.31,0,0,1,5.5-4.436.411.411,0,1,1,.421.706,24.5,24.5,0,0,0-5.325,4.292.409.409,0,0,1-.3.13" transform="translate(-230.932 -254.578)" fill="#261924"/>
        <path id="Trazado_823644" data-name="Trazado 823644" d="M120.037,449.922a3.974,3.974,0,0,1-1.6-.372.411.411,0,0,1,.333-.752,2.419,2.419,0,0,0,3.29-.913c2.439-3.449,2.575-13.731.332-25-2.573-12.924-7.388-23.875-13.21-30.046-2.848-3.018-5.338-4.308-7.2-3.734-1.916.592-2.788,3.019-3,4.36a.411.411,0,1,1-.812-.129c.3-1.9,1.418-4.352,3.571-5.016,2.216-.684,4.922.646,8.044,3.955,5.925,6.28,10.816,17.378,13.418,30.45,2.321,11.659,2.133,21.962-.467,25.639a3.251,3.251,0,0,1-2.689,1.562" transform="translate(-80.077 -316.655)" fill="#fe3f15"/>
        <path id="Trazado_823645" data-name="Trazado 823645" d="M184.783,470.516a.411.411,0,0,1-.411-.411c0-11.949-4.257-30.568-12.129-41.538a.411.411,0,1,1,.668-.479c7.972,11.11,12.279,29.94,12.283,42.017a.411.411,0,0,1-.411.411Z" transform="translate(-140.456 -349.104)" fill="#fff"/>
        <path id="Trazado_823646" data-name="Trazado 823646" d="M416.043,558.823a.411.411,0,0,1-.239-.745,46.832,46.832,0,0,1,25.052-8.567,1.557,1.557,0,0,0,1.384-.939,1.513,1.513,0,0,0-.217-1.611,13.768,13.768,0,0,0-8.516-4.929.411.411,0,0,1,.13-.812,14.58,14.58,0,0,1,9.019,5.216,2.349,2.349,0,0,1,.334,2.47,2.394,2.394,0,0,1-2.1,1.426,46,46,0,0,0-24.608,8.414.41.41,0,0,1-.239.077" transform="translate(-339.08 -441.534)" fill="#261924"/>
        <path id="Trazado_823647" data-name="Trazado 823647" d="M390.645,289.639a.411.411,0,0,1-.285-.707,94.749,94.749,0,0,0,9.076-10.033c.3-.379.6-.776.906-1.18,1.126-1.492,2.212-3.036,3.229-4.588.107-.161.211-.319.312-.477.436-.671.87-1.364,1.328-2.12.787-1.3,1.537-2.624,2.228-3.93.076-.142.151-.283.224-.425.163-.309.323-.621.478-.932.649-1.276,1.277-2.608,1.869-3.961a.411.411,0,0,1,.2-.206q1.7-.811,3.371-1.6,1.452-.686,2.891-1.362l1.766-.832c8.8-4.155,16.678-8.014,23.957-13.173.19-.135.378-.27.562-.4.23-.167.457-.333.678-.5,8.064-6.014,9.183-10.049,9.214-13.2a.411.411,0,1,1,.822.008c-.033,3.354-1.193,7.623-9.545,13.853q-.336.249-.686.5c-.187.135-.376.271-.569.407-7.333,5.2-15.244,9.074-24.081,13.246l-1.767.832q-1.437.677-2.89,1.362-1.608.757-3.229,1.529c-.58,1.319-1.194,2.618-1.827,3.861-.156.314-.32.633-.484.943-.073.142-.15.288-.227.432-.7,1.317-1.454,2.653-2.25,3.969-.462.763-.9,1.463-1.34,2.14-.1.16-.209.322-.317.485-1.025,1.565-2.121,3.124-3.258,4.629-.306.408-.614.809-.915,1.192a95.56,95.56,0,0,1-9.154,10.119.41.41,0,0,1-.285.115" transform="translate(-318.36 -187.32)" fill="#261924"/>
        <path id="Trazado_823648" data-name="Trazado 823648" d="M260.411,310.5a.411.411,0,0,1-.239-.745,11.52,11.52,0,0,1,8.213-1.948,14.537,14.537,0,0,1,10.352-1.783,34.716,34.716,0,0,1,6.659,1.9c.769.279,1.564.567,2.424.856.048-.012.1-.023.153-.035.167-.037.414-.089.735-.157.82-.174,2.192-.465,3.944-.86a.411.411,0,0,1,.181.8c-1.758.4-3.133.688-3.955.862-.448.1-.809.171-.914.2a.411.411,0,0,1-.286.01c-.917-.305-1.754-.609-2.564-.9a33.588,33.588,0,0,0-6.51-1.862,13.65,13.65,0,0,0-9.9,1.744.413.413,0,0,1-.3.065,10.651,10.651,0,0,0-7.757,1.779.409.409,0,0,1-.239.077" transform="translate(-212.113 -249.461)" fill="#261924"/>
        <path id="Trazado_823649" data-name="Trazado 823649" d="M44.417,468.478a15.524,15.524,0,0,1-7.127-2.351.411.411,0,1,1,.4-.718c4.118,2.286,7.174,2.836,9.081,1.635,1.691-1.065,2.467-3.583,2.244-7.28-.737-12.21-12.767-36.072-26.2-42.42-3.041-1.438-5.345-1.366-6.846.212-2.395,2.517-2.062,8.047-.971,10.086a.411.411,0,0,1-.725.388c-1.162-2.172-1.638-8.162,1.1-11.04,1.219-1.281,3.561-2.389,7.793-.388,6.186,2.924,12.614,9.711,18.1,19.11,4.9,8.392,8.18,17.589,8.568,24,.243,4.015-.665,6.79-2.626,8.025a5.128,5.128,0,0,1-2.79.739" transform="translate(-10.892 -338.977)" fill="#261924"/>
        <path id="Trazado_823650" data-name="Trazado 823650" d="M1690.967,347.958a.411.411,0,0,1,0-.822l49.1-.358h0a.411.411,0,0,1,0,.822l-49.1.358Z" transform="translate(-1379.187 -282.91)" fill="#fff"/>
        <path id="Trazado_823651" data-name="Trazado 823651" d="M1435.459,540.7,1415.026,582h-9.916l-27.142-19.245L1375,560.645l-14.964-10.611.129-.22a17.073,17.073,0,0,0,8.48-5.557h0a25.99,25.99,0,0,0,2.673-3.6c.372-.6.715-1.208,1.029-1.816,2.465-4.774,3.131-9.668,1.962-13.061l.076-.129,5.955,1.473,12.838,3.176,4.828,1.2,4.589,1.136Z" transform="translate(-1109.54 -428.841)" fill="#261924"/>
        <path id="Trazado_823652" data-name="Trazado 823652" d="M1427.927,638.317l-2.656,5.37L1415.026,664.4h-9.916l-27.142-19.245-17.937-12.718.13-.22a17.069,17.069,0,0,0,8.48-5.557h0c.208.082.4.17.594.265q7,3.492,14,6.981,3.122,1.559,6.245,3.114a29.669,29.669,0,0,0,6.786,2.71,9.97,9.97,0,0,0,7.112-.824c2.1-1.228,3.579-3.476,5.884-4.263a10.388,10.388,0,0,1,5.573.185c3.558.8,8.557,2.172,12.934,3.449l.154.045" transform="translate(-1109.539 -511.238)" fill="#dedbe6"/>
        <path id="Trazado_823653" data-name="Trazado 823653" d="M1628.054,686.083l-12.9,26.078-9.813.125L1625,685.2Z" transform="translate(-1309.666 -559.004)" fill="#047ed0"/>
        <path id="Trazado_823654" data-name="Trazado 823654" d="M1487.508,735.338h-16.014l-8.437-6.036-.953-.676-7.776-5.512-.836-.594-12.215-8.661c1.282-.575,3.369-.5,5.9.029,0,0,0,0,.006,0,.984.2,2.034.47,3.131.8a76.96,76.96,0,0,1,8.692,3.25c.45.2.9.4,1.346.6a87.124,87.124,0,0,1,12.045,6.553c3.464,2.352,8.743,5.824,12.069,8,.489.319.935.61,1.325.867a10.234,10.234,0,0,1,1.715,1.374" transform="translate(-1175.821 -582.056)" fill="#261924"/>
        <path id="Trazado_823655" data-name="Trazado 823655" d="M1023.394,605.445c-.033.092-4.25,6.462-4.513,6.756-.555-.189-.756-1.6-1.046-2.107a21.822,21.822,0,0,1-1.748-3.852,5.293,5.293,0,0,1-.366-2.085l7.036.117a6.676,6.676,0,0,0,.637,1.171" transform="translate(-828.637 -492.884)" fill="#261924"/>
        <path id="Trazado_823656" data-name="Trazado 823656" d="M1452.547,531.5l4.589,1.136c-1.017,4.2-4.532,7.527-8.591,9.021a22.2,22.2,0,0,1-12.786.329,55.448,55.448,0,0,1-8.871-3.139c2.465-4.774,3.131-9.668,1.962-13.061l.076-.129,5.955,1.473Z" transform="translate(-1164.082 -428.841)" fill="#dedbe6"/>
        <path id="Trazado_823657" data-name="Trazado 823657" d="M1083.783,607.338c-.3-.664-.645-1.329-.962-1.884l-8.69-.148c-.507.924-.664,2.531-1.1,3.39a12.477,12.477,0,0,0-1.1,6.237c.507,1.5,6.173-4.813,7.62-6.582a18.619,18.619,0,0,0,2.929,1.81Z" transform="translate(-874.474 -493.821)" fill="#261924"/>
        <path id="Trazado_823658" data-name="Trazado 823658" d="M734.8,228.383c2.215-6.783,6.842-11.356,10.334-10.216s4.527,7.564,2.312,14.346-6.842,11.356-10.334,10.216-4.527-7.564-2.312-14.346" transform="translate(-598.512 -177.844)" fill="url(#linear-gradient-3)"/>
        <path id="Trazado_823659" data-name="Trazado 823659" d="M1470.288,533.654a9.4,9.4,0,0,0,17.665,4.372Z" transform="translate(-1199.488 -435.366)" fill="#261924"/>
        <path id="Trazado_823660" data-name="Trazado 823660" d="M970.919,466.86q0,7.071-.005,14.141a12.893,12.893,0,0,0,.2,3.406,15.921,15.921,0,0,0,1.467,2.633c1.9,3.284,3.341,5.753,5.453,8.929a2.565,2.565,0,0,0,4.43-.261c1.55-3.18-.686-7.047-2.165-12.5.049-.566.785-2.514,1.14-3.847.619,1.79,4.227,14.414,5.056,16.9a2.72,2.72,0,0,0,4.307,1.259,8.091,8.091,0,0,0,2.641-5.165c.462-3.358-.341-10.419-1.4-12.992,1.77,2.6,6.9,10.783,9.636,14.388,1.017,1.341,3.644,1.426,4.759-2.256,1.289-4.258-1.736-9.831-3.087-13.263-3.351-8.512-8.819-13.307-17.612-15.826a13.4,13.4,0,0,0-7.208-.4,17.177,17.177,0,0,0-5.036,2.715c-.969.672-1.276,1.2-2.577,2.137" transform="translate(-792.076 -376.641)" fill="#fff"/>
        <path id="Trazado_823661" data-name="Trazado 823661" d="M1505.095,737.118a.408.408,0,0,1-.111.08.387.387,0,0,1-.183.045.406.406,0,0,1-.368-.228,18.927,18.927,0,0,0-1.134-1.995,10.913,10.913,0,0,0-.733-.98c-1.6-1.911-4-3.318-8.368-3.318q-.619,0-1.3.039a31.59,31.59,0,0,0-3.675.446l-.137.025c-3.474.625-5.917.306-7.468-.974-1.818-1.5-1.933-3.953-1.96-5.832,0-.088,0-.175,0-.261,0-.243-.006-.475-.012-.69-.086-2.661-2.065-6.052-6.29-7.679.984.2,2.034.471,3.131.8a9.049,9.049,0,0,1,3.981,6.856c.006.222.01.458.012.706,0,.275.008.565.018.865.053,1.609.288,3.484,1.646,4.606,1.239,1.021,3.3,1.325,6.13.906.22-.031.444-.068.672-.109,1.109-.2,2.139-.337,3.1-.419h0q.591-.052,1.146-.074c5.921-.251,8.784,1.8,10.586,4.341h0q.323.459.606.935c.283.475.54.959.783,1.442a.408.408,0,0,1-.072.471" transform="translate(-1201.991 -583.961)" fill="#fff"/>
        <path id="Trazado_823662" data-name="Trazado 823662" d="M1560.568,753.581c-1.193-.1-2.486-.241-3.817-.45q-.539-.083-1.085-.185a25.83,25.83,0,0,1-8.464-2.9,15.351,15.351,0,0,1-1.933-1.356c-.3-.242-.586-.5-.859-.758h0a28.868,28.868,0,0,1-5.124-7.213c-.587-1.052-1.146-2.048-1.74-2.948.45.2.9.4,1.346.6.37.62.735,1.272,1.111,1.943a26.2,26.2,0,0,0,5.555,7.541c.32.275.655.54,1.009.793q.505.36,1.056.688a23.9,23.9,0,0,0,7.312,2.629q.607.129,1.212.23c1.687.294,3.334.473,4.816.592Z" transform="translate(-1254.358 -601.887)" fill="#047ed0"/>
        <path id="Trazado_823663" data-name="Trazado 823663" d="M856.174,295.884a3.821,3.821,0,0,1,2.242.467c1.445,2.278-1.231,8.3-4.189,10.237-.536-.305-1.89-.58-2.709-.9a12.072,12.072,0,0,0,4.656-9.8" transform="translate(-694.684 -241.358)" fill="#20151f"/>
        <path id="Trazado_823664" data-name="Trazado 823664" d="M1199.794,404.671a30,30,0,0,1-13.057,11.626,70,70,0,0,1-14.9-11.139c-1.51-1.481-3.022-3.168-3.341-5.257-.372-2.453.976-4.791,1.676-7.172a14.11,14.11,0,0,0,.46-2.206c.021-.167.039-.331.053-.5,0,0,0-.008,0-.012q.04-.428.055-.857a20.652,20.652,0,0,0-3.472-11.6c-2.854-4.477-7.317-8.037-11.765-11.8,4.974,2.687,23.958,12.727,36.081,19.274q1.291.7,2.473,1.337c9.434,5.1,5.982,3.316,7.445,6.274,1.871,3.792.485,8.415-1.707,12.032" transform="translate(-942.68 -298.39)" fill="#fff"/>
        <path id="Trazado_823665" data-name="Trazado 823665" d="M1184.916,414.887a.412.412,0,0,1-.2-.052,70.416,70.416,0,0,1-14.991-11.2c-1.6-1.571-3.129-3.323-3.459-5.489a10.981,10.981,0,0,1,1.026-5.429c.233-.631.475-1.283.662-1.92a13.774,13.774,0,0,0,.447-2.142c.02-.161.038-.32.052-.481h0a.24.24,0,0,1,0-.028c.025-.269.043-.546.053-.821a20.21,20.21,0,0,0-3.408-11.363c-2.567-4.027-6.421-7.275-10.5-10.713q-.59-.5-1.183-1a.411.411,0,0,1,.461-.675c1.953,1.055,5.982,3.2,11.084,5.914,7.858,4.181,17.636,9.385,25,13.36l2.107,1.139.366.2c6.965,3.765,7.1,3.859,7.2,5.019a3.483,3.483,0,0,0,.419,1.434c1.656,3.356,1.028,7.886-1.724,12.427h0a30.414,30.414,0,0,1-13.238,11.786.411.411,0,0,1-.171.037m-15.646-26.632c-.015.167-.033.332-.054.5a14.613,14.613,0,0,1-.474,2.271c-.2.665-.442,1.33-.681,1.974a10.226,10.226,0,0,0-.984,5.021c.308,2.023,1.825,3.655,3.222,5.025a69.575,69.575,0,0,0,14.634,10.971,29.6,29.6,0,0,0,12.688-11.378c1.232-2.033,3.862-7.236,1.69-11.637a4.308,4.308,0,0,1-.5-1.728c-.058-.67-.064-.741-6.771-4.366l-.366-.2-2.107-1.14c-7.358-3.974-17.135-9.177-24.992-13.357-2.983-1.587-5.6-2.979-7.648-4.073,3.448,2.941,6.618,5.851,8.866,9.378a21.036,21.036,0,0,1,3.536,11.835c-.011.3-.03.591-.057.88h0c0,.008,0,.016,0,.023" transform="translate(-940.86 -296.569)" fill="#261924"/>
        <path id="Trazado_823666" data-name="Trazado 823666" d="M1250.73,521.729a29.556,29.556,0,0,1-6.473,4.053,69.99,69.99,0,0,1-14.9-11.139c-1.51-1.481-3.262-3.145-3.34-5.257-.111-2.991,2.225-5.935,2.547-9.429a9.723,9.723,0,0,0,1.339,6.1,25.176,25.176,0,0,0,5.288,5.4,71.262,71.262,0,0,0,15.543,10.276" transform="translate(-1000.201 -407.875)" fill="#dedbe6"/>
        <path id="Trazado_823667" data-name="Trazado 823667" d="M1303.829,490.043a29.96,29.96,0,0,1-13.057,11.625,70.073,70.073,0,0,1-7.747-5.014,35.683,35.683,0,0,0,6.274-2.718,21.558,21.558,0,0,0,9.189-9.388,12,12,0,0,0,1.011-7.885,14.568,14.568,0,0,0-3.88-6.263q1.291.7,2.473,1.337c9.433,5.1,5.982,3.316,7.445,6.274,1.872,3.792.485,8.415-1.707,12.032" transform="translate(-1046.716 -383.762)" fill="#9697f8"/>
        <path id="Trazado_823668" data-name="Trazado 823668" d="M1317.136,506.495c-5.217,8.094-12.8,12.527-17.043,9.828a5.412,5.412,0,0,1-2.067-2.549c4.372,1.413,11.352-2.8,15.917-10.356,3.088-5.114,5.378-11.354,1.569-16.833,6.642,4.367,6.313,12.634,1.623,19.911" transform="translate(-1058.955 -396.965)" fill="#fff"/>
        <path id="Trazado_823669" data-name="Trazado 823669" d="M1301.17,515.709a5.713,5.713,0,0,1-3.117-.86,5.8,5.8,0,0,1-2.225-2.737.411.411,0,0,1,.505-.55c4.36,1.409,11.141-3.061,15.439-10.177,4.059-6.72,4.576-12.08,1.584-16.386a.411.411,0,0,1,.563-.578,11.233,11.233,0,0,1,5.246,9.189,19.8,19.8,0,0,1-3.5,11.288c-4.305,6.679-10.07,10.812-14.491,10.812m-4.2-3.154a4.721,4.721,0,0,0,1.526,1.6c4,2.542,11.39-1.811,16.477-9.7,4.543-7.048,4.52-13.9.125-18.061,1.935,4.243,1.068,9.311-2.62,15.418a26.724,26.724,0,0,1-8.162,8.677c-2.656,1.689-5.225,2.406-7.346,2.069" transform="translate(-1057.134 -395.145)" fill="#261924"/>
        <path id="Trazado_823670" data-name="Trazado 823670" d="M1049.008,393.1c-9.023,6-16.135,11.134-24.578,16.2h0c-1.155-.949-1.9-3.211,1.224-5.791,1.792-1.477,18.59-11.775,22.857-14.386a6.428,6.428,0,0,1,.366,2.492,2.731,2.731,0,0,0,.134,1.487" transform="translate(-834.933 -317.454)" fill="#261924"/>
        <path id="Trazado_823671" data-name="Trazado 823671" d="M1049.19,409.6c-2.334,1.378-13.464,9.5-19.181,13.413-.756.518-1.415.959-1.95,1.3-3.346,2.159-10.222.732-9.7-5.243.329-3.766,5.777-6.561,12.049-11.116,4.363-3.166,11.533-7.716,14.3-9.725,3.815,1.036,4.847,4.884,4.959,7.071a9.925,9.925,0,0,1-.471,4.3" transform="translate(-830.77 -324.888)" fill="#fff"/>
        <path id="Trazado_823672" data-name="Trazado 823672" d="M1092.569,438.425c-2.334,1.378-13.464,9.5-19.181,13.413a2.414,2.414,0,0,1-1.752-1.477c-.561-1.642.708-3.115,2.034-4.013,2.186-1.48,18.763-12.353,19.324-12.782a10.468,10.468,0,0,1-.424,4.859" transform="translate(-874.15 -353.712)" fill="#261924"/>
        <path id="Trazado_823673" data-name="Trazado 823673" d="M1105.115,458.3c-2.036,1.206-8.62,5.551-13.542,8.581-1.465.9-2.782,1.683-3.788,2.233-2.313,1.266-6.083.848-7.687-1.187-1.639-2.079-1.412-5.2,2.457-8.238,1.514-1.188,15.823-11.774,16.735-12.441,3.476.062,5.421,2.97,6.07,6.054a9.306,9.306,0,0,1-.245,5" transform="translate(-880.378 -364.871)" fill="#fff"/>
        <path id="Trazado_823674" data-name="Trazado 823674" d="M987.218,529.947a.41.41,0,0,1-.353-.2c-.449-.755-4.4-7.389-4.589-7.809l-.028-.06-.007-.066c-.149-1.331-.076-4.844-.012-7.942.047-2.294.092-4.461.034-5.229a.411.411,0,1,1,.819-.062c.061.807.018,2.893-.032,5.307-.062,3.017-.132,6.429,0,7.762.318.595,2.838,4.851,4.521,7.679a.411.411,0,0,1-.353.621" transform="translate(-801.26 -414.598)" fill="#261924"/>
        <path id="Trazado_823675" data-name="Trazado 823675" d="M1025.864,549.606a.411.411,0,0,1-.4-.327c-.429-2.055-2.852-10.477-4.455-16.051-.615-2.138-1.1-3.827-1.284-4.5a.411.411,0,0,1,.793-.217c.181.663.666,2.35,1.281,4.485,1.607,5.585,4.035,14.026,4.47,16.11a.411.411,0,0,1-.318.486.419.419,0,0,1-.084.009" transform="translate(-831.898 -430.927)" fill="#261924"/>
        <path id="Trazado_823676" data-name="Trazado 823676" d="M1093.419,570.159a.41.41,0,0,1-.349-.194c-1.542-2.471-8.019-11.708-9.511-13.8a.411.411,0,0,1,.67-.477c1.5,2.1,7.988,11.361,9.539,13.846a.411.411,0,0,1-.348.628" transform="translate(-883.926 -453.198)" fill="#261924"/>
        <path id="Trazado_823677" data-name="Trazado 823677" d="M1150.216,485.112c-2.036,1.206-8.423,5.429-13.345,8.459a2.472,2.472,0,0,1-2.137-.854c-.776-1.015-.029-2.42,1.173-3.285.849-.612,11.872-7.58,14.553-9.318a9.3,9.3,0,0,1-.244,5" transform="translate(-925.479 -391.687)" fill="#3ece9b"/>
        <path id="Trazado_823678" data-name="Trazado 823678" d="M969.029,473.455a6.83,6.83,0,0,1-5.307-2.494,6.067,6.067,0,0,1-.523-6.556.411.411,0,1,1,.744.35,5.209,5.209,0,0,0,.423,5.7,6.022,6.022,0,0,0,5.866,2.057.411.411,0,0,1,.17.8,6.643,6.643,0,0,1-1.374.143" transform="translate(-785.216 -378.679)" fill="#047ed0"/>
        <path id="Trazado_823679" data-name="Trazado 823679" d="M1022.727,496.675a6.922,6.922,0,0,1-6.5-4.916c-.823-2.927.892-5.788,2.957-7.325a.411.411,0,1,1,.491.659c-1.84,1.369-3.375,3.892-2.657,6.443a6.071,6.071,0,0,0,5.825,4.315.418.418,0,0,1,.42.4.411.411,0,0,1-.4.42h-.132" transform="translate(-828.883 -395.145)" fill="#047ed0"/>
        <path id="Trazado_823680" data-name="Trazado 823680" d="M1377.219,304.531c-4.38,8.219-12.8,12.289-18.806,9.088a9.862,9.862,0,0,1-4.4-4.947c-1.853-4.3-1.465-10.247,1.457-15.73a19.932,19.932,0,0,1,9.692-9.226,10.619,10.619,0,0,1,9.113.136c6.005,3.2,7.324,12.457,2.942,20.679" transform="translate(-1103.71 -230.681)" fill="#047ed0"/>
        <path id="Trazado_823681" data-name="Trazado 823681" d="M1085.181,530.018a6.359,6.359,0,0,1-5.22-2.632,6.671,6.671,0,0,1-.008-7.273.411.411,0,1,1,.683.457,5.831,5.831,0,0,0,.007,6.357,5.579,5.579,0,0,0,6.054,2.052.411.411,0,0,1,.236.787,6.1,6.1,0,0,1-1.752.252" transform="translate(-880.17 -424.17)" fill="#047ed0"/>
        <path id="Trazado_823682" data-name="Trazado 823682" d="M984.632,473.6a1.877,1.877,0,1,1,1.876,1.932,1.9,1.9,0,0,1-1.876-1.932" transform="translate(-803.281 -384.796)" fill="#047ed0"/>
        <path id="Trazado_823683" data-name="Trazado 823683" d="M982.787,340.057a1.839,1.839,0,1,1,1.838,1.893,1.866,1.866,0,0,1-1.838-1.893" transform="translate(-801.776 -275.881)" fill="#047ed0"/>
        <path id="Trazado_823684" data-name="Trazado 823684" d="M1037.056,509.212a1.877,1.877,0,1,1,1.876,1.932,1.9,1.9,0,0,1-1.876-1.932" transform="translate(-846.05 -413.849)" fill="#047ed0"/>
        <path id="Trazado_823685" data-name="Trazado 823685" d="M1100.181,534.169a1.877,1.877,0,1,1,1.876,1.932,1.9,1.9,0,0,1-1.876-1.932" transform="translate(-897.548 -434.21)" fill="#047ed0"/>
        <path id="Trazado_823686" data-name="Trazado 823686" d="M1364.114,277.6l-14.124,29.574c-4.8-3.726-3.724-14.113-.8-19.6,2.383-4.47,11.073-11.261,14.927-9.978" transform="translate(-1098.658 -226.339)" fill="#261924"/>
        <path id="Trazado_823687" data-name="Trazado 823687" d="M1531.993,212.391a.411.411,0,0,1-.37-.588l20.107-41.961a.411.411,0,0,1,.36-.233l59.211-1.43a.411.411,0,0,1,.38.588l-20.107,41.961a.411.411,0,0,1-.361.233L1532,212.391h-.01m20.369-41.967-19.709,41.129,58.289-1.408,19.709-41.129Z" transform="translate(-1249.494 -137.203)" fill="#3ece9b"/>
        <path id="Trazado_823688" data-name="Trazado 823688" d="M1624.07,686.784a1.8,1.8,0,1,1,.824,2.734,2.053,2.053,0,0,1-.824-2.734" transform="translate(-1324.793 -559.004)" fill="#261924"/>
        <rect id="Rectángulo_377861" data-name="Rectángulo 377861" width="12.474" height="2.671" transform="translate(286.181 178.976)" fill="#261924"/>
        <rect id="Rectángulo_377862" data-name="Rectángulo 377862" width="3.385" height="2.671" transform="translate(301.781 178.976)" fill="#261924"/>
      </g>
    </g>
  </g>
</svg>
