<svg id="Grupo_1084096" data-name="Grupo 1084096" xmlns="http://www.w3.org/2000/svg" xmlns:xlink="http://www.w3.org/1999/xlink" width="290.204" height="201.646" viewBox="0 0 290.204 201.646">
  <defs>
    <clipPath id="clip-path">
      <rect id="Rectángulo_378128" data-name="Rectángulo 378128" width="290.204" height="201.646" fill="none"/>
    </clipPath>
    <linearGradient id="linear-gradient" x1="0.5" x2="0.5" y2="1" gradientUnits="objectBoundingBox">
      <stop offset="0" stop-color="#b31a8f"/>
      <stop offset="1" stop-color="#fe117e"/>
    </linearGradient>
  </defs>
  <path id="Trazado_824675" data-name="Trazado 824675" d="M427.991,1.143H612.68V144.537H427.991ZM426.848,145.68H613.823V0H426.848Z" transform="translate(-329.265)" fill="#cfd2d7"/>
  <g id="Grupo_1076005" data-name="Grupo 1076005">
    <g id="Grupo_1076004" data-name="Grupo 1076004" clip-path="url(#clip-path)">
      <path id="Trazado_824676" data-name="Trazado 824676" d="M613.093,91.462H427.421a.572.572,0,1,1,0-1.143H613.093a.572.572,0,0,1,0,1.143" transform="translate(-329.266 -69.671)" fill="#cfd2d7"/>
      <path id="Trazado_824677" data-name="Trazado 824677" d="M613.093,181.781H427.421a.572.572,0,1,1,0-1.143H613.093a.572.572,0,0,1,0,1.143" transform="translate(-329.266 -139.342)" fill="#cfd2d7"/>
      <path id="Trazado_824678" data-name="Trazado 824678" d="M613.093,272.1H427.421a.572.572,0,1,1,0-1.143H613.093a.572.572,0,1,1,0,1.143" transform="translate(-329.266 -209.012)" fill="#cfd2d7"/>
      <path id="Trazado_824679" data-name="Trazado 824679" d="M613.093,362.418H427.421a.572.572,0,1,1,0-1.143H613.093a.572.572,0,0,1,0,1.143" transform="translate(-329.266 -278.683)" fill="#cfd2d7"/>
      <path id="Trazado_824680" data-name="Trazado 824680" d="M613.093,452.736H427.421a.572.572,0,1,1,0-1.143H613.093a.572.572,0,1,1,0,1.143" transform="translate(-329.266 -348.353)" fill="#cfd2d7"/>
      <path id="Trazado_824681" data-name="Trazado 824681" d="M613.093,543.055H427.421a.572.572,0,1,1,0-1.143H613.093a.572.572,0,1,1,0,1.143" transform="translate(-329.266 -418.024)" fill="#cfd2d7"/>
      <path id="Trazado_824682" data-name="Trazado 824682" d="M517.739,145.277a.571.571,0,0,1-.572-.572V.572a.572.572,0,1,1,1.143,0V144.706a.571.571,0,0,1-.572.572" transform="translate(-398.936)" fill="#cfd2d7"/>
      <path id="Trazado_824683" data-name="Trazado 824683" d="M608.057,145.277a.571.571,0,0,1-.572-.572V.572a.572.572,0,1,1,1.143,0V144.706a.571.571,0,0,1-.572.572" transform="translate(-468.606)" fill="#cfd2d7"/>
      <path id="Trazado_824684" data-name="Trazado 824684" d="M698.375,145.277a.571.571,0,0,1-.572-.572V.572a.572.572,0,0,1,1.143,0V144.706a.571.571,0,0,1-.572.572" transform="translate(-538.277)" fill="#cfd2d7"/>
      <path id="Trazado_824685" data-name="Trazado 824685" d="M788.694,145.277a.571.571,0,0,1-.572-.572V.572a.572.572,0,1,1,1.143,0V144.706a.571.571,0,0,1-.572.572" transform="translate(-607.947)" fill="#cfd2d7"/>
      <path id="Trazado_824686" data-name="Trazado 824686" d="M788.694,145.277a.571.571,0,0,1-.572-.572V.572a.572.572,0,1,1,1.143,0V144.706a.571.571,0,0,1-.572.572" transform="translate(-607.947)" fill="#cfd2d7"/>
      <path id="Trazado_824687" data-name="Trazado 824687" d="M879.012,145.277a.571.571,0,0,1-.572-.572V.572a.572.572,0,1,1,1.143,0V144.706a.571.571,0,0,1-.572.572" transform="translate(-677.617)" fill="#cfd2d7"/>
      <path id="Trazado_824688" data-name="Trazado 824688" d="M969.331,145.277a.571.571,0,0,1-.572-.572V.572a.572.572,0,1,1,1.143,0V144.706a.571.571,0,0,1-.572.572" transform="translate(-747.288)" fill="#cfd2d7"/>
      <path id="Trazado_824689" data-name="Trazado 824689" d="M1059.65,145.277a.571.571,0,0,1-.572-.572V.572a.572.572,0,1,1,1.143,0V144.706a.571.571,0,0,1-.572.572" transform="translate(-816.958)" fill="#cfd2d7"/>
      <path id="Trazado_824690" data-name="Trazado 824690" d="M1149.967,145.277a.572.572,0,0,1-.571-.572V.572a.572.572,0,1,1,1.143,0V144.706a.571.571,0,0,1-.572.572" transform="translate(-886.629)" fill="#cfd2d7"/>
      <path id="Trazado_824691" data-name="Trazado 824691" d="M879.012,145.277a.571.571,0,0,1-.572-.572V.572a.572.572,0,1,1,1.143,0V144.706a.571.571,0,0,1-.572.572" transform="translate(-677.617)" fill="#cfd2d7"/>
      <rect id="Rectángulo_378123" data-name="Rectángulo 378123" width="4.334" height="4.334" transform="translate(61.814 76.265) rotate(-45)" fill="url(#linear-gradient)"/>
      <rect id="Rectángulo_378124" data-name="Rectángulo 378124" width="7.245" height="7.245" transform="translate(28.313 53.63) rotate(-45)" fill="url(#linear-gradient)"/>
      <rect id="Rectángulo_378125" data-name="Rectángulo 378125" width="9.808" height="9.808" transform="translate(55.968 26.64) rotate(-45)" fill="url(#linear-gradient)"/>
      <path id="Trazado_824692" data-name="Trazado 824692" d="M541.268,406.27a17.3,17.3,0,1,1-17.3-17.3,17.3,17.3,0,0,1,17.3,17.3" transform="translate(-390.838 -300.047)" fill="url(#linear-gradient)"/>
      <path id="Trazado_824693" data-name="Trazado 824693" d="M543.112,447.665l9.688,34.118L521.147,491.93l-11.52-35.581Z" transform="translate(-393.119 -345.323)" fill="url(#linear-gradient)"/>
      <path id="Trazado_824694" data-name="Trazado 824694" d="M591.67,596.9l6.549,23.365h40.263l8.732-1.218,4.608-14.709s2.977-3.423,3.933-.131a.116.116,0,0,0,.224,0L657,600.138s2.425-2.911,3.881.647c0,0,3.072-4.851,4.042.485,0,0,3.719-4.2,4.366.323l-4.366,20.536-3.261,5.239a24.183,24.183,0,0,1-18.09,11.279l-55.75,5.653a20.747,20.747,0,0,1-22.183-15.462l-5.617-21.787Z" transform="translate(-431.99 -460.444)" fill="#fff"/>
      <path id="Trazado_824695" data-name="Trazado 824695" d="M583.4,642.529a21.317,21.317,0,0,1-20.646-16l-5.751-22.309,32.731-10.492,6.592,23.519h39.789l8.334-1.162,4.536-14.478.078-.09c.183-.211,1.836-2.049,3.347-1.717a1.735,1.735,0,0,1,.986.62l.749-3,.084-.1a3.4,3.4,0,0,1,2.738-1.3,2.436,2.436,0,0,1,1.669,1.228c.614-.746,1.611-1.678,2.654-1.475.735.143,1.271.778,1.625,1.933.764-.665,1.973-1.48,3.039-1.16.84.252,1.368,1.1,1.571,2.517l.014.1-.021.1L663.134,619.9l-3.315,5.324A24.914,24.914,0,0,1,641.3,636.767l-55.75,5.653a21.348,21.348,0,0,1-2.148.108m-25.021-37.546,5.482,21.265a20.059,20.059,0,0,0,21.572,15.036l55.75-5.653a23.764,23.764,0,0,0,17.662-11.012l3.208-5.154,4.323-20.336c-.135-.854-.4-1.381-.753-1.486-.662-.2-1.945.812-2.6,1.558l-.78.882-.211-1.158c-.322-1.771-.815-2-.958-2.028-.538-.105-1.53.946-2.039,1.747l-.593.933-.419-1.023c-.242-.591-.651-1.314-1.228-1.4-.609-.094-1.308.5-1.6.814l-.984,3.936a.688.688,0,0,1-.653.52h-.013a.691.691,0,0,1-.662-.5c-.12-.412-.34-.921-.712-1-.632-.142-1.679.742-2.163,1.265l-4.679,14.936-9.169,1.273h-40.7l-6.506-23.211Z" transform="translate(-429.668 -457.996)" fill="#111c3a"/>
      <path id="Trazado_824696" data-name="Trazado 824696" d="M203.935,373.945l36.016-4.789h21.276l26.215,5.1-1.4,111.508-91.563.283Z" transform="translate(-150.014 -284.762)" fill="url(#linear-gradient)"/>
      <path id="Unión_1" data-name="Unión 1" d="M3954.2,9942.957l18.551-31.185a17.3,17.3,0,1,1,30.057,17l-19.648,31.276Z" transform="translate(-3931.417 -9813.076)" stroke="rgba(0,0,0,0)" stroke-miterlimit="10" stroke-width="1" fill="url(#linear-gradient)"/>
      <path id="Trazado_824699" data-name="Trazado 824699" d="M147.11,596.5l-11.319.97-79.333,26.9c-19.57,6.511-36.837-14.58-26.589-32.479L43.474,568.13l28.96,17.088-2.067,3.608,55.048-7.364,25.138-8.133a8.691,8.691,0,0,1,6.509.469l6.219,3.056,7.37,10.609a2.47,2.47,0,0,1,.184,2.584c-.419.763-1.228,1.38-2.784.794,0,0-1.145,3.557-3.375,2.749,0,0-.425,1.779-3.9,1.536,0,0-.808,3.7-3.557,1.92l-3.881-2.567Z" transform="translate(-20.687 -438.248)" fill="#fff"/>
      <path id="Trazado_824700" data-name="Trazado 824700" d="M47.153,623.5A23.107,23.107,0,0,1,27.4,588.955L41.29,564.689l29.945,17.67-1.773,3.094,53.85-7.2,25.089-8.117a9.217,9.217,0,0,1,6.937.5l6.352,3.121,7.455,10.731a3.053,3.053,0,0,1,.216,3.186,2.438,2.438,0,0,1-2.945,1.222,5.012,5.012,0,0,1-2.042,2.493A2.274,2.274,0,0,1,163,591.6c-.4.61-1.395,1.518-3.781,1.462a3.575,3.575,0,0,1-1.775,2.223,2.652,2.652,0,0,1-2.518-.415l-3.656-2.418-6.026,1.957-11.315.969-79.268,26.88a23.779,23.779,0,0,1-7.514,1.24m-5.446-57.237L28.39,589.523A21.894,21.894,0,0,0,54.3,621.176l79.4-26.924.069-.006,11.254-.965,6.425-2.086,4.11,2.719a1.6,1.6,0,0,0,1.457.314c.732-.3,1.141-1.488,1.227-1.88l.105-.482.493.034c2.883.2,3.293-1.059,3.309-1.113l.149-.623.6.233a1.192,1.192,0,0,0,.974-.04,4.482,4.482,0,0,0,1.663-2.347l.185-.569.56.21c1.328.5,1.824-.065,2.082-.534a1.9,1.9,0,0,0-.152-1.983l-7.286-10.487-6.086-2.991a8.079,8.079,0,0,0-6.081-.438l-25.187,8.149-.051.007-56.195,7.518,2.362-4.123Zm103.428,27.584h0Z" transform="translate(-18.712 -435.593)" fill="#111c3a"/>
      <path id="Trazado_824701" data-name="Trazado 824701" d="M609.589,634.06a.571.571,0,0,1-.46-.231l-4.465-6.02-5.188-3.339a.572.572,0,0,1,.619-.961l5.363,3.452,4.589,6.188a.572.572,0,0,1-.459.912" transform="translate(-462.226 -480.895)" fill="#111c3a"/>
      <path id="Trazado_824702" data-name="Trazado 824702" d="M594.551,651.95a.571.571,0,0,1-.45-.218l-3.261-4.151-6.444-3.461a.571.571,0,1,1,.541-1.007l6.654,3.573L595,651.025a.572.572,0,0,1-.449.925" transform="translate(-450.563 -496.037)" fill="#111c3a"/>
      <path id="Trazado_824703" data-name="Trazado 824703" d="M584.307,668.217a.568.568,0,0,1-.371-.137l-3.791-3.235-3.917-1.6a.571.571,0,1,1,.433-1.058l4.087,1.672,3.93,3.354a.572.572,0,0,1-.371,1.006" transform="translate(-444.22 -510.768)" fill="#111c3a"/>
      <path id="Trazado_824704" data-name="Trazado 824704" d="M184.106,656.858a.571.571,0,0,1-.071-1.138l10.09-1.276a.572.572,0,0,1,.143,1.134l-10.09,1.275a.546.546,0,0,1-.072,0" transform="translate(-141.577 -504.825)" fill="#111c3a"/>
      <path id="Trazado_824705" data-name="Trazado 824705" d="M407.691,309.446h-13.17a10,10,0,0,1-10-10V272.256h23.167Z" transform="translate(-296.617 -210.015)" fill="#fff"/>
      <path id="Trazado_824706" data-name="Trazado 824706" d="M406.334,308.089H392.593a10.581,10.581,0,0,1-10.569-10.569V269.756h24.31ZM383.167,270.9v26.622a9.436,9.436,0,0,0,9.425,9.426h12.6V270.9Z" transform="translate(-294.688 -208.086)" fill="#111c3a"/>
      <path id="Trazado_824707" data-name="Trazado 824707" d="M403.013,130.285a20.408,20.408,0,0,1,14.86,18.3c.716,9.968-.115,24.4-9.928,29.2-15.523,7.6-26.886-11.481-26.886-11.481s-2.719-26.219.691-30.4c3.446-4.224,11.707-8.219,21.263-5.627" transform="translate(-293.152 -99.866)" fill="#fff"/>
      <path id="Trazado_824708" data-name="Trazado 824708" d="M398.669,178.3a18.152,18.152,0,0,1-9.535-2.9.572.572,0,0,1,.6-.975c5.336,3.263,10.739,3.6,16.057.993,4.21-2.061,7.106-6.2,8.608-12.288a53.355,53.355,0,0,0,1-16.36,19.825,19.825,0,0,0-14.44-17.794c-9.753-2.645-17.7,1.8-20.67,5.437-2.674,3.278-1.315,22.752-.566,29.979l0,.059v2.547a.572.572,0,0,1-1.143,0v-2.517c-.149-1.444-2.673-26.509.82-30.79,3.9-4.78,12.659-8.312,21.855-5.818a20.968,20.968,0,0,1,15.28,18.815c.783,10.9-.358,24.915-10.246,29.756a17.209,17.209,0,0,1-7.622,1.857" transform="translate(-291.245 -98.002)" fill="#111c3a"/>
      <path id="Trazado_824709" data-name="Trazado 824709" d="M347.23,112.351a40.1,40.1,0,0,0,8.986-13.813c6.44,2.661,13.05,5.36,20.014,5.622a17.814,17.814,0,0,0,6.281-.742,20.762,20.762,0,0,0,5.409-2.963c2.491-1.775,4.945-3.909,5.912-6.81,1.342-4.027-.644-8.6-3.874-11.352s-7.468-4-11.637-4.8c-9.367-1.789-19.522-1.525-27.851,3.119-2.486,1.386-4.865,3.266-5.941,5.9a5.324,5.324,0,0,0-6.272.118,8.461,8.461,0,0,0-3.128,5.765,21.756,21.756,0,0,0,.413,6.7,108.313,108.313,0,0,0,2.627,11.28h0c.5,1.733,1.576,4.19,3.645,4.4,1.927.2,4.132-1.142,5.417-2.429" transform="translate(-258.421 -58.986)" fill="#10002b"/>
      <path id="Trazado_824710" data-name="Trazado 824710" d="M345.718,110.824a40.745,40.745,0,0,0,7.626-10.635q.832-1.679,1.507-3.43l-.7.4a107.661,107.661,0,0,0,10.806,4.011,35.171,35.171,0,0,0,11.391,1.626,15.98,15.98,0,0,0,5.614-1.225,24.494,24.494,0,0,0,4.675-2.8c2.635-1.919,5.262-4.321,6.035-7.623a11.074,11.074,0,0,0-2.109-8.887,17.155,17.155,0,0,0-8.2-5.72,45.44,45.44,0,0,0-10.224-2.21,48.618,48.618,0,0,0-10.543-.146,35.691,35.691,0,0,0-10.147,2.47c-3.069,1.278-6.2,2.991-8.226,5.707a9.572,9.572,0,0,0-1.158,2.066l.955-.252a6.012,6.012,0,0,0-7.773.7c-2.3,2.223-2.888,5.591-2.678,8.657a44.54,44.54,0,0,0,.8,5.346q.5,2.622,1.137,5.217c.394,1.614.8,3.237,1.3,4.821a8.891,8.891,0,0,0,1.648,3.175,3.994,3.994,0,0,0,1.66,1.163,4.262,4.262,0,0,0,2.285.061,9.021,9.021,0,0,0,4.326-2.492.572.572,0,0,0-.808-.808,8.215,8.215,0,0,1-3.37,2.083,2.919,2.919,0,0,1-2.957-.474,6.461,6.461,0,0,1-1.561-2.647c-.478-1.366-.817-2.793-1.173-4.194a86.332,86.332,0,0,1-1.982-9.7c-.38-2.828-.346-5.885,1.295-8.341a5.657,5.657,0,0,1,3.29-2.407,4.4,4.4,0,0,1,3.755.644.583.583,0,0,0,.955-.252c1.2-2.881,4.017-4.741,6.692-6.1a32.582,32.582,0,0,1,9.515-3.016,44.351,44.351,0,0,1,10.154-.389,52.971,52.971,0,0,1,9.946,1.608A19.834,19.834,0,0,1,388.1,81.18a11.169,11.169,0,0,1,3.668,7.751,8.083,8.083,0,0,1-1.134,4.218,13.8,13.8,0,0,1-3.122,3.505,30.621,30.621,0,0,1-4.078,2.879,14.744,14.744,0,0,1-5.006,1.9,21.731,21.731,0,0,1-5.475.139,35.7,35.7,0,0,1-5.426-.9A75.083,75.083,0,0,1,356.99,97.1q-1.271-.515-2.538-1.041c-.305-.126-.6.141-.7.4a39.4,39.4,0,0,1-6.415,10.9q-1.151,1.384-2.424,2.659a.572.572,0,0,0,.808.808" transform="translate(-256.506 -57.056)" fill="#111c3a"/>
      <path id="Trazado_824711" data-name="Trazado 824711" d="M355.081,216.526s-6.468-7.923-10.349-4.77-2.506,13.744,1.374,15.119,8.974-1.86,8.974-1.86Z" transform="translate(-264.138 -162.774)" fill="#fff"/>
      <path id="Trazado_824712" data-name="Trazado 824712" d="M346.318,225.846a6.911,6.911,0,0,1-2.315-.374c-1.825-.647-3.258-3.014-3.831-6.335-.6-3.452-.12-7.811,2.287-9.766,4.274-3.473,10.873,4.511,11.152,4.852a.572.572,0,0,1-.885.723c-.061-.075-6.151-7.446-9.546-4.688-2.037,1.655-2.4,5.662-1.881,8.685.487,2.82,1.7,4.96,3.086,5.452,3.568,1.264,8.428-1.773,8.477-1.8a.571.571,0,0,1,.612.965,15.412,15.412,0,0,1-7.156,2.29" transform="translate(-262.224 -160.832)" fill="#111c3a"/>
      <path id="Trazado_824713" data-name="Trazado 824713" d="M609.425,478.182,629.082,421.3a5.023,5.023,0,0,0-4.748-6.664H538.515a2.182,2.182,0,0,0-2.079,1.52l-20.722,65.036H488.276a1.812,1.812,0,0,0-1.812,1.812c0,1,.66,1.4.811,1.812h106.4c10.635,0,14.375-2.665,15.748-6.637" transform="translate(-375.252 -319.846)" fill="#10002b"/>
      <path id="Trazado_824714" data-name="Trazado 824714" d="M515.982,480.351l20.389-64.231a2.117,2.117,0,1,1,4.031,1.294l-21.187,65.234a3.146,3.146,0,0,1-2.992,2.174H488.275a1.813,1.813,0,0,1,0-3.625h26.55a1.214,1.214,0,0,0,1.157-.847" transform="translate(-375.251 -319.85)" fill="#9f99aa"/>
      <path id="Trazado_824715" data-name="Trazado 824715" d="M570.86,483.466H486.348a2.384,2.384,0,0,1,0-4.768H512.9a.64.64,0,0,0,.612-.448L533.9,414.019a2.679,2.679,0,0,1,2.562-1.875.572.572,0,0,1,0,1.143,1.54,1.54,0,0,0-1.473,1.078L514.6,478.6a1.778,1.778,0,0,1-1.7,1.246h-26.55a1.241,1.241,0,0,0,0,2.482H570.86a.572.572,0,0,1,0,1.143" transform="translate(-373.323 -317.922)" fill="#111c3a"/>
      <path id="Trazado_824716" data-name="Trazado 824716" d="M857.052,547.931l4.1,7.664,7.393-7.664-4.66-7.881Z" transform="translate(-661.118 -416.587)" fill="#fff"/>
      <path id="Trazado_824717" data-name="Trazado 824717" d="M916.931,607.508c-.97-5.336-4.042-.485-4.042-.485-1.455-3.557-3.881-.647-3.881-.647l-1.018,4.072a.116.116,0,0,1-.224,0c-.956-3.292-3.932.131-3.932.131l-4.608,14.709-12.507,8.177,8.862,11.419a24.182,24.182,0,0,0,18.09-11.279l3.262-5.239,4.366-20.536c-.647-4.528-4.366-.323-4.366-.323" transform="translate(-684.002 -466.692)" fill="#fff"/>
      <path id="Trazado_824718" data-name="Trazado 824718" d="M892.272,643.527a.571.571,0,0,1-.057-1.14,23.765,23.765,0,0,0,17.662-11.012l3.208-5.154,4.323-20.336c-.135-.855-.4-1.38-.753-1.486-.662-.2-1.945.813-2.6,1.558l-.78.882-.21-1.158c-.322-1.771-.815-2-.959-2.028-.543-.106-1.532.947-2.039,1.747l-.593.935-.419-1.025c-.241-.59-.65-1.312-1.225-1.4-.608-.1-1.3.49-1.606.815l-.984,3.935a.687.687,0,0,1-.652.52h-.013a.691.691,0,0,1-.662-.5c-.12-.412-.341-.922-.713-1-.632-.141-1.679.742-2.163,1.265L896.4,623.727l-13.087,8.556a.572.572,0,1,1-.625-.957l12.744-8.332,4.583-14.628.078-.09c.183-.211,1.836-2.049,3.347-1.717a1.736,1.736,0,0,1,.986.62l.749-3,.084-.1a3.4,3.4,0,0,1,2.738-1.3,2.437,2.437,0,0,1,1.669,1.228c.614-.745,1.611-1.678,2.654-1.475.735.143,1.271.778,1.625,1.933.764-.665,1.973-1.48,3.039-1.16.839.252,1.368,1.1,1.571,2.517l.014.1-.021.1-4.386,20.634-3.315,5.324a24.915,24.915,0,0,1-18.517,11.545.55.55,0,0,1-.058,0" transform="translate(-680.695 -464.762)" fill="#111c3a"/>
      <path id="Trazado_824719" data-name="Trazado 824719" d="M965.728,639.077a.573.573,0,0,1-.559-.694l2.881-13.111a.572.572,0,0,1,1.116.246l-2.881,13.111a.572.572,0,0,1-.558.449" transform="translate(-744.508 -481.98)" fill="#111c3a"/>
      <path id="Trazado_824720" data-name="Trazado 824720" d="M985.12,629.643a.573.573,0,0,1-.558-.695l3.5-15.906a.572.572,0,0,1,1.116.246l-3.5,15.906a.572.572,0,0,1-.558.449" transform="translate(-759.467 -472.546)" fill="#111c3a"/>
      <path id="Trazado_824721" data-name="Trazado 824721" d="M1001.264,631.384a.582.582,0,0,1-.123-.013.571.571,0,0,1-.435-.681l3.5-15.906a.571.571,0,0,1,1.116.245l-3.5,15.906a.572.572,0,0,1-.558.449" transform="translate(-771.92 -473.889)" fill="#111c3a"/>
      <path id="Trazado_824722" data-name="Trazado 824722" d="M361.072,241.785c-3.15,0-5.031-3.023-5.118-3.165a.572.572,0,0,1,.976-.6c.079.129,1.983,3.162,4.973,2.528a.572.572,0,0,1,.237,1.118,5.138,5.138,0,0,1-1.067.114" transform="translate(-274.514 -183.398)" fill="#111c3a"/>
      <path id="Trazado_824723" data-name="Trazado 824723" d="M472.805,232.367c-.263,1.121-.995,1.908-1.635,1.758s-.946-1.18-.683-2.3.994-1.908,1.635-1.758.946,1.18.683,2.3" transform="translate(-362.855 -177.456)" fill="#10002b"/>
      <path id="Trazado_824724" data-name="Trazado 824724" d="M526.367,234.028c-.263,1.121-.995,1.908-1.635,1.758s-.946-1.18-.683-2.3.995-1.908,1.635-1.758.946,1.18.683,2.3" transform="translate(-404.172 -178.737)" fill="#10002b"/>
      <path id="Trazado_824725" data-name="Trazado 824725" d="M511.656,234.269a11,11,0,0,0-.4,5.9,10.716,10.716,0,0,0,.976,2.761,5.614,5.614,0,0,1,1,2.607,2.53,2.53,0,0,1-1.572,1.985c-.658.33-.079,1.316.577.987a3.966,3.966,0,0,0,1.922-1.967,3.583,3.583,0,0,0-.3-2.978,19.222,19.222,0,0,1-1.253-2.721,9.85,9.85,0,0,1,.152-6.266.577.577,0,0,0-.4-.7.583.583,0,0,0-.7.4" transform="translate(-394.2 -180.388)" fill="#111c3a"/>
      <path id="Trazado_824726" data-name="Trazado 824726" d="M474.333,290.461a4.878,4.878,0,0,0,.885,3.727,4.039,4.039,0,0,0,3.291,1.579.583.583,0,0,0,.572-.572.577.577,0,0,0-.572-.572,2.925,2.925,0,0,1-2.393-1.129,3.679,3.679,0,0,1-.681-2.73.59.59,0,0,0-.4-.7.576.576,0,0,0-.7.4" transform="translate(-365.848 -223.736)" fill="#111c3a"/>
      <path id="Trazado_824727" data-name="Trazado 824727" d="M454.182,217.716a7.2,7.2,0,0,1,7.27-1.74c.7.23,1-.873.3-1.1a8.349,8.349,0,0,0-8.383,2.033.572.572,0,0,0,.808.808" transform="translate(-349.598 -165.45)" fill="#111c3a"/>
      <path id="Trazado_824728" data-name="Trazado 824728" d="M530.307,217.952a6.8,6.8,0,0,1,.7.226c.038.015.19.072.076.029.057.021.113.049.168.075.118.054.235.112.35.173a6.661,6.661,0,0,1,.628.381q.076.052.15.106l.074.054c.01.008.089.069.033.025s.023.019.032.027l.071.058q.08.066.157.134a.572.572,0,1,0,.808-.808,7.35,7.35,0,0,0-2.943-1.581.572.572,0,0,0-.3,1.1" transform="translate(-408.752 -167.261)" fill="#111c3a"/>
      <path id="Trazado_824729" data-name="Trazado 824729" d="M97.744,517.433a.571.571,0,0,1-.491-.864l8.7-14.623a.571.571,0,0,1,.982.584l-8.7,14.623a.571.571,0,0,1-.492.279" transform="translate(-74.958 -386.979)" fill="#111c3a"/>
      <path id="Trazado_824730" data-name="Trazado 824730" d="M224.423,591.831a.572.572,0,0,1-.484-.876l9.252-14.727a.572.572,0,0,1,.968.608l-9.252,14.727a.571.571,0,0,1-.484.268" transform="translate(-172.676 -444.289)" fill="#111c3a"/>
      <path id="Trazado_824731" data-name="Trazado 824731" d="M593.06,756.3h-.01a.572.572,0,0,1-.562-.581l.605-36.032a.572.572,0,1,1,1.143.019l-.605,36.032a.572.572,0,0,1-.571.562" transform="translate(-457.037 -554.721)" fill="#111c3a"/>
      <path id="Trazado_824732" data-name="Trazado 824732" d="M1077.68,712.981l-2.773,34.594a3.649,3.649,0,0,1-3.637,3.357h-15.691a3.648,3.648,0,0,1-3.637-3.357l-2.774-34.594Z" transform="translate(-809.314 -549.984)" fill="#10002b"/>
      <path id="Trazado_824733" data-name="Trazado 824733" d="M1049.168,703.4c0,1.652,6.383,2.991,14.256,2.991s14.256-1.339,14.256-2.991-6.382-2.991-14.256-2.991-14.256,1.339-14.256,2.991" transform="translate(-809.314 -540.287)" fill="#9f99aa"/>
      <path id="Trazado_824734" data-name="Trazado 824734" d="M1061.5,705.036c-5.129,0-14.827-.745-14.827-3.563s9.7-3.563,14.827-3.563,14.827.745,14.827,3.563-9.7,3.563-14.827,3.563m0-5.983a50.983,50.983,0,0,0-9.963.864c-3.038.637-3.721,1.355-3.721,1.556s.684.919,3.721,1.556a57.88,57.88,0,0,0,19.926,0c3.038-.637,3.721-1.355,3.721-1.556s-.684-.918-3.721-1.556a50.983,50.983,0,0,0-9.963-.864" transform="translate(-807.385 -538.358)" fill="#040a2e"/>
      <path id="Trazado_824735" data-name="Trazado 824735" d="M1070.289,697.755c0,1.093,4.221,1.978,9.427,1.978s9.427-.885,9.427-1.978-4.221-1.978-9.427-1.978-9.427.886-9.427,1.978" transform="translate(-825.606 -536.713)" fill="#fff"/>
      <path id="Trazado_824736" data-name="Trazado 824736" d="M1077.788,698.376c-1.023,0-10-.071-10-2.549s8.976-2.55,10-2.55,10,.071,10,2.55-8.975,2.549-10,2.549m-8.834-2.549c.418.529,3.573,1.406,8.834,1.406s8.416-.878,8.834-1.406c-.418-.529-3.573-1.407-8.834-1.407s-8.416.878-8.834,1.407" transform="translate(-823.678 -534.784)" fill="#040a2e"/>
      <rect id="Rectángulo_378126" data-name="Rectángulo 378126" width="1.143" height="1.955" transform="translate(262.966 161.042)" fill="#040a2e"/>
      <rect id="Rectángulo_378127" data-name="Rectángulo 378127" width="1.143" height="1.955" transform="translate(244.111 161.042)" fill="#040a2e"/>
      <path id="Trazado_824737" data-name="Trazado 824737" d="M1054.7,781.932a112.489,112.489,0,0,0,24.394,0l1.031-12.855a111.063,111.063,0,0,1-26.455,0Z" transform="translate(-812.784 -593.256)" fill="#fff"/>
      <path id="Trazado_824738" data-name="Trazado 824738" d="M1101.431,784.42a4.252,4.252,0,1,1-4.252-4.252,4.252,4.252,0,0,1,4.252,4.252" transform="translate(-843.069 -601.811)" fill="url(#linear-gradient)"/>
      <path id="Trazado_824739" data-name="Trazado 824739" d="M289.632,878.18H.572a.572.572,0,1,1,0-1.143H289.632a.572.572,0,1,1,0,1.143" transform="translate(0 -676.534)" fill="#111c3a"/>
      <path id="Trazado_824740" data-name="Trazado 824740" d="M737.518,303.861l7.621-5.24h80a6.048,6.048,0,0,0,6.048-6.048V281.954a6.049,6.049,0,0,0-6.048-6.049h-82.6a6.049,6.049,0,0,0-6.049,6.049V303.32a.657.657,0,0,0,1.029.541" transform="translate(-568.118 -212.829)" fill="#10002b"/>
      <path id="Trazado_824741" data-name="Trazado 824741" d="M778.957,309.681a5.741,5.741,0,1,1-5.741-5.741,5.741,5.741,0,0,1,5.741,5.741" transform="translate(-592.021 -234.455)" fill="#fff"/>
      <path id="Trazado_824742" data-name="Trazado 824742" d="M903.175,315.081h-55.1a.572.572,0,0,1,0-1.143h55.1a.572.572,0,1,1,0,1.143" transform="translate(-653.752 -242.168)" fill="#fff"/>
      <path id="Trazado_824743" data-name="Trazado 824743" d="M875.626,341.1h-27.55a.572.572,0,0,1,0-1.143h27.55a.572.572,0,1,1,0,1.143" transform="translate(-653.753 -262.236)" fill="#fff"/>
      <path id="Trazado_824744" data-name="Trazado 824744" d="M698.375,223.077a.571.571,0,0,1-.572-.572V180.638h83.164a.572.572,0,0,1,0,1.143H698.947v40.725a.571.571,0,0,1-.572.572" transform="translate(-538.277 -139.342)" fill="#111c3a"/>
      <path id="Trazado_824745" data-name="Trazado 824745" d="M690.757,350.208a4.021,4.021,0,1,1-4.021-4.02,4.021,4.021,0,0,1,4.021,4.02" transform="translate(-526.638 -267.045)" fill="url(#linear-gradient)"/>
    </g>
  </g>
</svg>
