<svg xmlns="http://www.w3.org/2000/svg" xmlns:xlink="http://www.w3.org/1999/xlink" width="190" height="133" viewBox="0 0 190 133">
  <defs>
    <linearGradient id="linear-gradient" x1="0.5" x2="0.5" y2="1" gradientUnits="objectBoundingBox">
      <stop offset="0" stop-color="#9bccff"/>
      <stop offset="1" stop-color="#e2d2f8"/>
    </linearGradient>
    <clipPath id="clip-path">
      <rect id="Rect치ngulo_378134" data-name="Rect치ngulo 378134" width="110" height="84" transform="translate(-0.313 0.067)" fill="#24135a"/>
    </clipPath>
  </defs>
  <g id="Grupo_1076021" data-name="Grupo 1076021" transform="translate(-180 -2410)">
    <rect id="Rect치ngulo_377901" data-name="Rect치ngulo 377901" width="190" height="133" rx="12" transform="translate(180 2410)" fill="url(#linear-gradient)"/>
    <g id="Grupo_1076018" data-name="Grupo 1076018" transform="translate(221.313 2437.873)">
      <g id="Grupo_1076017" data-name="Grupo 1076017" transform="translate(0 0.059)" clip-path="url(#clip-path)">
        <path id="Trazado_824802" data-name="Trazado 824802" d="M1.722,84.184A1.724,1.724,0,0,1,0,82.462V71.7a1.724,1.724,0,0,1,1.722-1.722H4.306V10.335A10.338,10.338,0,0,1,14.641,0H45.029a1.722,1.722,0,0,1,0,3.445H14.641a6.915,6.915,0,0,0-6.89,6.889v59.64h93.873V10.335a6.915,6.915,0,0,0-6.889-6.89H64.406a1.722,1.722,0,0,1,0-3.445H94.734a10.715,10.715,0,0,1,7.307,3.028,10.682,10.682,0,0,1,3.028,7.306v59.64h2.584a1.724,1.724,0,0,1,1.722,1.722V82.462a1.724,1.724,0,0,1-1.722,1.722Zm1.722-3.445H105.93v-7.32H3.445Z" transform="translate(0 -0.05)" fill="#24135a"/>
        <path id="Trazado_824803" data-name="Trazado 824803" d="M494,3.445a1.722,1.722,0,1,1,1.722-1.722A1.724,1.724,0,0,1,494,3.445" transform="translate(-439.285 -0.05)" fill="#24135a"/>
        <path id="Trazado_824804" data-name="Trazado 824804" d="M222.62,216.506a6.043,6.043,0,0,1-5.683-4.019l-.1-.287h-9.961l-.1.287a6.027,6.027,0,0,1-11.665-1.278l-.014-.114-4.769-6.358-4.769,6.358-.014.114a6.028,6.028,0,0,1-11.944.169l-.021-.14L160.9,198.561l-.275.132a5.959,5.959,0,0,1-2.6.589,6.029,6.029,0,0,1,0-12.057,5.959,5.959,0,0,1,2.6.589l.275.132,12.676-12.677.021-.14a6.028,6.028,0,0,1,11.944.169l.014.114,4.769,6.358,4.769-6.358.014-.114a6.027,6.027,0,0,1,11.665-1.278l.1.287h9.961l.1-.287a6.029,6.029,0,1,1,0,4.018l-.1-.287h-9.961l-.1.287a6.023,6.023,0,0,1-10.189,1.989l-.35-.394-3.756,5.008,3.756,5.008.35-.394a6.023,6.023,0,0,1,10.189,1.989l.1.287h9.961l.1-.287a6.029,6.029,0,1,1,0,4.018l-.1-.287h-9.961l-.1.287a6.023,6.023,0,0,1-10.189,1.989l-.35-.394-3.756,5.008,3.756,5.008.35-.394a6.023,6.023,0,0,1,10.189,1.989l.1.287h9.961l.1-.287a6.028,6.028,0,1,1,5.683,8.038m0-8.612a2.584,2.584,0,1,0,2.584,2.584,2.587,2.587,0,0,0-2.584-2.584m-21.531,0a2.584,2.584,0,1,0,2.584,2.584,2.587,2.587,0,0,0-2.584-2.584m-21.531,0a2.584,2.584,0,1,0,2.584,2.584,2.587,2.587,0,0,0-2.584-2.584m-15.848-12.631a5.993,5.993,0,0,1-.243.587l-.132.275,11.116,11.116.3-.394a6.018,6.018,0,0,1,9.315-.368l.35.394,3.756-5.008-3.756-5.008-.35.394a6.023,6.023,0,0,1-10.189-1.989l-.1-.287h-9.962Zm22.307-2.009,4.306,5.741,4.306-5.741-4.306-5.741Zm36.6-2.584a2.584,2.584,0,1,0,2.584,2.584,2.587,2.587,0,0,0-2.584-2.584m-21.531,0a2.584,2.584,0,1,0,2.584,2.584,2.587,2.587,0,0,0-2.584-2.584m-21.531,0a2.584,2.584,0,1,0,2.584,2.584,2.587,2.587,0,0,0-2.584-2.584m-21.531,0a2.584,2.584,0,1,0,2.584,2.584,2.587,2.587,0,0,0-2.584-2.584m5.308-.288.132.275a6.02,6.02,0,0,1,.243.588l.1.287h9.962l.1-.287a6.023,6.023,0,0,1,10.189-1.989l.35.394,3.756-5.008-3.756-5.008-.35.394a6.018,6.018,0,0,1-9.315-.368l-.3-.394Zm59.284-16.936a2.584,2.584,0,1,0,2.584,2.584,2.587,2.587,0,0,0-2.584-2.584m-21.531,0a2.584,2.584,0,1,0,2.584,2.584,2.587,2.587,0,0,0-2.584-2.584m-21.531,0a2.584,2.584,0,1,0,2.584,2.584,2.587,2.587,0,0,0-2.584-2.584" transform="translate(-135.637 -151.749)" fill="#24135a"/>
        <path id="Trazado_824805" data-name="Trazado 824805" d="M433.722,93.445a1.722,1.722,0,0,1,0-3.445h12.918a1.722,1.722,0,1,1,0,3.445Z" transform="translate(-385.494 -80.361)" fill="#24135a"/>
        <path id="Trazado_824806" data-name="Trazado 824806" d="M153.722,253.445a1.722,1.722,0,0,1,0-3.445h4.306a1.722,1.722,0,1,1,0,3.445Z" transform="translate(-135.637 -223.137)" fill="#24135a"/>
        <path id="Trazado_824807" data-name="Trazado 824807" d="M153.722,173.445a1.722,1.722,0,0,1,0-3.445h12.918a1.722,1.722,0,1,1,0,3.445Z" transform="translate(-135.637 -151.749)" fill="#24135a"/>
        <path id="Trazado_824808" data-name="Trazado 824808" d="M153.722,573.445a1.722,1.722,0,1,1,0-3.445h12.918a1.722,1.722,0,1,1,0,3.445Z" transform="translate(-135.637 -508.688)" fill="#24135a"/>
      </g>
    </g>
  </g>
</svg>
