<svg xmlns="http://www.w3.org/2000/svg" xmlns:xlink="http://www.w3.org/1999/xlink" width="294.175" height="231.5" viewBox="0 0 294.175 231.5">
  <defs>
    <linearGradient id="linear-gradient" x1="0.5" x2="0.5" y2="1" gradientUnits="objectBoundingBox">
      <stop offset="0" stop-color="#b31a8f"/>
      <stop offset="1" stop-color="#fe117e"/>
    </linearGradient>
    <clipPath id="clip-path">
      <rect id="Rectángulo_378133" data-name="Rectángulo 378133" width="294.175" height="231.5" fill="none"/>
    </clipPath>
  </defs>
  <g id="Grupo_1076010" data-name="Grupo 1076010" transform="translate(0 0.004)">
    <rect id="Rectángulo_378129" data-name="Rectángulo 378129" width="3.462" height="3.462" transform="matrix(0.707, -0.707, 0.707, 0.707, 45.968, 46.038)" fill="url(#linear-gradient)"/>
    <rect id="Rectángulo_378130" data-name="Rectángulo 378130" width="4.903" height="4.903" transform="matrix(0.707, -0.707, 0.707, 0.707, 11.01, 32.585)" fill="url(#linear-gradient)"/>
    <rect id="Rectángulo_378131" data-name="Rectángulo 378131" width="5.49" height="5.49" transform="translate(44.534 8.268) rotate(-45)" fill="url(#linear-gradient)"/>
    <g id="Grupo_1076008" data-name="Grupo 1076008" transform="translate(0 -0.004)">
      <g id="Grupo_1076007" data-name="Grupo 1076007" clip-path="url(#clip-path)">
        <path id="Trazado_824746" data-name="Trazado 824746" d="M293.6,950.977H.572a.572.572,0,1,1,0-1.144H293.6a.572.572,0,1,1,0,1.144" transform="translate(0 -732.416)" fill="#111c3a"/>
        <path id="Trazado_824747" data-name="Trazado 824747" d="M931.771,105.057a1.273,1.273,0,0,0,1.272,1.275l3.474,0c.014.046.305.835.588,1.5a1.052,1.052,0,0,1-.223,1.159l-1.94,1.935a1.274,1.274,0,0,0,0,1.8l3.129,3.137a1.273,1.273,0,0,0,1.8,0l1.926-1.921a1.071,1.071,0,0,1,1.208-.2q.37.169.751.313a1.071,1.071,0,0,1,.711,1l0,2.719a1.273,1.273,0,0,0,1.271,1.275l4.43.007a1.273,1.273,0,0,0,1.276-1.271l0-2.747a1.047,1.047,0,0,1,.668-.977c.257-.1.556-.219.832-.336a1.051,1.051,0,0,1,1.159.224l1.935,1.942a1.273,1.273,0,0,0,1.8,0l3.14-3.126a1.275,1.275,0,0,0,0-1.8l-1.92-1.927a1.071,1.071,0,0,1-.2-1.209q.169-.369.313-.75a1.073,1.073,0,0,1,1-.71l2.719.007a1.274,1.274,0,0,0,1.277-1.27l.01-4.431a1.273,1.273,0,0,0-1.27-1.276l-2.748-.007a1.047,1.047,0,0,1-.976-.668c-.1-.258-.219-.556-.336-.832a1.052,1.052,0,0,1,.225-1.159l1.944-1.933a1.273,1.273,0,0,0,.005-1.8L957.9,89.861a1.273,1.273,0,0,0-1.8,0l-1.93,1.918a1.067,1.067,0,0,1-1.208.2q-.388-.178-.788-.328a1.069,1.069,0,0,1-.712-.994V87.927a1.274,1.274,0,0,0-1.274-1.273h-4.43a1.274,1.274,0,0,0-1.273,1.273v2.746a1.047,1.047,0,0,1-.666.978c-.257.1-.556.22-.832.338a1.051,1.051,0,0,1-1.159-.222l-1.937-1.938a1.273,1.273,0,0,0-1.8,0l-3.135,3.132a1.273,1.273,0,0,0,0,1.8l1.922,1.923a1.071,1.071,0,0,1,.2,1.209q-.169.37-.313.751a1.069,1.069,0,0,1-1,.712l-2.718,0a1.273,1.273,0,0,0-1.275,1.272Zm10.027-1.072a6.1,6.1,0,0,1,.105-2.7,6.436,6.436,0,0,1,1.559-2.781q.186-.195.388-.374A6.127,6.127,0,0,1,945.708,97a6.279,6.279,0,0,1,8.442,4.723,6.06,6.06,0,0,1,.011,2.172,6.291,6.291,0,0,1-.275,1.039,6.448,6.448,0,0,1-1.045,1.864,6.278,6.278,0,0,1-1.614,1.423,6.048,6.048,0,0,1-.986.487,6.28,6.28,0,0,1-8.442-4.724" transform="translate(-718.49 -66.818)" fill="#10002b"/>
        <path id="Trazado_824748" data-name="Trazado 824748" d="M148.171,147.764s16.44-22.089-8.1-28.248c0,0-37.93-25.417-46.268,22.142,0,0-35.48,7.4-19.443,35.464,0,0-42.328,24.66-4.162,47.324s71.634-37.333,71.634-37.333,14.091-27.841,6.341-39.349" transform="translate(-41.831 -86.927)" fill="#10002b"/>
        <path id="Trazado_824749" data-name="Trazado 824749" d="M86,228.243a34.934,34.934,0,0,1-18.028-5.191c-10.8-6.413-16.26-13.636-16.227-21.468.026-6.159,3.572-12.76,10.256-19.09a63.664,63.664,0,0,1,9.655-7.46c-4.276-7.7-5.1-14.594-2.442-20.492,2.738-6.082,8.732-9.928,13.279-12.084a46.835,46.835,0,0,1,8.879-3.16c2.605-14.471,8.239-23.648,16.75-27.281,5.677-2.423,12.729-2.3,20.392.359a47.874,47.874,0,0,1,9.857,4.724c7.025,1.782,11.429,5.047,13.09,9.706,2.834,7.948-3.217,17.217-4.53,19.09,3.093,4.957,2.956,13.075-.409,24.14a108.839,108.839,0,0,1-6.114,15.451l-.011.02a128.161,128.161,0,0,1-12.85,18.1c-7.358,8.673-18.958,19.773-32.436,23.4A34.959,34.959,0,0,1,86,228.243m31.03-116.813a21.4,21.4,0,0,0-8.463,1.641c-8.2,3.5-13.631,12.521-16.134,26.8l-.067.382-.38.079c-.167.035-16.75,3.617-21.729,14.683-2.551,5.669-1.654,12.376,2.666,19.936l.282.493-.49.286c-.2.115-19.768,11.688-19.825,25.861-.03,7.4,5.241,14.286,15.667,20.477A32.983,32.983,0,0,0,94.815,225.9c13.188-3.55,24.6-14.479,31.849-23.021A127.172,127.172,0,0,0,139.4,184.958c.337-.672,13.79-27.745,6.372-38.76l-.226-.336.241-.325c.075-.1,7.5-10.23,4.6-18.35-1.533-4.3-5.7-7.324-12.385-9l-.1-.024-.083-.055c-.126-.084-10.128-6.675-20.788-6.675m22.868,73.8h0Z" transform="translate(-39.903 -85.041)" fill="#111c3a"/>
        <path id="Trazado_824750" data-name="Trazado 824750" d="M146.672,444.565l26.379-6.88h47.513l8.208,31.7V555.34L142.1,557.688Z" transform="translate(-109.574 -337.499)" fill="url(#linear-gradient)"/>
        <path id="Unión_2" data-name="Unión 2" d="M3958.175,9600.952l8.909-38.907h0a16.91,16.91,0,1,1,33.423,3.658l-8,39.056Z" transform="translate(-3943.698 -9438.373)" stroke="rgba(0,0,0,0)" stroke-miterlimit="10" stroke-width="1" fill="url(#linear-gradient)"/>
        <path id="Unión_3" data-name="Unión 3" d="M3968.136,9577.467a16.912,16.912,0,1,1,17.99-28.229l27.191,20.232-18.341,26.073Z" transform="translate(-3864.095 -9444.95)" stroke="rgba(0,0,0,0)" stroke-miterlimit="10" stroke-width="1" fill="url(#linear-gradient)"/>
        <path id="Trazado_824754" data-name="Trazado 824754" d="M44.953,710.266l-5.1,30.233A23.474,23.474,0,0,0,63,767.876h49.5s9.629,4.619,15.423.7l9.423,8.608a5.314,5.314,0,0,0,3.219,1.416c1.285.083,2.566-.324,2.126-2.463,0,0,3.043.66,3.043-3.039,0,0,4.169.881,3.934-2.76a2.738,2.738,0,0,0,2.476-1.111,2.517,2.517,0,0,0-.454-3.118l-9.315-8.97A37.419,37.419,0,0,0,121.343,747l-47.371-6.279,5.311-26.652Z" transform="translate(-30.476 -547.686)" fill="#fff"/>
        <path id="Trazado_824755" data-name="Trazado 824755" d="M138.954,777.069c-.108,0-.219,0-.334-.011a5.9,5.9,0,0,1-3.568-1.565l-9.1-8.312c-5.719,3.443-14.319-.311-15.488-.85H61.088a24.046,24.046,0,0,1-23.711-28.045l5.188-30.765,35.487,3.933-5.313,26.665,46.766,6.2a37.736,37.736,0,0,1,21.359,10.3l9.315,8.97a2.974,2.974,0,0,1-1.845,5.205,2.842,2.842,0,0,1-.944,2.069,4.223,4.223,0,0,1-3.022.773,3.339,3.339,0,0,1-1.135,2.378,3.014,3.014,0,0,1-1.793.629,2.313,2.313,0,0,1-.5,1.686,2.5,2.5,0,0,1-1.987.745m-12.886-11.332,9.755,8.912a4.753,4.753,0,0,0,2.87,1.267,1.769,1.769,0,0,0,1.384-.343,1.8,1.8,0,0,0,.145-1.434l-.177-.861.859.186a2.162,2.162,0,0,0,1.616-.352,2.632,2.632,0,0,0,.733-2.128v-.706l.691.146a3.612,3.612,0,0,0,2.7-.434,1.978,1.978,0,0,0,.546-1.729l-.044-.68.677.074a2.144,2.144,0,0,0,1.928-.845,1.941,1.941,0,0,0-.366-2.4l-9.315-8.97a36.6,36.6,0,0,0-20.715-9.985l-47.977-6.36,5.308-26.639-33.172-3.676-5.008,29.7a22.9,22.9,0,0,0,22.583,26.71h49.635l.117.056c.094.045,9.4,4.43,14.855.746Z" transform="translate(-28.562 -545.569)" fill="#111c3a"/>
        <path id="Trazado_824756" data-name="Trazado 824756" d="M341.031,945.714a.573.573,0,0,1-.138-.017c-4.7-1.167-7.871-5.679-8-5.871a.572.572,0,0,1,.941-.651c.03.043,3.059,4.35,7.338,5.411a.572.572,0,0,1-.137,1.128" transform="translate(-256.614 -724.008)" fill="#111c3a"/>
        <path id="Trazado_824757" data-name="Trazado 824757" d="M158.436,838.125a.6.6,0,0,1-.075,0l-16.773-2.2a.572.572,0,1,1,.148-1.135l16.773,2.2a.572.572,0,0,1-.073,1.14" transform="translate(-108.794 -643.702)" fill="#111c3a"/>
        <path id="Trazado_824758" data-name="Trazado 824758" d="M454.414,964.9a.57.57,0,0,1-.391-.155l-10.071-9.439a.572.572,0,0,1,.783-.835l10.071,9.44a.572.572,0,0,1-.392.99" transform="translate(-342.193 -735.875)" fill="#111c3a"/>
        <path id="Trazado_824759" data-name="Trazado 824759" d="M469.589,951.313a.571.571,0,0,1-.405-.168l-9.512-9.532a.572.572,0,0,1,.81-.808l9.512,9.531a.572.572,0,0,1-.4.977" transform="translate(-354.325 -725.326)" fill="#111c3a"/>
        <path id="Trazado_824760" data-name="Trazado 824760" d="M484.6,938.928a.57.57,0,0,1-.394-.157l-10.158-9.629a.572.572,0,1,1,.787-.831l10.158,9.629a.572.572,0,0,1-.394.987" transform="translate(-365.401 -715.7)" fill="#111c3a"/>
        <path id="Trazado_824762" data-name="Trazado 824762" d="M318.074,368.741h-5.556a8.182,8.182,0,0,1-8.182-8.182v-26.89h21.92v26.89a8.182,8.182,0,0,1-8.182,8.182" transform="translate(-234.674 -257.292)" fill="#fff"/>
        <path id="Trazado_824763" data-name="Trazado 824763" d="M316.147,367.386H310.59a8.764,8.764,0,0,1-8.754-8.754V331.169H324.9v27.463a8.764,8.764,0,0,1-8.754,8.754M302.98,332.314v26.318a7.618,7.618,0,0,0,7.61,7.609h5.557a7.618,7.618,0,0,0,7.609-7.609V332.314Z" transform="translate(-232.746 -255.364)" fill="#111c3a"/>
        <path id="Trazado_824764" data-name="Trazado 824764" d="M321.742,165.737s13.035,25.717,0,38.4c-6.25,6.081-14.13,4.99-20.639,2.205a43.148,43.148,0,0,1-5.774-3.041,49.809,49.809,0,0,1-6.741-5s-10.06-30.806-.665-35.973,24.9-7.163,33.82,3.406" transform="translate(-218.925 -121.927)" fill="#fff"/>
        <path id="Trazado_824765" data-name="Trazado 824765" d="M308.891,207.2a25.386,25.386,0,0,1-9.92-2.264,43.637,43.637,0,0,1-5.852-3.081,49.91,49.91,0,0,1-6.826-5.062l-.11-.1-.046-.142c-.417-1.276-10.1-31.318-.4-36.652a35.055,35.055,0,0,1,17.378-4.269c7.081.2,13.013,2.9,17.155,7.807l.043.051.03.06a65.022,65.022,0,0,1,4.939,14.589c2.172,10.687.426,19.152-5.05,24.48a15.773,15.773,0,0,1-11.342,4.585m-21.714-11.15a50.764,50.764,0,0,0,6.546,4.833,42.518,42.518,0,0,0,5.7,3c8.235,3.522,14.969,2.82,20.015-2.09,6.543-6.366,6.184-16.243,4.731-23.408a63.992,63.992,0,0,0-4.814-14.265c-9.095-10.7-24.747-7.794-33.062-3.221-3.609,1.985-4.612,8.665-2.9,19.32a120.745,120.745,0,0,0,3.79,15.829" transform="translate(-217.018 -119.998)" fill="#111c3a"/>
        <path id="Trazado_824766" data-name="Trazado 824766" d="M294.944,151.588s-10.958,20.889-29.846,22.955c0,0-12.429-8.973-5.735-21.773s36.873-14.459,35.581-1.182" transform="translate(-198.469 -109.781)" fill="#10002b"/>
        <path id="Trazado_824767" data-name="Trazado 824767" d="M289.158,204.236a.572.572,0,0,1-.061-1.141c9.571-1.047,17.044-7.131,21.628-12.051a55.367,55.367,0,0,0,7.773-10.6.572.572,0,0,1,1.014.532,56.56,56.56,0,0,1-7.928,10.827c-4.72,5.071-12.431,11.345-22.362,12.431a.583.583,0,0,1-.063,0" transform="translate(-222.53 -138.903)" fill="#111c3a"/>
        <path id="Trazado_824768" data-name="Trazado 824768" d="M407.876,156.3s7.633,12.338,11.391,12.338-.117-12.917-2.936-15.5c-1.661-1.522-10.516-5.384-12.309-4.533-1.25.594,4.337,4.992,3.854,7.7" transform="translate(-311.4 -114.498)" fill="#10002b"/>
        <path id="Trazado_824769" data-name="Trazado 824769" d="M430.938,193.62c-3.962,0-11.079-11.318-11.878-12.609a.572.572,0,1,1,.973-.6c2.887,4.665,8.4,12.066,10.9,12.066a.572.572,0,0,1,0,1.145" transform="translate(-323.072 -138.903)" fill="#111c3a"/>
        <path id="Trazado_824770" data-name="Trazado 824770" d="M282.147,268.282s-7.611-6.864-11.673-3.339.165,12.8,3.571,13.507,8.1-2.114,8.1-2.114Z" transform="translate(-207.279 -203.521)" fill="#fff"/>
        <path id="Trazado_824771" data-name="Trazado 824771" d="M273.293,277.2a6.372,6.372,0,0,1-1.289-.125c-2.294-.475-4.5-3.958-5.307-7.052-.834-3.194-.3-5.909,1.478-7.447,4.394-3.813,12.105,3.052,12.431,3.346a.572.572,0,0,1-.766.85c-.072-.065-7.282-6.484-10.915-3.331-1.432,1.242-1.84,3.536-1.12,6.294.793,3.039,2.823,5.887,4.432,6.221,3.151.652,7.647-2.017,7.692-2.044a.572.572,0,0,1,.589.981c-.176.106-3.89,2.308-7.224,2.308" transform="translate(-205.354 -201.582)" fill="#111c3a"/>
        <path id="Trazado_824772" data-name="Trazado 824772" d="M287.818,292.481a5.664,5.664,0,0,1-4.83-2.343.572.572,0,0,1,.972-.605c.065.1,1.551,2.357,5.2,1.672a.572.572,0,0,1,.211,1.125,8.439,8.439,0,0,1-1.555.151" transform="translate(-218.146 -223.051)" fill="#111c3a"/>
        <path id="Trazado_824773" data-name="Trazado 824773" d="M209.912,633.428a.586.586,0,0,1-.115-.012.572.572,0,0,1-.446-.675l6.018-29.407a.572.572,0,1,1,1.121.229l-6.018,29.407a.572.572,0,0,1-.56.458" transform="translate(-161.421 -464.878)" fill="#111c3a"/>
        <path id="Trazado_824774" data-name="Trazado 824774" d="M60.466,646.1a.583.583,0,0,1-.126-.014.572.572,0,0,1-.432-.684l4.544-20.152a.572.572,0,0,1,1.116.252l-4.545,20.152a.572.572,0,0,1-.558.447" transform="translate(-46.184 -481.789)" fill="#111c3a"/>
        <path id="Trazado_824775" data-name="Trazado 824775" d="M518.817,659.4a.572.572,0,0,1-.572-.572v-84.6a.572.572,0,0,1,1.144,0v84.6a.572.572,0,0,1-.572.572" transform="translate(-399.619 -442.347)" fill="#111c3a"/>
        <path id="Trazado_824776" data-name="Trazado 824776" d="M403.047,254.005c0,1.246-.66,2.256-1.473,2.256s-1.473-1.01-1.473-2.256.66-2.256,1.473-2.256,1.473,1.01,1.473,2.256" transform="translate(-308.518 -194.123)" fill="#10002b"/>
        <path id="Trazado_824777" data-name="Trazado 824777" d="M455.033,254.005c0,1.246-.66,2.256-1.473,2.256s-1.473-1.01-1.473-2.256.66-2.256,1.473-2.256,1.473,1.01,1.473,2.256" transform="translate(-348.604 -194.123)" fill="#10002b"/>
        <path id="Trazado_824778" data-name="Trazado 824778" d="M380.713,237.946a.572.572,0,0,1-.432-.947,9.28,9.28,0,0,1,9.836-2.369.572.572,0,1,1-.389,1.076,7.979,7.979,0,0,0-8.584,2.045.572.572,0,0,1-.431.2" transform="translate(-293.127 -180.483)" fill="#111c3a"/>
        <path id="Trazado_824779" data-name="Trazado 824779" d="M451.514,239.622a.57.57,0,0,1-.426-.19,4.915,4.915,0,0,0-4.049-1.466.572.572,0,1,1-.167-1.132,6.033,6.033,0,0,1,5.066,1.833.572.572,0,0,1-.425.955" transform="translate(-344.207 -182.592)" fill="#111c3a"/>
        <path id="Trazado_824780" data-name="Trazado 824780" d="M436.917,264.515c-.361,2.2.563,4.246,1.694,6.082a24.089,24.089,0,0,1,1.614,2.69c.274.613.47,1.624-.174,2.1a.59.59,0,0,0-.205.783.576.576,0,0,0,.783.205,2.471,2.471,0,0,0,1-1.942,4.431,4.431,0,0,0-.734-2.34,27.714,27.714,0,0,1-2.537-4.527,5.626,5.626,0,0,1-.332-2.748.589.589,0,0,0-.4-.7.577.577,0,0,0-.7.4" transform="translate(-336.846 -203.645)" fill="#111c3a"/>
        <path id="Trazado_824781" data-name="Trazado 824781" d="M412.221,323.688a4.723,4.723,0,0,0,5.839,4.413c.717-.166.414-1.27-.3-1.1a3.564,3.564,0,0,1-4.391-3.309.584.584,0,0,0-.572-.572.578.578,0,0,0-.572.572" transform="translate(-317.864 -249.154)" fill="#111c3a"/>
        <rect id="Rectángulo_378132" data-name="Rectángulo 378132" width="31.571" height="2.94" transform="translate(163.09 214.655)" fill="#9f99aa"/>
        <path id="Trazado_824782" data-name="Trazado 824782" d="M595.568,464.171H461.093a15.985,15.985,0,0,1-15.829-18.214l11.2-79.576a17.541,17.541,0,0,1,17.37-15.1H608.313A15.985,15.985,0,0,1,624.142,369.5l-11.2,79.576a17.541,17.541,0,0,1-17.37,15.1" transform="translate(-343.221 -270.876)" fill="#9f99aa"/>
        <path id="Trazado_824783" data-name="Trazado 824783" d="M609.456,464.171H474.981a15.985,15.985,0,0,1-15.829-18.214l11.2-79.576a17.541,17.541,0,0,1,17.37-15.1H622.2A15.985,15.985,0,0,1,638.03,369.5l-11.2,79.576a17.541,17.541,0,0,1-17.37,15.1" transform="translate(-353.93 -270.876)" fill="#10002b"/>
        <path id="Trazado_824784" data-name="Trazado 824784" d="M607.537,462.815H473.062a16.558,16.558,0,0,1-16.4-18.866l11.2-79.576a18.114,18.114,0,0,1,17.936-15.588H620.282a16.558,16.558,0,0,1,16.4,18.866l-11.2,79.576a18.113,18.113,0,0,1-17.936,15.588M485.807,349.93a17.046,17.046,0,0,0-16.8,14.6l-11.2,79.576a15.414,15.414,0,0,0,15.263,17.562H607.537a17.046,17.046,0,0,0,16.8-14.6l11.2-79.576a15.413,15.413,0,0,0-15.263-17.562Z" transform="translate(-352.011 -268.948)" fill="#111c3a"/>
        <path id="Trazado_824785" data-name="Trazado 824785" d="M852.054,698.952H818.29l-2.738-73.916h24.03Z" transform="translate(-628.873 -481.965)" fill="#9f99aa"/>
        <path id="Trazado_824786" data-name="Trazado 824786" d="M865.942,698.952H832.178l-2.738-73.916h24.03Z" transform="translate(-639.582 -481.965)" fill="#10002b"/>
        <path id="Trazado_824787" data-name="Trazado 824787" d="M864.618,697.6H829.626l-2.78-75.06h25.108Zm-33.889-1.145h32.536L850.986,623.68H828.034Z" transform="translate(-637.582 -480.037)" fill="#111c3a"/>
        <path id="Trazado_824788" data-name="Trazado 824788" d="M861.843,524.281l4.583,8.567,8.263-8.567-5.208-8.808Z" transform="translate(-664.568 -397.481)" fill="#fff"/>
        <path id="Trazado_824789" data-name="Trazado 824789" d="M859.943,673.9a.572.572,0,0,1-.564-.477l-8.394-49.747H828.033l1.838,49.631a.572.572,0,1,1-1.144.043l-1.882-50.818h25.108l8.555,50.7a.572.572,0,0,1-.565.667" transform="translate(-637.581 -480.037)" fill="#fff"/>
        <path id="Trazado_824790" data-name="Trazado 824790" d="M489.375,0h44.377a14.665,14.665,0,1,1,0,29.33H501.231c-10.5,10.34-18.971,8.028-18.971,8.028a13.62,13.62,0,0,0,7.325-8.028h-.211a14.665,14.665,0,0,1,0-29.33" transform="translate(-366.049 0.004)" fill="url(#linear-gradient)"/>
        <path id="Trazado_824791" data-name="Trazado 824791" d="M533.708,32.474H576.5a2.532,2.532,0,0,0,2.532-2.532V28.423a2.532,2.532,0,0,0-2.532-2.532H533.708a2.532,2.532,0,0,0-2.532,2.532v1.519a2.532,2.532,0,0,0,2.532,2.532" transform="translate(-409.59 -19.964)" fill="#fff"/>
        <path id="Trazado_824792" data-name="Trazado 824792" d="M533.708,79.41h20.637a2.532,2.532,0,0,0,2.532-2.532V75.359a2.532,2.532,0,0,0-2.532-2.532H533.708a2.532,2.532,0,0,0-2.532,2.532v1.519a2.532,2.532,0,0,0,2.532,2.532" transform="translate(-409.59 -56.156)" fill="#fff"/>
        <path id="Trazado_824793" data-name="Trazado 824793" d="M668.349,264.608H580.276a3.868,3.868,0,0,1-3.786-4.657l.987-4.734a4.356,4.356,0,0,1,4.264-3.467h89.289Z" transform="translate(-444.468 -194.124)" fill="url(#linear-gradient)"/>
        <path id="Trazado_824794" data-name="Trazado 824794" d="M707.544,263.252h-129.2A4.44,4.44,0,0,1,574,257.906l.987-4.734a4.948,4.948,0,0,1,4.824-3.922h129.2a4.44,4.44,0,0,1,4.346,5.346l-.987,4.734a4.949,4.949,0,0,1-4.825,3.922M579.813,250.394a3.8,3.8,0,0,0-3.7,3.012l-.987,4.734a3.3,3.3,0,0,0,3.226,3.968h129.2a3.8,3.8,0,0,0,3.7-3.011l.987-4.734a3.3,3.3,0,0,0-3.226-3.968Z" transform="translate(-442.541 -192.196)" fill="#111c3a"/>
        <path id="Trazado_824795" data-name="Trazado 824795" d="M643.29,165.143a.572.572,0,0,1-.572-.572v-9.64h60.427a.572.572,0,0,1,0,1.144H643.862v8.5a.572.572,0,0,1-.572.572" transform="translate(-495.601 -119.467)" fill="#111c3a"/>
        <path id="Trazado_824796" data-name="Trazado 824796" d="M1120.982,185.072a.572.572,0,0,1-.572-.572V156.078h-27.364a.572.572,0,1,1,0-1.144h28.508V184.5a.572.572,0,0,1-.572.572" transform="translate(-842.408 -119.469)" fill="#111c3a"/>
        <path id="Trazado_824797" data-name="Trazado 824797" d="M900.465,148.553a2.636,2.636,0,1,1-2.636-2.636,2.636,2.636,0,0,1,2.636,2.636" transform="translate(-690.285 -112.516)" fill="url(#linear-gradient)"/>
        <path id="Trazado_824798" data-name="Trazado 824798" d="M1088.731,148.56a2.635,2.635,0,1,1-2.635-2.636,2.635,2.635,0,0,1,2.635,2.636" transform="translate(-835.457 -112.521)" fill="url(#linear-gradient)"/>
        <path id="Trazado_824799" data-name="Trazado 824799" d="M638.974,188.168a2.636,2.636,0,1,1-2.636-2.636,2.636,2.636,0,0,1,2.636,2.636" transform="translate(-488.649 -143.063)" fill="url(#linear-gradient)"/>
        <path id="Trazado_824800" data-name="Trazado 824800" d="M1210.776,275.223a2.635,2.635,0,1,1-2.635-2.636,2.636,2.636,0,0,1,2.635,2.636" transform="translate(-929.566 -210.191)" fill="url(#linear-gradient)"/>
        <path id="Trazado_824801" data-name="Trazado 824801" d="M701.563,950.977H529.634a.572.572,0,0,1,0-1.144H701.563a.572.572,0,1,1,0,1.144" transform="translate(-407.96 -732.416)" fill="#111c3a"/>
      </g>
    </g>
  </g>
</svg>
