<svg xmlns="http://www.w3.org/2000/svg" xmlns:xlink="http://www.w3.org/1999/xlink" width="61.023" height="67" viewBox="0 0 61.023 67">
  <defs>
    <clipPath id="clip-path">
      <path id="path3529" d="M0-682.665H60.694v60.694H0Z" transform="translate(0 682.665)"/>
    </clipPath>
  </defs>
  <g id="Grupo_1084079" data-name="Grupo 1084079" transform="translate(-840.254 -520.096)">
    <g id="Grupo_1070923" data-name="Grupo 1070923" transform="translate(840.254 520.888)">
      <g id="Grupo_1070195" data-name="Grupo 1070195" transform="translate(12.023 0)">
        <rect id="Rect치ngulo_374304" data-name="Rect치ngulo 374304" width="36.647" height="62.172" rx="3" fill="#9697f8"/>
      </g>
      <g id="g3519" transform="translate(0 5.515)">
        <g id="g3521" transform="translate(21.831 44.973)">
          <path id="path3523" d="M-163.949,0h-14.966l-1.032,6.927h17.031Z" transform="translate(179.948)" fill="#495560"/>
        </g>
        <g id="g3525">
          <g id="g3527" clip-path="url(#clip-path)">
            <g id="g3533" transform="translate(17.573 51.901)">
              <path id="path3535" d="M-246.69-47.944h-22.6a1.474,1.474,0,0,1-1.414-1.89l.206-.7a2.913,2.913,0,0,1,2.794-2.09h19.426a2.913,2.913,0,0,1,2.794,2.09l.206.7a1.474,1.474,0,0,1-1.414,1.89" transform="translate(270.763 52.623)" fill="#c7c7c7"/>
            </g>
            <g id="g3537" transform="translate(17.573 51.901)">
              <path id="path3539" d="M-110.509,0h-7.723a2.913,2.913,0,0,0-2.794,2.09l-.205.7a1.474,1.474,0,0,0,1.414,1.89h10.466A5.383,5.383,0,0,1-110.509,0" transform="translate(121.293)" fill="#98a5b3"/>
            </g>
            <g id="g3541" transform="translate(0.889 4.115)">
              <path id="path3543" d="M-531.739-418.708H-576.6a7.027,7.027,0,0,1-7.027-7.027v-26.8a7.027,7.027,0,0,1,7.027-7.027h44.862a7.027,7.027,0,0,1,7.027,7.027v26.8a7.027,7.027,0,0,1-7.027,7.027" transform="translate(583.628 459.567)" fill="#495560"/>
            </g>
            <g id="g3545" transform="translate(0.889 4.115)">
              <path id="path3547" d="M-194.993,0h-12a7.027,7.027,0,0,0-7.027,7.027v26.8a7.027,7.027,0,0,0,7.027,7.027h17.308c-6.679-6.99-9.619-26.612-5.307-40.859" transform="translate(214.021)" fill="#333941"/>
            </g>
            <g id="g3549" transform="translate(5.695 8.921)">
              <path id="path3551" d="M0-288.364V-313.4A3.107,3.107,0,0,1,3.107-316.5H46.2A3.107,3.107,0,0,1,49.3-313.4v25.033a3.107,3.107,0,0,1-3.107,3.107H3.107A3.107,3.107,0,0,1,0-288.364" transform="translate(0 316.503)" fill="#faef81"/>
            </g>
            <g id="g3553" transform="translate(5.695 8.921)">
              <path id="path3555" d="M-167.556-320.2c-3.746-7.786-5.266-20.388-3.281-31.246H-180.8a3.107,3.107,0,0,0-3.107,3.107v25.032A3.107,3.107,0,0,0-180.8-320.2Z" transform="translate(183.906 351.448)" fill="#fad271"/>
            </g>
            <g id="g3557" transform="translate(30.347 8.921)">
              <path id="path3559" d="M-220.784,0h-21.545V31.246h21.545a3.107,3.107,0,0,0,3.107-3.107V3.107A3.107,3.107,0,0,0-220.784,0" transform="translate(242.329 0)" fill="#333941"/>
            </g>
            <g id="g3561" transform="translate(0.889 35.98)">
              <path id="path3563" d="M0,0V1.966A7.027,7.027,0,0,0,7.027,8.993H51.889a7.027,7.027,0,0,0,7.027-7.027V0Z" fill="#c7c7c7"/>
            </g>
            <g id="g3565" transform="translate(0.889 35.98)">
              <path id="path3567" d="M0,0V1.966A7.027,7.027,0,0,0,7.027,8.993H24.334A23.773,23.773,0,0,1,19.5,0Z" fill="#98a5b3"/>
            </g>
            <g id="g3569" transform="translate(27.778 37.907)">
              <path id="path3571" d="M-52.656-26.328a2.569,2.569,0,0,1-2.569,2.569,2.569,2.569,0,0,1-2.569-2.569A2.569,2.569,0,0,1-55.225-28.9a2.569,2.569,0,0,1,2.569,2.569" transform="translate(57.795 28.897)" fill="#fff"/>
            </g>
            <g id="g3573" transform="translate(45.215 24.824)">
              <path id="path3575" d="M-5.577-8.222H-9.111A.889.889,0,0,1-10-9.111.889.889,0,0,1-9.111-10h3.534a.889.889,0,0,1,.889.889A.889.889,0,0,1-5.577-8.222Z" transform="translate(10 10)" fill="#fff"/>
            </g>
            <g id="g3577" transform="translate(34.818 24.824)">
              <path id="path3579" d="M-1.9-8.222H-9.111A.889.889,0,0,1-10-9.111.889.889,0,0,1-9.111-10H-1.9a.889.889,0,0,1,.889.889A.889.889,0,0,1-1.9-8.222Z" transform="translate(10 10)" fill="#84dfff"/>
            </g>
            <g id="g3581" transform="translate(41.223 28.057)">
              <path id="path3583" d="M-4.714-8.222h-4.4A.889.889,0,0,1-10-9.111.889.889,0,0,1-9.111-10h4.4a.889.889,0,0,1,.889.889A.889.889,0,0,1-4.714-8.222Z" transform="translate(10 10)" fill="#84dfff"/>
            </g>
            <g id="g3585" transform="translate(34.818 28.057)">
              <path id="path3587" d="M-5.895-8.222H-9.111A.889.889,0,0,1-10-9.111.889.889,0,0,1-9.111-10h3.216a.889.889,0,0,1,.889.889A.889.889,0,0,1-5.895-8.222Z" transform="translate(10 10)" fill="#fff"/>
            </g>
            <g id="g3589" transform="translate(40.999 21.591)">
              <path id="path3591" d="M-2.588-8.222H-9.111A.889.889,0,0,1-10-9.111.889.889,0,0,1-9.111-10h6.523a.889.889,0,0,1,.889.889A.889.889,0,0,1-2.588-8.222Z" transform="translate(10 10)" fill="#55d57b"/>
            </g>
            <g id="g3593" transform="translate(34.818 21.591)">
              <path id="path3595" d="M-6.119-8.222H-9.111A.889.889,0,0,1-10-9.111.889.889,0,0,1-9.111-10h2.992a.889.889,0,0,1,.889.889A.889.889,0,0,1-6.119-8.222Z" transform="translate(10 10)" fill="#ff8aa0"/>
            </g>
            <g id="g3597" transform="translate(45.017 18.358)">
              <path id="path3599" d="M-5.379-8.222H-9.111A.889.889,0,0,1-10-9.111.889.889,0,0,1-9.111-10h3.732a.889.889,0,0,1,.889.889A.889.889,0,0,1-5.379-8.222Z" transform="translate(10 10)" fill="#ff8aa0"/>
            </g>
            <g id="g3601" transform="translate(34.818 18.358)">
              <path id="path3603" d="M-2.1-8.222h-7.01A.889.889,0,0,1-10-9.111.889.889,0,0,1-9.111-10H-2.1a.889.889,0,0,1,.889.889A.889.889,0,0,1-2.1-8.222Z" transform="translate(10 10)" fill="#fff"/>
            </g>
            <g id="g3605" transform="translate(41.223 15.124)">
              <path id="path3607" d="M-5.137-8.222H-9.111A.889.889,0,0,1-10-9.111.889.889,0,0,1-9.111-10h3.974a.889.889,0,0,1,.889.889A.889.889,0,0,1-5.137-8.222Z" transform="translate(10 10)" fill="#55d57b"/>
            </g>
            <g id="g3609" transform="translate(34.818 15.124)">
              <path id="path3611" d="M-5.895-8.222H-9.111A.889.889,0,0,1-10-9.111.889.889,0,0,1-9.111-10h3.216a.889.889,0,0,1,.889.889A.889.889,0,0,1-5.895-8.222Z" transform="translate(10 10)" fill="#84dfff"/>
            </g>
            <g id="g3613" transform="translate(4.806 8.032)">
              <path id="path3615" d="M40.192-285.517a.889.889,0,0,1-.889-.889v-23.952a2.22,2.22,0,0,0-2.218-2.218H-6a2.22,2.22,0,0,0-2.218,2.218v23.952a.889.889,0,0,1-.889.889.889.889,0,0,1-.889-.889v-23.952a4,4,0,0,1,4-4H37.085a4,4,0,0,1,4,4v23.952A.889.889,0,0,1,40.192-285.517Z" transform="translate(10 314.354)"/>
            </g>
            <g id="g3617" transform="translate(0 3.225)">
              <path id="path3619" d="M-448.921,32.037a.886.886,0,0,1-.36-.077,7.926,7.926,0,0,1-4.71-7.24v-26.8A7.925,7.925,0,0,1-446.075-10h32.447a.889.889,0,0,1,.889.889.889.889,0,0,1-.889.889h-32.447a6.145,6.145,0,0,0-6.138,6.138v26.8a6.146,6.146,0,0,0,3.653,5.614.889.889,0,0,1,.452,1.173A.889.889,0,0,1-448.921,32.037Z" transform="translate(453.991 10)"/>
            </g>
            <g id="g3621" transform="translate(8.329 3.225)">
              <path id="path3623" d="M34.449-426.93H-9.111a.889.889,0,0,1-.889-.889.889.889,0,0,1,.889-.889h43.56a6.145,6.145,0,0,0,6.138-6.138v-26.8a6.145,6.145,0,0,0-6.138-6.138H26.508a.889.889,0,0,1-.889-.889.889.889,0,0,1,.889-.889h7.942a7.925,7.925,0,0,1,7.916,7.916v26.8A7.925,7.925,0,0,1,34.449-426.93Z" transform="translate(10 469.567)"/>
            </g>
            <g id="g3625" transform="translate(0 35.091)">
              <path id="path3627" d="M49.8-8.222H-9.111A.889.889,0,0,1-10-9.111.889.889,0,0,1-9.111-10H49.8a.889.889,0,0,1,.889.889A.889.889,0,0,1,49.8-8.222Z" transform="translate(10 10)"/>
            </g>
            <g id="g3629" transform="translate(20.942 44.084)">
              <path id="path3631" d="M-9.111-79.213a.9.9,0,0,1-.132-.01.889.889,0,0,1-.748-1.01l1.032-6.927a.889.889,0,0,1,1.01-.748A.889.889,0,0,1-7.2-86.9l-1.032,6.927A.889.889,0,0,1-9.111-79.213Z" transform="translate(10.001 87.918)"/>
            </g>
            <g id="g3633" transform="translate(36.941 44.084)">
              <path id="path3635" d="M-8.081-1.3a.889.889,0,0,1-.878-.758L-9.991-8.981a.889.889,0,0,1,.748-1.01.889.889,0,0,1,1.01.748L-7.2-2.316a.889.889,0,0,1-.748,1.01A.9.9,0,0,1-8.081-1.3Z" transform="translate(10.001 10.001)"/>
            </g>
            <g id="g3637" transform="translate(16.683 51.012)">
              <path id="path3639" d="M-1.636-56.166h-22.6a2.343,2.343,0,0,1-1.892-.948A2.343,2.343,0,0,1-26.5-59.2l.206-.7a3.823,3.823,0,0,1,3.647-2.728H-3.222A3.823,3.823,0,0,1,.426-59.894l.206.7a2.343,2.343,0,0,1-.375,2.083A2.343,2.343,0,0,1-1.636-56.166Zm-21.012-4.679a2.035,2.035,0,0,0-1.941,1.452l-.206.7a.58.58,0,0,0,.093.515.574.574,0,0,0,.468.235h22.6a.574.574,0,0,0,.468-.235.58.58,0,0,0,.093-.516l-.206-.7a2.035,2.035,0,0,0-1.941-1.452Z" transform="translate(26.598 62.623)"/>
            </g>
            <g id="g3641" transform="translate(9.564 17.855)">
              <path id="path3643" d="M-46.65-.9a.886.886,0,0,1-.629-.26l-3.663-3.663a.889.889,0,0,1,0-1.257l3.663-3.663a.889.889,0,0,1,1.257,0,.889.889,0,0,1,0,1.257l-3.035,3.035,3.035,3.035a.889.889,0,0,1,0,1.257A.886.886,0,0,1-46.65-.9Z" transform="translate(51.203 10)"/>
            </g>
            <g id="g3645" transform="translate(21.036 17.855)">
              <path id="path3647" d="M-9.111-.9a.886.886,0,0,1-.629-.26.889.889,0,0,1,0-1.257l3.035-3.035L-9.74-8.482a.889.889,0,0,1,0-1.257.889.889,0,0,1,1.257,0l3.663,3.663a.889.889,0,0,1,0,1.257L-8.482-1.156A.886.886,0,0,1-9.111-.9Z" transform="translate(10 10)"/>
            </g>
            <g id="g3649" transform="translate(15.074 15.865)">
              <path id="path3651" d="M-9.113-124.078a.887.887,0,0,1-.3-.054.889.889,0,0,1-.531-1.14l4.115-11.305a.889.889,0,0,1,1.14-.531.889.889,0,0,1,.531,1.14l-4.115,11.305A.89.89,0,0,1-9.113-124.078Z" transform="translate(10.003 137.162)"/>
            </g>
          </g>
        </g>
      </g>
    </g>
    <rect id="Rect치ngulo_375016" data-name="Rect치ngulo 375016" width="60.969" height="64.122" transform="translate(840.309 520.096)" fill="none"/>
  </g>
</svg>
