<svg id="Grupo_1076036" data-name="Grupo 1076036" xmlns="http://www.w3.org/2000/svg" xmlns:xlink="http://www.w3.org/1999/xlink" width="315" height="225.448" viewBox="0 0 315 225.448">
  <defs>
    <clipPath id="clip-path">
      <rect id="Rectángulo_378148" data-name="Rectángulo 378148" width="315" height="225.448" fill="none"/>
    </clipPath>
    <linearGradient id="linear-gradient" x1="0.5" x2="0.5" y2="1" gradientUnits="objectBoundingBox">
      <stop offset="0" stop-color="#b31a8f"/>
      <stop offset="1" stop-color="#fe117e"/>
    </linearGradient>
  </defs>
  <g id="Grupo_1076029" data-name="Grupo 1076029" clip-path="url(#clip-path)">
    <path id="Trazado_824809" data-name="Trazado 824809" d="M1083.561,89.5a25.393,25.393,0,1,1-25.393-25.393A25.393,25.393,0,0,1,1083.561,89.5" transform="translate(-778.92 -48.35)"/>
    <path id="Trazado_824810" data-name="Trazado 824810" d="M1110.616,135.083l-7.09,7.09-3.031-3.031a1.091,1.091,0,0,0-1.543,0l-3.026,3.026a1.091,1.091,0,0,0,0,1.543l6.755,6.755a1.2,1.2,0,0,0,1.69,0l10.814-10.814a1.091,1.091,0,0,0,0-1.543l-3.026-3.026a1.091,1.091,0,0,0-1.543,0" transform="translate(-826.309 -101.639)" fill="#fff"/>
    <path id="Trazado_824811" data-name="Trazado 824811" d="M820.906,37.883a18.941,18.941,0,1,1,18.941-18.941,18.963,18.963,0,0,1-18.941,18.941m0-36.654a17.712,17.712,0,1,0,17.713,17.712A17.732,17.732,0,0,0,820.906,1.229" transform="translate(-604.844)" fill="#111c3a"/>
    <path id="Trazado_824812" data-name="Trazado 824812" d="M860.646,53.724l-5.117,5.117-2.188-2.188a.788.788,0,0,0-1.114,0l-2.183,2.184a.787.787,0,0,0,0,1.114l4.875,4.875a.863.863,0,0,0,1.22,0l7.8-7.8a.787.787,0,0,0,0-1.114l-2.183-2.184a.788.788,0,0,0-1.114,0" transform="translate(-640.931 -40.345)"/>
    <path id="Trazado_824813" data-name="Trazado 824813" d="M881.643,224.124a16.255,16.255,0,1,1-16.255-16.255,16.255,16.255,0,0,1,16.255,16.255" transform="translate(-640.418 -156.775)" fill="url(#linear-gradient)"/>
    <path id="Trazado_824814" data-name="Trazado 824814" d="M898.964,253.3l-4.539,4.538-1.94-1.94a.7.7,0,0,0-.988,0l-1.937,1.937a.7.7,0,0,0,0,.988l4.324,4.324a.765.765,0,0,0,1.082,0l6.922-6.922a.7.7,0,0,0,0-.988l-1.937-1.937a.7.7,0,0,0-.988,0" transform="translate(-670.754 -190.888)" fill="#fff"/>
    <rect id="Rectángulo_378144" data-name="Rectángulo 378144" width="3.155" height="3.155" transform="translate(108.82 73.376) rotate(-45)" fill="url(#linear-gradient)"/>
    <rect id="Rectángulo_378145" data-name="Rectángulo 378145" width="7.283" height="7.283" transform="translate(59.521 49.177) rotate(-45)" fill="url(#linear-gradient)"/>
    <rect id="Rectángulo_378146" data-name="Rectángulo 378146" width="8.943" height="8.943" transform="translate(92.352 17.031) rotate(-45)" fill="url(#linear-gradient)"/>
    <path id="Trazado_824815" data-name="Trazado 824815" d="M627.418,75.427s16.065,11.919.637,21.32a11.706,11.706,0,0,1-9.25,1.353c-2.005-.57-3.835-1.7-4.1-3.909-1.47-12.263,12.713-18.763,12.713-18.763" transform="translate(-463.531 -56.887)" fill="#10002b"/>
    <path id="Trazado_824816" data-name="Trazado 824816" d="M619.955,96.953a11.689,11.689,0,0,1-3.2-.441c-2.717-.772-4.288-2.3-4.543-4.428-.625-5.216,1.448-10.23,5.995-14.5a29.3,29.3,0,0,1,7.073-4.894l.33-.152.292.217c.322.239,7.883,5.93,7.572,12.771-.165,3.626-2.514,6.845-6.981,9.567a12.606,12.606,0,0,1-6.541,1.86m5.509-22.983c-2.091,1.069-13.3,7.328-12.028,17.968.194,1.616,1.424,2.757,3.658,3.392a11.094,11.094,0,0,0,8.763-1.286c4.1-2.5,6.247-5.381,6.392-8.573.249-5.48-5.421-10.4-6.785-11.5" transform="translate(-461.652 -54.708)" fill="#111c3a"/>
    <path id="Trazado_824817" data-name="Trazado 824817" d="M746.662,338.795a20.669,20.669,0,1,1-20.669-20.669,20.669,20.669,0,0,1,20.669,20.669" transform="translate(-531.957 -239.931)" fill="url(#linear-gradient)"/>
    <path id="Trazado_824818" data-name="Trazado 824818" d="M358.7,369.584a20.669,20.669,0,1,1-20.669-20.669A20.669,20.669,0,0,1,358.7,369.584" transform="translate(-239.357 -263.152)" fill="url(#linear-gradient)"/>
    <path id="Trazado_824819" data-name="Trazado 824819" d="M755.23,360.142l13.708,25.919-32.36,20.4-16.221-24.183Z" transform="translate(-543.294 -271.62)" fill="url(#linear-gradient)"/>
    <path id="Trazado_824820" data-name="Trazado 824820" d="M250.668,373.5l-29.779,22.3L244.6,427.125l30.813-20.991Z" transform="translate(-166.594 -281.691)" fill="url(#linear-gradient)"/>
    <path id="Trazado_824821" data-name="Trazado 824821" d="M818.709,335.205l3.183,7.379s21.412-42.391,41.234-49.625c0,0,8.392-2.315,3.038,7.234,0,0,25.174-5.5,27.634-2.894,1.9,2.013,1.3,3.075.923,3.454a.083.083,0,0,0,.067.14l3.566-.315a3.879,3.879,0,0,1,2.734.766c1.187.928,1.728,3.96-3.674,4.636,0,0,3.328,4.067-1.881,5.362H892.5s4.243,4.9-1.157,5.49c-25.753,2.8-31.974,11.285-31.974,11.285l-20.295,53.156c-6.24,16.344-28.751,17.9-37.184,2.574L786.349,355.6Z" transform="translate(-593.066 -220.764)" fill="#fff"/>
    <path id="Trazado_824822" data-name="Trazado 824822" d="M817.316,393.226a20.927,20.927,0,0,1-18.477-10.96l-15.816-28.748,33.458-21.092,2.954,6.849a228.861,228.861,0,0,1,12.625-21.013c10.466-15.373,20-24.712,28.347-27.757l.047-.015c.146-.04,3.575-.96,5.014.877.966,1.233.753,3.228-.655,6.076,2.187-.456,6.855-1.4,11.641-2.157,13.523-2.149,14.8-.8,15.283-.285,1.4,1.477,1.606,2.576,1.448,3.319l2.607-.23a4.47,4.47,0,0,1,3.167.894,2.752,2.752,0,0,1,.925,2.833c-.269.975-1.186,2.194-3.946,2.744a4,4,0,0,1,.485,3.1c-.383,1.153-1.476,1.961-3.249,2.4l-.073.018h-1.9c.619.969,1.309,2.445.82,3.689-.4,1.011-1.449,1.615-3.125,1.8-24.085,2.616-30.895,10.243-31.5,10.981l-20.261,53.069a20.95,20.95,0,0,1-18.3,13.558q-.763.053-1.518.053M784.658,353.94l15.257,27.734a19.925,19.925,0,0,0,36.071-2.5l20.324-53.233.049-.067c.261-.355,6.677-8.739,32.4-11.533.815-.089,1.843-.338,2.113-1.025.416-1.059-.871-2.893-1.354-3.452l-.88-1.016h4.306c1.292-.333,2.068-.863,2.307-1.575a3.508,3.508,0,0,0-.825-2.784l-.7-.86,1.1-.138c2.182-.273,3.592-1,3.869-2a1.511,1.511,0,0,0-.5-1.537,3.247,3.247,0,0,0-2.3-.638l-3.566.315a.7.7,0,0,1-.56-1.183c.488-.5.14-1.467-.931-2.6-.309-.326-2.244-1.244-14.2.655-6.508,1.034-12.8,2.4-12.86,2.417l-1.336.292.669-1.193c1.612-2.875,2.1-4.967,1.381-5.89-.768-.983-2.906-.669-3.7-.457-19.359,7.094-40.658,48.895-40.871,49.316l-.592,1.172-3.419-7.926Z" transform="translate(-590.558 -218.888)" fill="#111c3a"/>
    <path id="Trazado_824823" data-name="Trazado 824823" d="M890.806,512.584a.634.634,0,0,1-.124-.013.615.615,0,0,1-.478-.726c3.306-16.1,11.075-31.276,11.153-31.427a.614.614,0,1,1,1.092.563c-.077.15-7.77,15.18-11.041,31.111a.615.615,0,0,1-.6.491" transform="translate(-671.384 -362.081)" fill="#111c3a"/>
    <path id="Trazado_824824" data-name="Trazado 824824" d="M1060.324,327.827a.614.614,0,0,1-.437-1.046c5.015-5.081,13.841-7.632,14.215-7.738a.615.615,0,0,1,.336,1.182c-.088.025-8.891,2.571-13.676,7.419a.613.613,0,0,1-.437.183" transform="translate(-799.236 -240.605)" fill="#111c3a"/>
    <path id="Trazado_824825" data-name="Trazado 824825" d="M1114.479,329.4a.615.615,0,0,1-.3-1.151c10.838-6.061,26.981-5.064,27.663-5.019a.615.615,0,0,1-.082,1.226c-.163-.011-16.465-1.016-26.981,4.866a.612.612,0,0,1-.3.078" transform="translate(-840.078 -243.715)" fill="#111c3a"/>
    <path id="Trazado_824826" data-name="Trazado 824826" d="M1125.662,348.953a.615.615,0,0,1-.217-1.19c11.194-4.217,27.926-3.87,28.092-3.867a.614.614,0,0,1,.6.629.621.621,0,0,1-.629.6c-.165,0-16.66-.344-27.63,3.789a.615.615,0,0,1-.217.04" transform="translate(-848.513 -259.361)" fill="#111c3a"/>
    <path id="Trazado_824827" data-name="Trazado 824827" d="M1134.2,369.4a.614.614,0,0,1-.179-1.2c11.821-3.614,20.091-2.661,20.437-2.618a.614.614,0,0,1-.149,1.22c-.083-.01-8.376-.958-19.929,2.574a.609.609,0,0,1-.18.027" transform="translate(-854.95 -275.611)" fill="#111c3a"/>
    <path id="Trazado_824828" data-name="Trazado 824828" d="M66.507,216.027l-4.061,3.461L52.189,172.366s-3.176-19.285-21.554-27.453c0,0-4.8-3.325-6.075-7.309a3.485,3.485,0,0,0-2.641-2.41c-1.248-.227-2.628.189-3.158,2.76-1.059,5.143,6.5,13.462,6.5,13.462l-4.011,1.918a8.84,8.84,0,0,0-4.787,10.145c1.246,4.841,2.524,15.841,14.477,18.83l6.611,55.832a25.009,25.009,0,0,0,39.7,18.672l12.963-9.457Z" transform="translate(-12.213 -101.924)" fill="#fff"/>
    <path id="Trazado_824829" data-name="Trazado 824829" d="M60.707,260.4a25.738,25.738,0,0,1-10.976-2.489,25.286,25.286,0,0,1-14.669-21.6l-6.56-55.4c-10.774-2.916-12.954-12.43-14.132-17.57-.132-.577-.257-1.122-.379-1.6A9.464,9.464,0,0,1,19.108,150.9l3.281-1.569c-1.757-2.067-7.059-8.775-6.111-13.381.681-3.308,2.716-3.451,3.869-3.241a4.08,4.08,0,0,1,3.117,2.827c1.129,3.536,5.316,6.616,5.795,6.959a37.743,37.743,0,0,1,17.906,17.039,39.245,39.245,0,0,1,3.946,10.835l10.035,46.105,3.776-3.217L89.206,245.6l-13.469,9.825A25.417,25.417,0,0,1,60.707,260.4M19.456,133.87c-.74,0-1.578.4-1.974,2.326-.983,4.777,6.283,12.844,6.357,12.925l.556.611-4.756,2.274a8.233,8.233,0,0,0-4.457,9.438c.126.489.253,1.041.387,1.627,1.214,5.3,3.245,14.159,13.644,16.759l.411.1,6.665,56.288a24.394,24.394,0,0,0,38.725,18.213l12.458-9.088L64.529,215.035l-4.347,3.7L49.7,170.583a38.672,38.672,0,0,0-3.843-10.515A36.51,36.51,0,0,0,28.5,143.592l-.1-.056c-.2-.141-4.99-3.492-6.31-7.627a2.855,2.855,0,0,0-2.166-1.992,2.633,2.633,0,0,0-.471-.047" transform="translate(-10.332 -100.041)" fill="#111c3a"/>
    <path id="Trazado_824830" data-name="Trazado 824830" d="M50.52,219.41a.615.615,0,0,1-.493-.98c.877-1.183,1.249-2.157,1.048-2.742-.13-.379-.529-.664-1.186-.846a4.533,4.533,0,0,0-2.851.193c-1.753.676-4.3,1.605-6.454,2.189-3.033.82-4.441.766-4.857-.188-.988-2.257,2.946-4.57,3.4-4.827a.614.614,0,0,1,.607,1.069c-1.37.779-3.211,2.329-2.895,3.225.472.257,3.016-.013,9.759-2.614a5.75,5.75,0,0,1,3.622-.231,2.673,2.673,0,0,1,2.019,1.631c.351,1.022-.048,2.289-1.223,3.874a.614.614,0,0,1-.494.248m-13.668-2.867h0Z" transform="translate(-26.826 -159.987)" fill="#111c3a"/>
    <path id="Trazado_824831" data-name="Trazado 824831" d="M61.194,242.3a.615.615,0,0,1-.546-.9,3.678,3.678,0,0,0,.291-2.6,1.982,1.982,0,0,0-1.349-1.081c-2.457-.779-10.649,2.988-13.6,4.505a.615.615,0,1,1-.562-1.093c1.132-.582,11.156-5.659,14.534-4.584a3.171,3.171,0,0,1,2.114,1.785,4.868,4.868,0,0,1-.336,3.627.615.615,0,0,1-.547.333" transform="translate(-34.011 -178.295)" fill="#111c3a"/>
    <path id="Trazado_824832" data-name="Trazado 824832" d="M70.01,263.191a.615.615,0,0,1-.546-.9,3.679,3.679,0,0,0,.291-2.6,1.981,1.981,0,0,0-1.349-1.081c-2.452-.78-10.649,2.988-13.6,4.505a.615.615,0,1,1-.562-1.093c1.132-.582,11.155-5.658,14.534-4.584a3.171,3.171,0,0,1,2.113,1.785,4.868,4.868,0,0,1-.336,3.627.615.615,0,0,1-.547.333" transform="translate(-40.66 -194.055)" fill="#111c3a"/>
    <path id="Trazado_824833" data-name="Trazado 824833" d="M79.881,288.2a5.575,5.575,0,0,1-.7-.041,2.349,2.349,0,0,1-2.091-2.25,2.461,2.461,0,0,1,1.862-2.577l4.369-1.1a1.637,1.637,0,0,0,1-.749,1.356,1.356,0,0,0,.155-1.041,1.388,1.388,0,0,0-1.044-.947c-1.686-.537-7.438,1.9-10.667,3.558a.615.615,0,1,1-.562-1.093c.9-.463,8.877-4.5,11.6-3.636a2.53,2.53,0,0,1,1.575,3.782,2.871,2.871,0,0,1-1.762,1.317l-4.369,1.1a1.221,1.221,0,0,0-.936,1.31,1.126,1.126,0,0,0,1.016,1.106,5.662,5.662,0,0,0,1.322-.016.614.614,0,0,1,.14,1.221,8.057,8.057,0,0,1-.917.056" transform="translate(-54.21 -209.817)" fill="#111c3a"/>
    <path id="Trazado_824834" data-name="Trazado 824834" d="M377.6,326.539l40.958-7.579,21.992-.834h38.273L475.8,431.776H380.651Z" transform="translate(-284.786 -239.931)" fill="url(#linear-gradient)"/>
    <rect id="Rectángulo_378147" data-name="Rectángulo 378147" width="95.199" height="32.883" transform="translate(95.865 191.845)" fill="#10002b"/>
    <path id="Trazado_824835" data-name="Trazado 824835" d="M546.7,290.959l12.364-28.247-.211-17.183H527.607V263.48Z" transform="translate(-397.922 -185.178)" fill="#fff"/>
    <path id="Trazado_824836" data-name="Trazado 824836" d="M544.938,290.326l-19.831-28.54V243.028h32.469l.22,17.923-.054.122Zm-18.6-28.925,18.357,26.419,11.87-27.119-.2-16.444H526.336Z" transform="translate(-396.037 -183.292)" fill="#111c3a"/>
    <path id="Trazado_824837" data-name="Trazado 824837" d="M552.206,80.793s21.5,26.372,10.416,43.657-35.015,0-35.015,0V80.793s8.421-5.762,24.6,0" transform="translate(-397.922 -59.003)" fill="#fff"/>
    <path id="Trazado_824838" data-name="Trazado 824838" d="M552.206,80.793s21.5,26.372,10.416,43.657-35.015,0-35.015,0V80.793s8.421-5.762,24.6,0" transform="translate(-397.922 -59.003)" fill="#fff"/>
    <path id="Trazado_824839" data-name="Trazado 824839" d="M546.714,130.808a29.062,29.062,0,0,1-9.137-1.639.615.615,0,1,1,.388-1.166c10.127,3.375,17.614,1.416,22.254-5.822,5.575-8.7,2.482-19.876-1.095-27.724a79.292,79.292,0,0,0-9.174-15.081c-13.989-4.929-22.077-1.04-23.614-.174v45.365a.615.615,0,0,1-1.229,0V78.53l.267-.183c.354-.243,8.866-5.872,25.152-.072l.162.058.108.133a80.241,80.241,0,0,1,9.446,15.48c5.31,11.653,5.659,21.645,1.011,28.9a16.419,16.419,0,0,1-14.54,7.964" transform="translate(-396.037 -57.065)" fill="#111c3a"/>
    <path id="Trazado_824840" data-name="Trazado 824840" d="M551.105,34.84s9.328,8.8,20.409,3.993a15.554,15.554,0,0,0,8.361-20.267c-2.314-5.351-7.743-9.266-20.2-3.524-18.911,8.717-8.569,19.8-8.569,19.8" transform="translate(-413.516 -9.209)" fill="#10002b"/>
    <path id="Trazado_824841" data-name="Trazado 824841" d="M562.8,39a19.642,19.642,0,0,1-7.781-1.671,23.112,23.112,0,0,1-6.228-3.916l-.028-.028c-.157-.168-3.837-4.183-2.808-9.418.863-4.395,4.756-8.216,11.569-11.356,6.255-2.883,11.347-3.61,15.136-2.161a10.509,10.509,0,0,1,5.886,6,16.149,16.149,0,0,1-8.68,21.074A17.654,17.654,0,0,1,562.8,39M549.65,32.534c.428.391,9.364,8.357,19.728,3.862a14.919,14.919,0,0,0,8.041-19.459,9.327,9.327,0,0,0-5.2-5.338c-3.467-1.326-8.239-.61-14.182,2.129-6.429,2.963-10.087,6.484-10.875,10.465-.884,4.467,2.255,8.083,2.486,8.341" transform="translate(-411.625 -7.335)" fill="#111c3a"/>
    <path id="Trazado_824842" data-name="Trazado 824842" d="M494.465,72.18s3.732,15.365-10.249,24.968c0,0-17.044-6.89-11.174-22.752,6.944-18.763,21.423-2.216,21.423-2.216" transform="translate(-355.842 -49.356)" fill="#10002b"/>
    <path id="Trazado_824843" data-name="Trazado 824843" d="M482.429,95.954l-.306-.124a25.411,25.411,0,0,1-8-5.574c-3.339-3.507-6.659-9.47-3.517-17.961,1.668-4.508,3.931-7.423,6.724-8.665a9.27,9.27,0,0,1,7.395.164,16.458,16.458,0,0,1,5.052,2.8.615.615,0,0,1-.844.893,15.4,15.4,0,0,0-4.664-2.556,8.093,8.093,0,0,0-6.44-.182c-2.479,1.1-4.522,3.783-6.071,7.969-2.341,6.327-1.255,11.932,3.228,16.659a24.817,24.817,0,0,0,7.3,5.179,22.85,22.85,0,0,0,9.8-15.326,13.337,13.337,0,0,0-.145-5.187.615.615,0,0,1,1.2-.272,14.563,14.563,0,0,1,.158,5.663,24.364,24.364,0,0,1-10.6,16.33Z" transform="translate(-353.979 -47.467)" fill="#111c3a"/>
    <path id="Trazado_824844" data-name="Trazado 824844" d="M511.315,171.8l-.182.091a7.236,7.236,0,0,1-10.412-6.3c-.056-2.459.371-5.006,2.062-6.311,3.878-2.992,8.532,3.546,8.532,3.546Z" transform="translate(-377.641 -119.535)" fill="#fff"/>
    <path id="Trazado_824845" data-name="Trazado 824845" d="M506.072,171.359a7.868,7.868,0,0,1-7.85-7.645c-.075-3.284.7-5.576,2.3-6.811a4.144,4.144,0,0,1,3.244-.863c3.243.482,6.046,4.373,6.164,4.538a.615.615,0,0,1-1,.713c-.026-.036-2.621-3.633-5.346-4.036a2.913,2.913,0,0,0-2.31.62c-1.589,1.225-1.868,3.836-1.823,5.81a6.621,6.621,0,0,0,9.526,5.764l.174-.087a.615.615,0,1,1,.56,1.094l-.191.1a7.788,7.788,0,0,1-3.447.806" transform="translate(-375.756 -117.648)" fill="#111c3a"/>
    <path id="Trazado_824846" data-name="Trazado 824846" d="M518.4,186.063c-2.975,0-4.269-1.764-4.543-2.767a.614.614,0,0,1,1.184-.329c.029.1.676,2.129,3.96,1.839a.615.615,0,0,1,.107,1.224q-.369.032-.708.032" transform="translate(-387.537 -137.657)" fill="#111c3a"/>
    <path id="Trazado_824847" data-name="Trazado 824847" d="M902.064,437.746a.615.615,0,0,1-.544-.327l-4.58-8.66a.615.615,0,0,1,1.086-.575l4.58,8.66a.615.615,0,0,1-.543.9" transform="translate(-676.42 -322.69)" fill="#111c3a"/>
    <path id="Trazado_824848" data-name="Trazado 824848" d="M775.438,557.346h-.016a.614.614,0,0,1-.6-.63l1.871-72.312a.622.622,0,0,1,.63-.6.614.614,0,0,1,.6.63l-1.871,72.313a.614.614,0,0,1-.614.6" transform="translate(-584.373 -364.886)" fill="#111c3a"/>
    <path id="Trazado_824849" data-name="Trazado 824849" d="M315.479,540.515a.614.614,0,0,1-.343-1.125l24.216-16.26a.615.615,0,0,1,.685,1.02l-24.216,16.26a.613.613,0,0,1-.342.1" transform="translate(-237.471 -394.467)" fill="#111c3a"/>
    <path id="Trazado_824850" data-name="Trazado 824850" d="M219,426.76a.614.614,0,0,1-.369-1.106l15.749-11.793a.614.614,0,1,1,.736.983l-15.749,11.793a.611.611,0,0,1-.368.123" transform="translate(-164.709 -312.041)" fill="#111c3a"/>
    <path id="Trazado_824851" data-name="Trazado 824851" d="M203.328,480.416a.615.615,0,0,1-.6-.479l-2.89-12.773a.615.615,0,0,1,1.2-.271l2.89,12.773a.615.615,0,0,1-.464.735.631.631,0,0,1-.136.015" transform="translate(-150.707 -351.77)" fill="#111c3a"/>
    <path id="Trazado_824852" data-name="Trazado 824852" d="M608.1,177.426c.185,1.143-.3,2.173-1.091,2.3s-1.575-.7-1.759-1.84.3-2.173,1.091-2.3,1.575.7,1.759,1.84" transform="translate(-456.447 -132.418)" fill="#10002b"/>
    <path id="Trazado_824853" data-name="Trazado 824853" d="M655.543,171.225c.185,1.143-.3,2.173-1.091,2.3s-1.575-.7-1.759-1.84.3-2.173,1.091-2.3,1.575.7,1.759,1.84" transform="translate(-492.232 -127.741)" fill="#10002b"/>
    <path id="Trazado_824854" data-name="Trazado 824854" d="M633.976,182.392a23.523,23.523,0,0,1,2.638,4.755,23.819,23.819,0,0,1,.888,2.6,6.026,6.026,0,0,1,.312,2.817,2,2,0,0,1-1.408,1.63c-.77.178-.444,1.363.327,1.185a3.007,3.007,0,0,0,1.976-1.666,5.066,5.066,0,0,0,.249-3.175,21.987,21.987,0,0,0-2.122-5.826,24.25,24.25,0,0,0-1.8-2.942.631.631,0,0,0-.841-.22.619.619,0,0,0-.22.84" transform="translate(-478.079 -136.864)" fill="#111c3a"/>
    <path id="Trazado_824855" data-name="Trazado 824855" d="M606.049,241.095a6.767,6.767,0,0,0,7.739,3.591.615.615,0,0,0-.327-1.185,5.543,5.543,0,0,1-6.351-3.027.619.619,0,0,0-.841-.22.629.629,0,0,0-.221.841" transform="translate(-457.029 -181.141)" fill="#111c3a"/>
    <path id="Trazado_824856" data-name="Trazado 824856" d="M588.49,155.663a9.211,9.211,0,0,1,5.262-2.867.62.62,0,0,0,.429-.756.629.629,0,0,0-.756-.429,10.287,10.287,0,0,0-5.8,3.184c-.533.583.334,1.454.869.869" transform="translate(-443.059 -114.336)" fill="#111c3a"/>
    <path id="Trazado_824857" data-name="Trazado 824857" d="M648.728,147.922a5.622,5.622,0,0,1,3.621,1.108.617.617,0,0,0,.841-.22.632.632,0,0,0-.221-.841,6.823,6.823,0,0,0-4.241-1.276.615.615,0,0,0,0,1.229" transform="translate(-488.808 -110.632)" fill="#111c3a"/>
    <path id="Trazado_824858" data-name="Trazado 824858" d="M721.776,693.213l19.614-56.754a5.013,5.013,0,0,0-4.738-6.65H657.439a2.177,2.177,0,0,0-2.075,1.516l-20.677,64.895H581.637a1.809,1.809,0,0,0,0,3.617H712.481a9.835,9.835,0,0,0,9.3-6.623" transform="translate(-437.307 -475.002)" fill="#10002b"/>
    <path id="Trazado_824859" data-name="Trazado 824859" d="M634.956,695.378,655.3,631.286a2.112,2.112,0,1,1,4.022,1.292L638.182,697.67a3.139,3.139,0,0,1-2.986,2.169h-53.56a1.808,1.808,0,1,1,0-3.617H633.8a1.212,1.212,0,0,0,1.155-.845" transform="translate(-437.307 -475.006)" fill="#9f99aa"/>
    <path id="Trazado_824860" data-name="Trazado 824860" d="M579.752,698.568a2.423,2.423,0,1,1,0-4.846h52.164a.6.6,0,0,0,.569-.417l20.345-64.091a2.717,2.717,0,0,1,2.6-1.9.615.615,0,0,1,0,1.229A1.493,1.493,0,0,0,654,629.586l-20.345,64.092a1.82,1.82,0,0,1-1.74,1.273H579.752a1.194,1.194,0,1,0,0,2.388.614.614,0,1,1,0,1.229" transform="translate(-435.423 -473.12)" fill="#111c3a"/>
    <path id="Trazado_824861" data-name="Trazado 824861" d="M1025.419,757.99l4.091,7.648,7.377-7.648-4.65-7.863Z" transform="translate(-773.373 -565.747)" fill="#fff"/>
    <path id="Trazado_824868" data-name="Trazado 824868" d="M314.385,913.437H.614a.614.614,0,1,1,0-1.229H314.385a.614.614,0,1,1,0,1.229" transform="translate(0 -687.989)" fill="#111c3a"/>
  </g>
</svg>
